STARTFONT 2.1
COMMENT
COMMENT Converted from OpenType font "JF-Dot-AyuMin18.ttf" by "otf2bdf 3.0".
COMMENT
FONT -FreeType-JF Dot Ayu Mincho 18-Medium-R-Normal--17-120-100-100-P-181-ISO10646-1
SIZE 12 100 100
FONTBOUNDINGBOX 18 18 0 -3
STARTPROPERTIES 19
FOUNDRY "FreeType"
FAMILY_NAME "JF Dot Ayu Mincho 18"
WEIGHT_NAME "Medium"
SLANT "R"
SETWIDTH_NAME "Normal"
ADD_STYLE_NAME ""
PIXEL_SIZE 17
POINT_SIZE 120
RESOLUTION_X 100
RESOLUTION_Y 100
SPACING "P"
AVERAGE_WIDTH 181
CHARSET_REGISTRY "ISO10646"
CHARSET_ENCODING "1"
FONT_ASCENT 15
FONT_DESCENT 2
COPYRIGHT "-FreeType-JF Dot Ayu Mincho 18-Medium-R-Normal--17-120-100-100-P-181-ISO10646-1"
_OTF_FONTFILE "JF-Dot-AyuMin18.ttf"
_OTF_PSNAME "JF-Dot-AyuMin-18"
ENDPROPERTIES
CHARS 7221
STARTCHAR 0020
ENCODING 32
SWIDTH 540 0
DWIDTH 9 0
BBX 9 18 0 -3
BITMAP
0000
0000
0000
0000
0000
0000
0000
0000
0000
0000
0000
0000
0000
0000
0000
0000
0000
0000
ENDCHAR
STARTCHAR 0021
ENCODING 33
SWIDTH 540 0
DWIDTH 9 0
BBX 9 18 0 -3
BITMAP
0000
1000
1800
1800
1800
1800
1800
1800
1000
1000
1000
1000
0000
0000
1800
1800
0000
0000
ENDCHAR
STARTCHAR 0022
ENCODING 34
SWIDTH 540 0
DWIDTH 9 0
BBX 9 18 0 -3
BITMAP
0000
3600
3600
1200
2400
0000
0000
0000
0000
0000
0000
0000
0000
0000
0000
0000
0000
0000
ENDCHAR
STARTCHAR 0023
ENCODING 35
SWIDTH 540 0
DWIDTH 9 0
BBX 9 18 0 -3
BITMAP
0000
1200
1200
1200
7F80
1200
1200
2200
2200
2400
2400
FF00
2400
2400
2400
2400
0000
0000
ENDCHAR
STARTCHAR 0024
ENCODING 36
SWIDTH 540 0
DWIDTH 9 0
BBX 9 18 0 -3
BITMAP
0800
0800
1C00
2A00
4900
4800
2800
1C00
0A00
0900
6900
4900
2A00
1C00
0800
0800
0000
0000
ENDCHAR
STARTCHAR 0025
ENCODING 37
SWIDTH 540 0
DWIDTH 9 0
BBX 9 18 0 -3
BITMAP
0000
0100
3100
4A00
4A00
4A00
3400
0400
0800
0800
1000
1600
2900
2900
2900
4600
4000
0000
ENDCHAR
STARTCHAR 0026
ENCODING 38
SWIDTH 540 0
DWIDTH 9 0
BBX 9 18 0 -3
BITMAP
0000
0000
3800
4400
4400
4400
4800
3000
2380
5100
5100
8A00
8A00
4480
3B00
0000
0000
0000
ENDCHAR
STARTCHAR 0027
ENCODING 39
SWIDTH 540 0
DWIDTH 9 0
BBX 9 18 0 -3
BITMAP
0000
1800
1800
0800
1000
0000
0000
0000
0000
0000
0000
0000
0000
0000
0000
0000
0000
0000
ENDCHAR
STARTCHAR 0028
ENCODING 40
SWIDTH 540 0
DWIDTH 9 0
BBX 9 18 0 -3
BITMAP
0200
0400
0800
0800
1000
1000
2000
2000
2000
2000
2000
1000
1000
0800
0800
0400
0200
0000
ENDCHAR
STARTCHAR 0029
ENCODING 41
SWIDTH 540 0
DWIDTH 9 0
BBX 9 18 0 -3
BITMAP
2000
1000
0800
0800
0400
0400
0200
0200
0200
0200
0200
0400
0400
0800
0800
1000
2000
0000
ENDCHAR
STARTCHAR 002A
ENCODING 42
SWIDTH 540 0
DWIDTH 9 0
BBX 9 18 0 -3
BITMAP
0000
0000
0000
0000
0800
4900
6B00
1C00
0800
1C00
6B00
4900
0800
0000
0000
0000
0000
0000
ENDCHAR
STARTCHAR 002B
ENCODING 43
SWIDTH 540 0
DWIDTH 9 0
BBX 9 18 0 -3
BITMAP
0000
0000
0000
0800
0800
0800
0800
0800
7F00
0800
0800
0800
0800
0800
0000
0000
0000
0000
ENDCHAR
STARTCHAR 002C
ENCODING 44
SWIDTH 540 0
DWIDTH 9 0
BBX 9 18 0 -3
BITMAP
0000
0000
0000
0000
0000
0000
0000
0000
0000
0000
0000
0000
0000
1800
1800
0800
1000
0000
ENDCHAR
STARTCHAR 002D
ENCODING 45
SWIDTH 540 0
DWIDTH 9 0
BBX 9 18 0 -3
BITMAP
0000
0000
0000
0000
0000
0000
0000
0000
7F00
0000
0000
0000
0000
0000
0000
0000
0000
0000
ENDCHAR
STARTCHAR 002E
ENCODING 46
SWIDTH 540 0
DWIDTH 9 0
BBX 9 18 0 -3
BITMAP
0000
0000
0000
0000
0000
0000
0000
0000
0000
0000
0000
0000
0000
1800
1800
0000
0000
0000
ENDCHAR
STARTCHAR 002F
ENCODING 47
SWIDTH 540 0
DWIDTH 9 0
BBX 9 18 0 -3
BITMAP
0000
0100
0100
0200
0200
0400
0400
0800
0800
1000
1000
2000
2000
4000
4000
8000
8000
0000
ENDCHAR
STARTCHAR 0030
ENCODING 48
SWIDTH 540 0
DWIDTH 9 0
BBX 9 18 0 -3
BITMAP
0000
0000
1C00
2200
2200
4100
4100
4100
4100
4100
4100
4100
2200
2200
1C00
0000
0000
0000
ENDCHAR
STARTCHAR 0031
ENCODING 49
SWIDTH 540 0
DWIDTH 9 0
BBX 9 18 0 -3
BITMAP
0000
0000
0800
3800
0800
0800
0800
0800
0800
0800
0800
0800
0800
0800
3E00
0000
0000
0000
ENDCHAR
STARTCHAR 0032
ENCODING 50
SWIDTH 540 0
DWIDTH 9 0
BBX 9 18 0 -3
BITMAP
0000
0000
1C00
2200
4100
6100
0100
0200
0400
0800
1000
2000
2100
4100
7F00
0000
0000
0000
ENDCHAR
STARTCHAR 0033
ENCODING 51
SWIDTH 540 0
DWIDTH 9 0
BBX 9 18 0 -3
BITMAP
0000
0000
1C00
2200
4100
6100
0200
0C00
0200
0100
0100
6100
4100
2200
1C00
0000
0000
0000
ENDCHAR
STARTCHAR 0034
ENCODING 52
SWIDTH 540 0
DWIDTH 9 0
BBX 9 18 0 -3
BITMAP
0000
0000
0400
0C00
0C00
1400
1400
2400
2400
4400
4400
FF00
0400
0400
0E00
0000
0000
0000
ENDCHAR
STARTCHAR 0035
ENCODING 53
SWIDTH 540 0
DWIDTH 9 0
BBX 9 18 0 -3
BITMAP
0000
0000
7F00
4000
4000
4000
4000
5C00
6200
0100
0100
0100
6100
4200
3C00
0000
0000
0000
ENDCHAR
STARTCHAR 0036
ENCODING 54
SWIDTH 540 0
DWIDTH 9 0
BBX 9 18 0 -3
BITMAP
0000
0000
1C00
2200
4100
4000
4000
5C00
6200
4100
4100
4100
4100
2200
1C00
0000
0000
0000
ENDCHAR
STARTCHAR 0037
ENCODING 55
SWIDTH 540 0
DWIDTH 9 0
BBX 9 18 0 -3
BITMAP
0000
0000
7F00
4100
4100
0200
0200
0200
0400
0400
0400
0800
0800
0800
0800
0000
0000
0000
ENDCHAR
STARTCHAR 0038
ENCODING 56
SWIDTH 540 0
DWIDTH 9 0
BBX 9 18 0 -3
BITMAP
0000
0000
1C00
2200
4100
4100
4100
2200
1C00
2200
4100
4100
4100
2200
1C00
0000
0000
0000
ENDCHAR
STARTCHAR 0039
ENCODING 57
SWIDTH 540 0
DWIDTH 9 0
BBX 9 18 0 -3
BITMAP
0000
0000
1C00
2200
4100
4100
4100
4100
2300
1D00
0100
0100
4100
2200
1C00
0000
0000
0000
ENDCHAR
STARTCHAR 003A
ENCODING 58
SWIDTH 540 0
DWIDTH 9 0
BBX 9 18 0 -3
BITMAP
0000
0000
0000
0000
0000
1800
1800
0000
0000
0000
0000
0000
1800
1800
0000
0000
0000
0000
ENDCHAR
STARTCHAR 003B
ENCODING 59
SWIDTH 540 0
DWIDTH 9 0
BBX 9 18 0 -3
BITMAP
0000
0000
0000
0000
0000
1800
1800
0000
0000
0000
0000
0000
1800
1800
0800
1000
0000
0000
ENDCHAR
STARTCHAR 003C
ENCODING 60
SWIDTH 540 0
DWIDTH 9 0
BBX 9 18 0 -3
BITMAP
0000
0000
0000
0100
0200
0400
0800
1000
2000
4000
2000
1000
0800
0400
0200
0100
0000
0000
ENDCHAR
STARTCHAR 003D
ENCODING 61
SWIDTH 540 0
DWIDTH 9 0
BBX 9 18 0 -3
BITMAP
0000
0000
0000
0000
0000
0000
7F00
0000
0000
0000
7F00
0000
0000
0000
0000
0000
0000
0000
ENDCHAR
STARTCHAR 003E
ENCODING 62
SWIDTH 540 0
DWIDTH 9 0
BBX 9 18 0 -3
BITMAP
0000
0000
0000
4000
2000
1000
0800
0400
0200
0100
0200
0400
0800
1000
2000
4000
0000
0000
ENDCHAR
STARTCHAR 003F
ENCODING 63
SWIDTH 540 0
DWIDTH 9 0
BBX 9 18 0 -3
BITMAP
0000
0000
3C00
4200
8100
C100
0100
0200
0400
0800
0800
0800
0000
0000
1800
1800
0000
0000
ENDCHAR
STARTCHAR 0040
ENCODING 64
SWIDTH 540 0
DWIDTH 9 0
BBX 9 18 0 -3
BITMAP
0000
1C00
2200
4200
4500
9D00
A500
A500
A500
A500
A500
9B00
4000
4100
2200
1C00
0000
0000
ENDCHAR
STARTCHAR 0041
ENCODING 65
SWIDTH 540 0
DWIDTH 9 0
BBX 9 18 0 -3
BITMAP
0000
0000
0800
0800
1400
1400
1400
2200
2200
3E00
2200
4100
4100
4100
E380
0000
0000
0000
ENDCHAR
STARTCHAR 0042
ENCODING 66
SWIDTH 540 0
DWIDTH 9 0
BBX 9 18 0 -3
BITMAP
0000
0000
FC00
4200
4100
4100
4100
4200
7C00
4200
4100
4100
4100
4200
FC00
0000
0000
0000
ENDCHAR
STARTCHAR 0043
ENCODING 67
SWIDTH 540 0
DWIDTH 9 0
BBX 9 18 0 -3
BITMAP
0000
0000
1D00
2300
2100
4100
4000
4000
4000
4000
4000
4100
2100
2200
1C00
0000
0000
0000
ENDCHAR
STARTCHAR 0044
ENCODING 68
SWIDTH 540 0
DWIDTH 9 0
BBX 9 18 0 -3
BITMAP
0000
0000
F800
4400
4200
4200
4100
4100
4100
4100
4100
4200
4200
4400
F800
0000
0000
0000
ENDCHAR
STARTCHAR 0045
ENCODING 69
SWIDTH 540 0
DWIDTH 9 0
BBX 9 18 0 -3
BITMAP
0000
0000
FF00
4100
4100
4000
4000
4400
7C00
4400
4000
4000
4100
4100
FF00
0000
0000
0000
ENDCHAR
STARTCHAR 0046
ENCODING 70
SWIDTH 540 0
DWIDTH 9 0
BBX 9 18 0 -3
BITMAP
0000
0000
FF00
4100
4100
4000
4000
4400
7C00
4400
4000
4000
4000
4000
E000
0000
0000
0000
ENDCHAR
STARTCHAR 0047
ENCODING 71
SWIDTH 540 0
DWIDTH 9 0
BBX 9 18 0 -3
BITMAP
0000
0000
1D00
2300
2100
4100
4000
4000
4700
4100
4100
4100
2100
2300
1D00
0000
0000
0000
ENDCHAR
STARTCHAR 0048
ENCODING 72
SWIDTH 540 0
DWIDTH 9 0
BBX 9 18 0 -3
BITMAP
0000
0000
E700
4200
4200
4200
4200
4200
7E00
4200
4200
4200
4200
4200
E700
0000
0000
0000
ENDCHAR
STARTCHAR 0049
ENCODING 73
SWIDTH 540 0
DWIDTH 9 0
BBX 9 18 0 -3
BITMAP
0000
0000
3E00
0800
0800
0800
0800
0800
0800
0800
0800
0800
0800
0800
3E00
0000
0000
0000
ENDCHAR
STARTCHAR 004A
ENCODING 74
SWIDTH 540 0
DWIDTH 9 0
BBX 9 18 0 -3
BITMAP
0000
0000
0F00
0200
0200
0200
0200
0200
0200
0200
0200
0200
6200
4200
2400
1800
0000
0000
ENDCHAR
STARTCHAR 004B
ENCODING 75
SWIDTH 540 0
DWIDTH 9 0
BBX 9 18 0 -3
BITMAP
0000
0000
E700
4200
4400
4800
4800
5000
6800
4400
4400
4200
4200
4100
E380
0000
0000
0000
ENDCHAR
STARTCHAR 004C
ENCODING 76
SWIDTH 540 0
DWIDTH 9 0
BBX 9 18 0 -3
BITMAP
0000
0000
F000
4000
4000
4000
4000
4000
4000
4000
4000
4000
4100
4100
FF00
0000
0000
0000
ENDCHAR
STARTCHAR 004D
ENCODING 77
SWIDTH 540 0
DWIDTH 9 0
BBX 9 18 0 -3
BITMAP
0000
0000
C180
4100
6300
6300
6300
5500
5500
5500
5500
4900
4900
4900
EB80
0000
0000
0000
ENDCHAR
STARTCHAR 004E
ENCODING 78
SWIDTH 540 0
DWIDTH 9 0
BBX 9 18 0 -3
BITMAP
0000
0000
C380
6100
6100
5100
5100
4900
4900
4500
4500
4300
4300
4100
E100
0000
0000
0000
ENDCHAR
STARTCHAR 004F
ENCODING 79
SWIDTH 540 0
DWIDTH 9 0
BBX 9 18 0 -3
BITMAP
0000
0000
1C00
2200
4100
4100
4100
4100
4100
4100
4100
4100
4100
2200
1C00
0000
0000
0000
ENDCHAR
STARTCHAR 0050
ENCODING 80
SWIDTH 540 0
DWIDTH 9 0
BBX 9 18 0 -3
BITMAP
0000
0000
FC00
4200
4100
4100
4100
4200
7C00
4000
4000
4000
4000
4000
E000
0000
0000
0000
ENDCHAR
STARTCHAR 0051
ENCODING 81
SWIDTH 540 0
DWIDTH 9 0
BBX 9 18 0 -3
BITMAP
0000
0000
1C00
2200
4100
4100
4100
4100
4100
4100
4100
5900
6900
2600
1C80
0300
0000
0000
ENDCHAR
STARTCHAR 0052
ENCODING 82
SWIDTH 540 0
DWIDTH 9 0
BBX 9 18 0 -3
BITMAP
0000
0000
FC00
4200
4100
4100
4100
4200
7C00
4400
4400
4200
4200
4100
E100
0000
0000
0000
ENDCHAR
STARTCHAR 0053
ENCODING 83
SWIDTH 540 0
DWIDTH 9 0
BBX 9 18 0 -3
BITMAP
0000
0000
1D00
2300
4100
4100
4000
3000
0C00
0200
0100
4100
4100
6200
5C00
0000
0000
0000
ENDCHAR
STARTCHAR 0054
ENCODING 84
SWIDTH 540 0
DWIDTH 9 0
BBX 9 18 0 -3
BITMAP
0000
0000
7F00
4900
4900
0800
0800
0800
0800
0800
0800
0800
0800
0800
1C00
0000
0000
0000
ENDCHAR
STARTCHAR 0055
ENCODING 85
SWIDTH 540 0
DWIDTH 9 0
BBX 9 18 0 -3
BITMAP
0000
0000
E380
4100
4100
4100
4100
4100
4100
4100
4100
4100
4100
2200
1C00
0000
0000
0000
ENDCHAR
STARTCHAR 0056
ENCODING 86
SWIDTH 540 0
DWIDTH 9 0
BBX 9 18 0 -3
BITMAP
0000
0000
E380
4100
4100
4100
2200
2200
2200
1400
1400
1400
0800
0800
0800
0000
0000
0000
ENDCHAR
STARTCHAR 0057
ENCODING 87
SWIDTH 540 0
DWIDTH 9 0
BBX 9 18 0 -3
BITMAP
0000
0000
EB80
4900
4900
4900
4900
5500
5500
5500
5500
2200
2200
2200
2200
0000
0000
0000
ENDCHAR
STARTCHAR 0058
ENCODING 88
SWIDTH 540 0
DWIDTH 9 0
BBX 9 18 0 -3
BITMAP
0000
0000
E380
4100
2200
2200
1400
1400
0800
1400
1400
2200
2200
4100
E380
0000
0000
0000
ENDCHAR
STARTCHAR 0059
ENCODING 89
SWIDTH 540 0
DWIDTH 9 0
BBX 9 18 0 -3
BITMAP
0000
0000
E380
4100
2200
2200
1400
1400
0800
0800
0800
0800
0800
0800
1C00
0000
0000
0000
ENDCHAR
STARTCHAR 005A
ENCODING 90
SWIDTH 540 0
DWIDTH 9 0
BBX 9 18 0 -3
BITMAP
0000
0000
7F00
4200
4200
0400
0400
0800
0800
1000
1000
2000
2100
4100
7F00
0000
0000
0000
ENDCHAR
STARTCHAR 005B
ENCODING 91
SWIDTH 540 0
DWIDTH 9 0
BBX 9 18 0 -3
BITMAP
0000
1E00
1000
1000
1000
1000
1000
1000
1000
1000
1000
1000
1000
1000
1000
1000
1E00
0000
ENDCHAR
STARTCHAR 005C
ENCODING 92
SWIDTH 540 0
DWIDTH 9 0
BBX 9 18 0 -3
BITMAP
0000
0000
E380
4100
2200
2200
1400
7F00
1400
0800
7F00
0800
0800
0800
1C00
0000
0000
0000
ENDCHAR
STARTCHAR 005D
ENCODING 93
SWIDTH 540 0
DWIDTH 9 0
BBX 9 18 0 -3
BITMAP
0000
3C00
0400
0400
0400
0400
0400
0400
0400
0400
0400
0400
0400
0400
0400
0400
3C00
0000
ENDCHAR
STARTCHAR 005E
ENCODING 94
SWIDTH 540 0
DWIDTH 9 0
BBX 9 18 0 -3
BITMAP
0800
1400
2200
0000
0000
0000
0000
0000
0000
0000
0000
0000
0000
0000
0000
0000
0000
0000
ENDCHAR
STARTCHAR 005F
ENCODING 95
SWIDTH 540 0
DWIDTH 9 0
BBX 9 18 0 -3
BITMAP
0000
0000
0000
0000
0000
0000
0000
0000
0000
0000
0000
0000
0000
0000
0000
0000
FF80
0000
ENDCHAR
STARTCHAR 0060
ENCODING 96
SWIDTH 540 0
DWIDTH 9 0
BBX 9 18 0 -3
BITMAP
0000
1800
1800
1000
0800
0000
0000
0000
0000
0000
0000
0000
0000
0000
0000
0000
0000
0000
ENDCHAR
STARTCHAR 0061
ENCODING 97
SWIDTH 540 0
DWIDTH 9 0
BBX 9 18 0 -3
BITMAP
0000
0000
0000
0000
0000
0000
3C00
4200
0200
0E00
3200
4200
4200
4280
3D00
0000
0000
0000
ENDCHAR
STARTCHAR 0062
ENCODING 98
SWIDTH 540 0
DWIDTH 9 0
BBX 9 18 0 -3
BITMAP
0000
0000
C000
4000
4000
4000
5C00
6200
4100
4100
4100
4100
4100
6200
5C00
0000
0000
0000
ENDCHAR
STARTCHAR 0063
ENCODING 99
SWIDTH 540 0
DWIDTH 9 0
BBX 9 18 0 -3
BITMAP
0000
0000
0000
0000
0000
0000
1C00
2200
4100
4000
4000
4000
4100
2200
1C00
0000
0000
0000
ENDCHAR
STARTCHAR 0064
ENCODING 100
SWIDTH 540 0
DWIDTH 9 0
BBX 9 18 0 -3
BITMAP
0000
0000
0300
0100
0100
0100
1D00
2300
4100
4100
4100
4100
4100
2300
1D80
0000
0000
0000
ENDCHAR
STARTCHAR 0065
ENCODING 101
SWIDTH 540 0
DWIDTH 9 0
BBX 9 18 0 -3
BITMAP
0000
0000
0000
0000
0000
0000
1C00
2200
4100
7F00
4000
4000
4100
2200
1C00
0000
0000
0000
ENDCHAR
STARTCHAR 0066
ENCODING 102
SWIDTH 540 0
DWIDTH 9 0
BBX 9 18 0 -3
BITMAP
0000
0700
0900
1000
1000
1000
7E00
1000
1000
1000
1000
1000
1000
1000
3800
0000
0000
0000
ENDCHAR
STARTCHAR 0067
ENCODING 103
SWIDTH 540 0
DWIDTH 9 0
BBX 9 18 0 -3
BITMAP
0000
0000
0000
0000
0000
0100
3E80
4200
4200
4200
4200
3C00
2000
5E00
8100
8100
8100
7E00
ENDCHAR
STARTCHAR 0068
ENCODING 104
SWIDTH 540 0
DWIDTH 9 0
BBX 9 18 0 -3
BITMAP
0000
0000
6000
2000
2000
2000
2E00
3100
2100
2100
2100
2100
2100
2100
7380
0000
0000
0000
ENDCHAR
STARTCHAR 0069
ENCODING 105
SWIDTH 540 0
DWIDTH 9 0
BBX 9 18 0 -3
BITMAP
0000
0000
1800
1800
0000
0000
1800
0800
0800
0800
0800
0800
0800
0800
3E00
0000
0000
0000
ENDCHAR
STARTCHAR 006A
ENCODING 106
SWIDTH 540 0
DWIDTH 9 0
BBX 9 18 0 -3
BITMAP
0000
0000
0600
0600
0000
0000
0600
0200
0200
0200
0200
0200
0200
0200
2200
2200
1C00
0000
ENDCHAR
STARTCHAR 006B
ENCODING 107
SWIDTH 540 0
DWIDTH 9 0
BBX 9 18 0 -3
BITMAP
0000
0000
C000
4000
4000
4700
4200
4400
4800
5800
6400
4400
4200
4200
E700
0000
0000
0000
ENDCHAR
STARTCHAR 006C
ENCODING 108
SWIDTH 540 0
DWIDTH 9 0
BBX 9 18 0 -3
BITMAP
0000
0000
1800
0800
0800
0800
0800
0800
0800
0800
0800
0800
0800
0800
3E00
0000
0000
0000
ENDCHAR
STARTCHAR 006D
ENCODING 109
SWIDTH 540 0
DWIDTH 9 0
BBX 9 18 0 -3
BITMAP
0000
0000
0000
0000
0000
0000
D600
6900
4900
4900
4900
4900
4900
4900
EB80
0000
0000
0000
ENDCHAR
STARTCHAR 006E
ENCODING 110
SWIDTH 540 0
DWIDTH 9 0
BBX 9 18 0 -3
BITMAP
0000
0000
0000
0000
0000
0000
6E00
3100
2100
2100
2100
2100
2100
2100
7380
0000
0000
0000
ENDCHAR
STARTCHAR 006F
ENCODING 111
SWIDTH 540 0
DWIDTH 9 0
BBX 9 18 0 -3
BITMAP
0000
0000
0000
0000
0000
0000
1C00
2200
4100
4100
4100
4100
4100
2200
1C00
0000
0000
0000
ENDCHAR
STARTCHAR 0070
ENCODING 112
SWIDTH 540 0
DWIDTH 9 0
BBX 9 18 0 -3
BITMAP
0000
0000
0000
0000
0000
0000
DC00
6200
4100
4100
4100
4100
4100
6200
5C00
4000
4000
E000
ENDCHAR
STARTCHAR 0071
ENCODING 113
SWIDTH 540 0
DWIDTH 9 0
BBX 9 18 0 -3
BITMAP
0000
0000
0000
0000
0000
0000
1D80
2300
4100
4100
4100
4100
4100
2300
1D00
0100
0100
0380
ENDCHAR
STARTCHAR 0072
ENCODING 114
SWIDTH 540 0
DWIDTH 9 0
BBX 9 18 0 -3
BITMAP
0000
0000
0000
0000
0000
0000
6E00
3100
2100
2000
2000
2000
2000
2000
7000
0000
0000
0000
ENDCHAR
STARTCHAR 0073
ENCODING 115
SWIDTH 540 0
DWIDTH 9 0
BBX 9 18 0 -3
BITMAP
0000
0000
0000
0000
0000
0000
1D00
2300
2100
3000
0E00
0100
4100
6100
5E00
0000
0000
0000
ENDCHAR
STARTCHAR 0074
ENCODING 116
SWIDTH 540 0
DWIDTH 9 0
BBX 9 18 0 -3
BITMAP
0000
0000
0000
1000
1000
1000
7E00
1000
1000
1000
1000
1000
1100
1100
0E00
0000
0000
0000
ENDCHAR
STARTCHAR 0075
ENCODING 117
SWIDTH 540 0
DWIDTH 9 0
BBX 9 18 0 -3
BITMAP
0000
0000
0000
0000
0000
0000
C600
4200
4200
4200
4200
4200
4200
4600
3B00
0000
0000
0000
ENDCHAR
STARTCHAR 0076
ENCODING 118
SWIDTH 540 0
DWIDTH 9 0
BBX 9 18 0 -3
BITMAP
0000
0000
0000
0000
0000
0000
E380
4100
2200
2200
2200
1400
1400
0800
0800
0000
0000
0000
ENDCHAR
STARTCHAR 0077
ENCODING 119
SWIDTH 540 0
DWIDTH 9 0
BBX 9 18 0 -3
BITMAP
0000
0000
0000
0000
0000
0000
E380
4900
4900
4900
5500
5500
5500
2200
2200
0000
0000
0000
ENDCHAR
STARTCHAR 0078
ENCODING 120
SWIDTH 540 0
DWIDTH 9 0
BBX 9 18 0 -3
BITMAP
0000
0000
0000
0000
0000
0000
7700
2200
1400
1400
0800
1400
1400
2200
7700
0000
0000
0000
ENDCHAR
STARTCHAR 0079
ENCODING 121
SWIDTH 540 0
DWIDTH 9 0
BBX 9 18 0 -3
BITMAP
0000
0000
0000
0000
0000
0000
E380
4100
2100
2200
1200
1400
0C00
0800
0800
5000
6000
0000
ENDCHAR
STARTCHAR 007A
ENCODING 122
SWIDTH 540 0
DWIDTH 9 0
BBX 9 18 0 -3
BITMAP
0000
0000
0000
0000
0000
0000
7F00
4200
0400
0400
0800
1000
1100
2100
7F00
0000
0000
0000
ENDCHAR
STARTCHAR 007B
ENCODING 123
SWIDTH 540 0
DWIDTH 9 0
BBX 9 18 0 -3
BITMAP
0200
0400
0800
0800
0800
0800
0800
0800
3000
0800
0800
0800
0800
0800
0800
0400
0200
0000
ENDCHAR
STARTCHAR 007C
ENCODING 124
SWIDTH 540 0
DWIDTH 9 0
BBX 9 18 0 -3
BITMAP
0800
0800
0800
0800
0800
0800
0800
0800
0800
0800
0800
0800
0800
0800
0800
0800
0800
0800
ENDCHAR
STARTCHAR 007D
ENCODING 125
SWIDTH 540 0
DWIDTH 9 0
BBX 9 18 0 -3
BITMAP
2000
1000
0800
0800
0800
0800
0800
0800
0600
0800
0800
0800
0800
0800
0800
1000
2000
0000
ENDCHAR
STARTCHAR 007E
ENCODING 126
SWIDTH 540 0
DWIDTH 9 0
BBX 9 18 0 -3
BITMAP
0000
3000
4900
0600
0000
0000
0000
0000
0000
0000
0000
0000
0000
0000
0000
0000
0000
0000
ENDCHAR
STARTCHAR 00A0
ENCODING 160
SWIDTH 540 0
DWIDTH 9 0
BBX 9 18 0 -3
BITMAP
0000
0000
0000
0000
0000
0000
0000
0000
0000
0000
0000
0000
0000
0000
0000
0000
0000
0000
ENDCHAR
STARTCHAR 00A1
ENCODING 161
SWIDTH 540 0
DWIDTH 9 0
BBX 9 18 0 -3
BITMAP
0000
0000
1800
1800
0000
0000
1000
1000
1000
1000
1000
1800
1800
1800
1800
1800
0000
0000
ENDCHAR
STARTCHAR 00A2
ENCODING 162
SWIDTH 540 0
DWIDTH 9 0
BBX 9 18 0 -3
BITMAP
0000
0000
0000
0400
0400
0400
1C00
2A00
4B00
4800
4800
4800
4900
2A00
1C00
1000
1000
1000
ENDCHAR
STARTCHAR 00A3
ENCODING 163
SWIDTH 540 0
DWIDTH 9 0
BBX 9 18 0 -3
BITMAP
0000
0E00
1100
1300
1000
1000
7F00
1000
1000
1000
1000
7000
9880
9480
6300
0000
0000
0000
ENDCHAR
STARTCHAR 00A4
ENCODING 164
SWIDTH 540 0
DWIDTH 9 0
BBX 9 18 0 -3
BITMAP
0000
0000
0000
0000
8080
4900
3600
2200
4100
4100
2200
3600
4900
8080
0000
0000
0000
0000
ENDCHAR
STARTCHAR 00A5
ENCODING 165
SWIDTH 540 0
DWIDTH 9 0
BBX 9 18 0 -3
BITMAP
0000
8000
8000
4000
4000
2000
2000
1000
1000
0800
0800
0400
0400
0200
0200
0100
0100
0000
ENDCHAR
STARTCHAR 00A6
ENCODING 166
SWIDTH 540 0
DWIDTH 9 0
BBX 9 18 0 -3
BITMAP
0000
0800
0800
0800
0800
0800
0800
0800
0000
0000
0800
0800
0800
0800
0800
0800
0800
0000
ENDCHAR
STARTCHAR 00A7
ENCODING 167
SWIDTH 1080 0
DWIDTH 18 0
BBX 7 16 5 -2
BITMAP
38
44
82
86
40
30
4C
82
82
64
18
04
C2
82
44
38
ENDCHAR
STARTCHAR 00A8
ENCODING 168
SWIDTH 1080 0
DWIDTH 18 0
BBX 6 2 6 12
BITMAP
CC
CC
ENDCHAR
STARTCHAR 00A9
ENCODING 169
SWIDTH 540 0
DWIDTH 9 0
BBX 9 12 0 1
BITMAP
1C00
2200
4100
4900
9480
9080
9080
9480
4900
4100
2200
1C00
ENDCHAR
STARTCHAR 00AA
ENCODING 170
SWIDTH 540 0
DWIDTH 9 0
BBX 7 9 1 5
BITMAP
78
84
1C
64
84
8C
74
00
FE
ENDCHAR
STARTCHAR 00AB
ENCODING 171
SWIDTH 540 0
DWIDTH 9 0
BBX 8 9 0 2
BITMAP
09
12
24
48
90
48
24
12
09
ENDCHAR
STARTCHAR 00AC
ENCODING 172
SWIDTH 540 0
DWIDTH 9 0
BBX 7 5 1 4
BITMAP
FE
02
02
02
02
ENDCHAR
STARTCHAR 00AD
ENCODING 173
SWIDTH 540 0
DWIDTH 9 0
BBX 6 1 1 6
BITMAP
FC
ENDCHAR
STARTCHAR 00AE
ENCODING 174
SWIDTH 540 0
DWIDTH 9 0
BBX 9 13 0 0
BITMAP
1C00
2200
4100
5900
9480
9480
9880
9480
9480
5500
4100
2200
1C00
ENDCHAR
STARTCHAR 00AF
ENCODING 175
SWIDTH 540 0
DWIDTH 9 0
BBX 6 1 1 13
BITMAP
FC
ENDCHAR
STARTCHAR 00B0
ENCODING 176
SWIDTH 1080 0
DWIDTH 18 0
BBX 4 4 1 10
BITMAP
60
90
90
60
ENDCHAR
STARTCHAR 00B1
ENCODING 177
SWIDTH 1080 0
DWIDTH 18 0
BBX 13 14 2 0
BITMAP
0200
0200
0200
0200
0200
FFF8
0200
0200
0200
0200
0200
0000
0000
FFF8
ENDCHAR
STARTCHAR 00B2
ENCODING 178
SWIDTH 540 0
DWIDTH 9 0
BBX 5 7 2 7
BITMAP
70
88
08
30
40
80
F8
ENDCHAR
STARTCHAR 00B3
ENCODING 179
SWIDTH 540 0
DWIDTH 9 0
BBX 5 7 2 7
BITMAP
70
88
08
70
08
88
70
ENDCHAR
STARTCHAR 00B4
ENCODING 180
SWIDTH 1080 0
DWIDTH 18 0
BBX 3 3 7 11
BITMAP
60
40
80
ENDCHAR
STARTCHAR 00B5
ENCODING 181
SWIDTH 540 0
DWIDTH 9 0
BBX 8 12 1 -3
BITMAP
44
44
44
44
44
45
45
4A
70
80
80
80
ENDCHAR
STARTCHAR 00B6
ENCODING 182
SWIDTH 1080 0
DWIDTH 18 0
BBX 9 15 4 -1
BITMAP
3F80
7880
F880
F880
F880
7880
3880
0880
0880
0880
0880
0880
0880
0880
0880
ENDCHAR
STARTCHAR 00B7
ENCODING 183
SWIDTH 540 0
DWIDTH 9 0
BBX 9 18 0 -3
BITMAP
0000
0000
0000
0000
0000
0000
0000
1800
1800
1800
0000
0000
0000
0000
0000
0000
0000
0000
ENDCHAR
STARTCHAR 00B8
ENCODING 184
SWIDTH 540 0
DWIDTH 9 0
BBX 9 18 0 -3
BITMAP
0000
0000
0000
0000
0000
0000
0000
0000
0000
0000
0000
0000
0000
0000
1000
0C00
0200
3C00
ENDCHAR
STARTCHAR 00B9
ENCODING 185
SWIDTH 540 0
DWIDTH 9 0
BBX 9 18 0 -3
BITMAP
0000
0800
1800
2800
0800
0800
0800
0800
0000
0000
0000
0000
0000
0000
0000
0000
0000
0000
ENDCHAR
STARTCHAR 00BA
ENCODING 186
SWIDTH 540 0
DWIDTH 9 0
BBX 9 18 0 -3
BITMAP
1800
2400
4200
4200
4200
4200
2400
1800
0000
7F00
0000
0000
0000
0000
0000
0000
0000
0000
ENDCHAR
STARTCHAR 00BB
ENCODING 187
SWIDTH 540 0
DWIDTH 9 0
BBX 9 18 0 -3
BITMAP
0000
0000
0000
0000
4800
2400
1200
0900
0480
0900
1200
2400
4800
0000
0000
0000
0000
0000
ENDCHAR
STARTCHAR 00BC
ENCODING 188
SWIDTH 540 0
DWIDTH 9 0
BBX 9 18 0 -3
BITMAP
0000
2000
6000
A100
2200
2400
0900
1300
2500
4F80
0100
0100
0000
0000
0000
0000
0000
0000
ENDCHAR
STARTCHAR 00BD
ENCODING 189
SWIDTH 540 0
DWIDTH 9 0
BBX 9 18 0 -3
BITMAP
0000
2000
6000
A100
2200
2400
0B00
1480
2100
4200
0400
0780
0000
0000
0000
0000
0000
0000
ENDCHAR
STARTCHAR 00BE
ENCODING 190
SWIDTH 540 0
DWIDTH 9 0
BBX 9 18 0 -3
BITMAP
0000
E000
1000
6100
1200
9400
6900
1300
2500
4F80
0100
0100
0000
0000
0000
0000
0000
0000
ENDCHAR
STARTCHAR 00BF
ENCODING 191
SWIDTH 540 0
DWIDTH 9 0
BBX 9 18 0 -3
BITMAP
0000
0000
1800
1800
0000
0000
1000
1000
1000
2000
4000
8300
8100
8100
4200
3C00
0000
0000
ENDCHAR
STARTCHAR 00C0
ENCODING 192
SWIDTH 540 0
DWIDTH 9 0
BBX 9 18 0 -3
BITMAP
1800
0400
0200
0800
0800
1400
1400
1400
2200
2200
3E00
4100
4100
4100
E380
0000
0000
0000
ENDCHAR
STARTCHAR 00C1
ENCODING 193
SWIDTH 540 0
DWIDTH 9 0
BBX 9 18 0 -3
BITMAP
0C00
1000
2000
0800
0800
1400
1400
1400
2200
2200
3E00
4100
4100
4100
E380
0000
0000
0000
ENDCHAR
STARTCHAR 00C2
ENCODING 194
SWIDTH 540 0
DWIDTH 9 0
BBX 9 18 0 -3
BITMAP
0800
1400
2200
0800
0800
1400
1400
1400
2200
2200
3E00
4100
4100
4100
E380
0000
0000
0000
ENDCHAR
STARTCHAR 00C3
ENCODING 195
SWIDTH 540 0
DWIDTH 9 0
BBX 9 18 0 -3
BITMAP
3200
4C00
0000
0800
0800
1400
1400
1400
2200
2200
3E00
4100
4100
4100
E380
0000
0000
0000
ENDCHAR
STARTCHAR 00C4
ENCODING 196
SWIDTH 540 0
DWIDTH 9 0
BBX 9 18 0 -3
BITMAP
3600
3600
0000
0800
0800
1400
1400
1400
2200
2200
3E00
4100
4100
4100
E380
0000
0000
0000
ENDCHAR
STARTCHAR 00C5
ENCODING 197
SWIDTH 540 0
DWIDTH 9 0
BBX 9 18 0 -3
BITMAP
0800
1400
0800
0800
0800
1400
1400
1400
2200
2200
3E00
4100
4100
4100
E380
0000
0000
0000
ENDCHAR
STARTCHAR 00C6
ENCODING 198
SWIDTH 540 0
DWIDTH 9 0
BBX 9 18 0 -3
BITMAP
0000
0780
0480
0C80
0C00
0C00
1500
1700
1500
2400
3C00
2400
4480
4480
E780
0000
0000
0000
ENDCHAR
STARTCHAR 00C7
ENCODING 199
SWIDTH 540 0
DWIDTH 9 0
BBX 9 18 0 -3
BITMAP
0000
0000
1D00
2300
2100
4100
4000
4000
4000
4000
4000
2100
2200
1C00
0800
0600
0100
1E00
ENDCHAR
STARTCHAR 00C8
ENCODING 200
SWIDTH 540 0
DWIDTH 9 0
BBX 9 18 0 -3
BITMAP
1800
0400
0000
7F00
4100
4100
4000
4400
7C00
4400
4000
4000
4100
4100
7F00
0000
0000
0000
ENDCHAR
STARTCHAR 00C9
ENCODING 201
SWIDTH 540 0
DWIDTH 9 0
BBX 9 18 0 -3
BITMAP
0C00
1000
0000
7F00
4100
4100
4000
4400
7C00
4400
4000
4000
4100
4100
7F00
0000
0000
0000
ENDCHAR
STARTCHAR 00CA
ENCODING 202
SWIDTH 540 0
DWIDTH 9 0
BBX 9 18 0 -3
BITMAP
0800
3600
0000
7F00
4100
4100
4000
4400
7C00
4400
4000
4000
4100
4100
7F00
0000
0000
0000
ENDCHAR
STARTCHAR 00CB
ENCODING 203
SWIDTH 540 0
DWIDTH 9 0
BBX 9 18 0 -3
BITMAP
3600
3600
0000
7F00
4100
4100
4000
4400
7C00
4400
4000
4000
4100
4100
7F00
0000
0000
0000
ENDCHAR
STARTCHAR 00CC
ENCODING 204
SWIDTH 540 0
DWIDTH 9 0
BBX 9 18 0 -3
BITMAP
1800
0400
0200
3E00
0800
0800
0800
0800
0800
0800
0800
0800
0800
0800
3E00
0000
0000
0000
ENDCHAR
STARTCHAR 00CD
ENCODING 205
SWIDTH 540 0
DWIDTH 9 0
BBX 9 18 0 -3
BITMAP
0C00
1000
2000
3E00
0800
0800
0800
0800
0800
0800
0800
0800
0800
0800
3E00
0000
0000
0000
ENDCHAR
STARTCHAR 00CE
ENCODING 206
SWIDTH 540 0
DWIDTH 9 0
BBX 9 18 0 -3
BITMAP
0800
1400
0000
3E00
0800
0800
0800
0800
0800
0800
0800
0800
0800
0800
3E00
0000
0000
0000
ENDCHAR
STARTCHAR 00CF
ENCODING 207
SWIDTH 540 0
DWIDTH 9 0
BBX 9 18 0 -3
BITMAP
3600
3600
0000
3E00
0800
0800
0800
0800
0800
0800
0800
0800
0800
0800
3E00
0000
0000
0000
ENDCHAR
STARTCHAR 00D0
ENCODING 208
SWIDTH 540 0
DWIDTH 9 0
BBX 9 18 0 -3
BITMAP
0000
0000
F800
4400
4200
4200
4100
4100
F100
4100
4100
4200
4200
4400
F800
0000
0000
0000
ENDCHAR
STARTCHAR 00D1
ENCODING 209
SWIDTH 540 0
DWIDTH 9 0
BBX 9 18 0 -3
BITMAP
1900
2600
C380
6100
6100
5100
5100
4900
4900
4900
4500
4500
4300
4300
E100
0000
0000
0000
ENDCHAR
STARTCHAR 00D2
ENCODING 210
SWIDTH 540 0
DWIDTH 9 0
BBX 9 18 0 -3
BITMAP
1800
0400
0200
1C00
2200
4100
4100
4100
4100
4100
4100
4100
4100
2200
1C00
0000
0000
0000
ENDCHAR
STARTCHAR 00D3
ENCODING 211
SWIDTH 540 0
DWIDTH 9 0
BBX 9 18 0 -3
BITMAP
1800
2000
4000
1C00
2200
4100
4100
4100
4100
4100
4100
4100
4100
2200
1C00
0000
0000
0000
ENDCHAR
STARTCHAR 00D4
ENCODING 212
SWIDTH 540 0
DWIDTH 9 0
BBX 9 18 0 -3
BITMAP
1800
6600
0000
1C00
2200
4100
4100
4100
4100
4100
4100
4100
4100
2200
1C00
0000
0000
0000
ENDCHAR
STARTCHAR 00D5
ENCODING 213
SWIDTH 540 0
DWIDTH 9 0
BBX 9 18 0 -3
BITMAP
3200
4C00
0000
1C00
2200
4100
4100
4100
4100
4100
4100
4100
4100
2200
1C00
0000
0000
0000
ENDCHAR
STARTCHAR 00D6
ENCODING 214
SWIDTH 540 0
DWIDTH 9 0
BBX 9 18 0 -3
BITMAP
6600
6600
0000
1C00
2200
4100
4100
4100
4100
4100
4100
4100
4100
2200
1C00
0000
0000
0000
ENDCHAR
STARTCHAR 00D7
ENCODING 215
SWIDTH 1080 0
DWIDTH 18 0
BBX 11 11 3 1
BITMAP
8020
4040
2080
1100
0A00
0400
0A00
1100
2080
4040
8020
ENDCHAR
STARTCHAR 00D8
ENCODING 216
SWIDTH 540 0
DWIDTH 9 0
BBX 9 18 0 -3
BITMAP
0200
0200
1E00
2200
2600
4500
4500
4900
4900
4900
5100
5100
3200
2200
3C00
2000
2000
0000
ENDCHAR
STARTCHAR 00D9
ENCODING 217
SWIDTH 540 0
DWIDTH 9 0
BBX 9 18 0 -3
BITMAP
1800
0400
0000
E380
4100
4100
4100
4100
4100
4100
4100
4100
4100
2200
1C00
0000
0000
0000
ENDCHAR
STARTCHAR 00DA
ENCODING 218
SWIDTH 540 0
DWIDTH 9 0
BBX 9 18 0 -3
BITMAP
0C00
1000
0000
E380
4100
4100
4100
4100
4100
4100
4100
4100
4100
2200
1C00
0000
0000
0000
ENDCHAR
STARTCHAR 00DB
ENCODING 219
SWIDTH 540 0
DWIDTH 9 0
BBX 9 18 0 -3
BITMAP
0800
3600
0000
E380
4100
4100
4100
4100
4100
4100
4100
4100
4100
2200
1C00
0000
0000
0000
ENDCHAR
STARTCHAR 00DC
ENCODING 220
SWIDTH 540 0
DWIDTH 9 0
BBX 9 18 0 -3
BITMAP
3600
3600
0000
E380
4100
4100
4100
4100
4100
4100
4100
4100
4100
2200
1C00
0000
0000
0000
ENDCHAR
STARTCHAR 00DD
ENCODING 221
SWIDTH 540 0
DWIDTH 9 0
BBX 9 18 0 -3
BITMAP
0C00
1000
0000
E380
4100
4100
2200
2200
1400
1400
0800
0800
0800
0800
1C00
0000
0000
0000
ENDCHAR
STARTCHAR 00DE
ENCODING 222
SWIDTH 540 0
DWIDTH 9 0
BBX 9 18 0 -3
BITMAP
0000
E000
4000
4000
4000
7C00
4200
4100
4100
4200
7C00
4000
4000
4000
E000
0000
0000
0000
ENDCHAR
STARTCHAR 00DF
ENCODING 223
SWIDTH 540 0
DWIDTH 9 0
BBX 9 18 0 -3
BITMAP
0000
0000
1C00
2200
4100
4100
4200
4C00
4200
4100
4100
4100
4100
5200
CC00
0000
0000
0000
ENDCHAR
STARTCHAR 00E0
ENCODING 224
SWIDTH 540 0
DWIDTH 9 0
BBX 9 18 0 -3
BITMAP
0000
0000
1800
0400
0200
0000
1E00
2100
4100
0F00
3100
4100
4100
4300
3D80
0000
0000
0000
ENDCHAR
STARTCHAR 00E1
ENCODING 225
SWIDTH 540 0
DWIDTH 9 0
BBX 9 18 0 -3
BITMAP
0000
0000
0600
0800
1000
0000
1E00
2100
4100
0F00
3100
4100
4100
4300
3D80
0000
0000
0000
ENDCHAR
STARTCHAR 00E2
ENCODING 226
SWIDTH 540 0
DWIDTH 9 0
BBX 9 18 0 -3
BITMAP
0000
0800
1400
2200
0000
0000
1E00
2100
4100
0F00
3100
4100
4100
4300
3D80
0000
0000
0000
ENDCHAR
STARTCHAR 00E3
ENCODING 227
SWIDTH 540 0
DWIDTH 9 0
BBX 9 18 0 -3
BITMAP
0000
0000
3200
4C00
0000
0000
1E00
2100
4100
0F00
3100
4100
4100
4300
3D80
0000
0000
0000
ENDCHAR
STARTCHAR 00E4
ENCODING 228
SWIDTH 540 0
DWIDTH 9 0
BBX 9 18 0 -3
BITMAP
0000
0000
3600
3600
0000
0000
1E00
2100
4100
0F00
3100
4100
4100
4300
3D80
0000
0000
0000
ENDCHAR
STARTCHAR 00E5
ENCODING 229
SWIDTH 540 0
DWIDTH 9 0
BBX 9 18 0 -3
BITMAP
0000
1800
2400
2400
1800
0000
1E00
2100
4100
0F00
3100
4100
4100
4300
3D80
0000
0000
0000
ENDCHAR
STARTCHAR 00E6
ENCODING 230
SWIDTH 540 0
DWIDTH 9 0
BBX 9 18 0 -3
BITMAP
0000
0000
0000
0000
0000
0000
7700
8880
8880
3F80
4800
8800
8800
8C80
7300
0000
0000
0000
ENDCHAR
STARTCHAR 00E7
ENCODING 231
SWIDTH 540 0
DWIDTH 9 0
BBX 9 18 0 -3
BITMAP
0000
0000
0000
0000
0000
0000
1C00
2200
4300
4000
4000
4100
2200
1C00
0800
0600
0100
1E00
ENDCHAR
STARTCHAR 00E8
ENCODING 232
SWIDTH 540 0
DWIDTH 9 0
BBX 9 18 0 -3
BITMAP
0000
1800
0400
0200
0000
0000
1C00
2200
4100
7F00
4000
4000
4100
2200
1C00
0000
0000
0000
ENDCHAR
STARTCHAR 00E9
ENCODING 233
SWIDTH 540 0
DWIDTH 9 0
BBX 9 18 0 -3
BITMAP
0000
0600
0800
1000
0000
0000
1C00
2200
4100
7F00
4000
4000
4100
2200
1C00
0000
0000
0000
ENDCHAR
STARTCHAR 00EA
ENCODING 234
SWIDTH 540 0
DWIDTH 9 0
BBX 9 18 0 -3
BITMAP
0000
0800
1400
2200
0000
0000
1C00
2200
4100
7F00
4000
4000
4100
2200
1C00
0000
0000
0000
ENDCHAR
STARTCHAR 00EB
ENCODING 235
SWIDTH 540 0
DWIDTH 9 0
BBX 9 18 0 -3
BITMAP
0000
0000
3600
3600
0000
0000
1C00
2200
4100
7F00
4000
4000
4100
2200
1C00
0000
0000
0000
ENDCHAR
STARTCHAR 00EC
ENCODING 236
SWIDTH 540 0
DWIDTH 9 0
BBX 9 18 0 -3
BITMAP
0000
1800
0400
0200
0000
0000
3800
0800
0800
0800
0800
0800
0800
0800
3E00
0000
0000
0000
ENDCHAR
STARTCHAR 00ED
ENCODING 237
SWIDTH 540 0
DWIDTH 9 0
BBX 9 18 0 -3
BITMAP
0000
0600
0800
1000
0000
0000
3800
0800
0800
0800
0800
0800
0800
0800
3E00
0000
0000
0000
ENDCHAR
STARTCHAR 00EE
ENCODING 238
SWIDTH 540 0
DWIDTH 9 0
BBX 9 18 0 -3
BITMAP
0000
0800
1400
2200
0000
0000
3800
0800
0800
0800
0800
0800
0800
0800
3E00
0000
0000
0000
ENDCHAR
STARTCHAR 00EF
ENCODING 239
SWIDTH 540 0
DWIDTH 9 0
BBX 9 18 0 -3
BITMAP
0000
0000
3600
3600
0000
0000
3800
0800
0800
0800
0800
0800
0800
0800
3E00
0000
0000
0000
ENDCHAR
STARTCHAR 00F0
ENCODING 240
SWIDTH 540 0
DWIDTH 9 0
BBX 9 18 0 -3
BITMAP
0000
6200
1400
0800
1400
6200
0200
1D00
2300
4100
4100
4100
4100
2200
1C00
0000
0000
0000
ENDCHAR
STARTCHAR 00F1
ENCODING 241
SWIDTH 540 0
DWIDTH 9 0
BBX 9 18 0 -3
BITMAP
0000
0000
3200
4C00
0000
0000
6E00
3100
2100
2100
2100
2100
2100
2100
7380
0000
0000
0000
ENDCHAR
STARTCHAR 00F2
ENCODING 242
SWIDTH 540 0
DWIDTH 9 0
BBX 9 18 0 -3
BITMAP
0000
0000
1800
0400
0200
0000
1C00
2200
4100
4100
4100
4100
4100
2200
1C00
0000
0000
0000
ENDCHAR
STARTCHAR 00F3
ENCODING 243
SWIDTH 540 0
DWIDTH 9 0
BBX 9 18 0 -3
BITMAP
0000
0000
0600
0800
1000
0000
1C00
2200
4100
4100
4100
4100
4100
2200
1C00
0000
0000
0000
ENDCHAR
STARTCHAR 00F4
ENCODING 244
SWIDTH 540 0
DWIDTH 9 0
BBX 9 18 0 -3
BITMAP
0000
0000
0800
1400
2200
0000
1C00
2200
4100
4100
4100
4100
4100
2200
1C00
0000
0000
0000
ENDCHAR
STARTCHAR 00F5
ENCODING 245
SWIDTH 540 0
DWIDTH 9 0
BBX 9 18 0 -3
BITMAP
0000
0000
3200
4C00
0000
0000
1C00
2200
4100
4100
4100
4100
4100
2200
1C00
0000
0000
0000
ENDCHAR
STARTCHAR 00F6
ENCODING 246
SWIDTH 540 0
DWIDTH 9 0
BBX 9 18 0 -3
BITMAP
0000
0000
3600
3600
0000
0000
1C00
2200
4100
4100
4100
4100
4100
2200
1C00
0000
0000
0000
ENDCHAR
STARTCHAR 00F7
ENCODING 247
SWIDTH 1080 0
DWIDTH 18 0
BBX 12 11 3 1
BITMAP
0600
0600
0000
0000
0000
FFF0
0000
0000
0000
0600
0600
ENDCHAR
STARTCHAR 00F8
ENCODING 248
SWIDTH 540 0
DWIDTH 9 0
BBX 7 13 1 -2
BITMAP
04
04
38
4C
8A
92
92
92
A2
64
38
40
40
ENDCHAR
STARTCHAR 00F9
ENCODING 249
SWIDTH 540 0
DWIDTH 9 0
BBX 8 14 1 0
BITMAP
30
08
04
00
00
C6
42
42
42
42
42
42
46
3B
ENDCHAR
STARTCHAR 00FA
ENCODING 250
SWIDTH 540 0
DWIDTH 9 0
BBX 8 14 1 0
BITMAP
0C
10
20
00
00
C6
42
42
42
42
42
42
46
3B
ENDCHAR
STARTCHAR 00FB
ENCODING 251
SWIDTH 540 0
DWIDTH 9 0
BBX 8 14 1 0
BITMAP
10
28
44
00
00
C6
42
42
42
42
42
42
46
3B
ENDCHAR
STARTCHAR 00FC
ENCODING 252
SWIDTH 540 0
DWIDTH 9 0
BBX 8 13 1 0
BITMAP
66
66
00
00
C6
42
42
42
42
42
42
46
3B
ENDCHAR
STARTCHAR 00FD
ENCODING 253
SWIDTH 540 0
DWIDTH 9 0
BBX 9 17 0 -3
BITMAP
0C00
1000
2000
0000
0000
E380
4100
4100
2200
2200
2200
1400
1400
0800
C800
9000
6000
ENDCHAR
STARTCHAR 00FE
ENCODING 254
SWIDTH 540 0
DWIDTH 9 0
BBX 7 17 1 -3
BITMAP
C0
40
40
40
40
58
64
42
42
42
42
64
58
40
40
40
E0
ENDCHAR
STARTCHAR 00FF
ENCODING 255
SWIDTH 540 0
DWIDTH 9 0
BBX 9 16 0 -3
BITMAP
3600
3600
0000
0000
E380
4100
4100
2200
2200
2200
1400
1400
0800
C800
9000
6000
ENDCHAR
STARTCHAR 0391
ENCODING 913
SWIDTH 1080 0
DWIDTH 18 0
BBX 17 18 0 -3
BITMAP
000000
008000
008000
014000
014000
022000
022000
041000
041000
07F000
080800
080800
100400
100400
7C1F00
000000
000000
000000
ENDCHAR
STARTCHAR 0392
ENCODING 914
SWIDTH 1080 0
DWIDTH 18 0
BBX 17 18 0 -3
BITMAP
000000
3FE000
081000
080800
080800
080800
081000
0FF000
080800
080400
080400
080400
080400
080800
3FF000
000000
000000
000000
ENDCHAR
STARTCHAR 0393
ENCODING 915
SWIDTH 1080 0
DWIDTH 18 0
BBX 17 18 0 -3
BITMAP
000000
1FFC00
040400
040200
040200
040000
040000
040000
040000
040000
040000
040000
040000
040000
1F0000
000000
000000
000000
ENDCHAR
STARTCHAR 0394
ENCODING 916
SWIDTH 1080 0
DWIDTH 18 0
BBX 17 18 0 -3
BITMAP
000000
008000
008000
014000
014000
022000
022000
041000
041000
080800
080800
100400
100400
200200
3FFE00
000000
000000
000000
ENDCHAR
STARTCHAR 0395
ENCODING 917
SWIDTH 1080 0
DWIDTH 18 0
BBX 17 18 0 -3
BITMAP
000000
3FFC00
080400
080200
080200
082000
082000
0FE000
082000
082000
080000
080200
080200
080400
3FFC00
000000
000000
000000
ENDCHAR
STARTCHAR 0396
ENCODING 918
SWIDTH 1080 0
DWIDTH 18 0
BBX 17 18 0 -3
BITMAP
000000
1FFC00
100800
201000
002000
002000
004000
008000
010000
020000
020000
040200
080400
100400
3FFC00
000000
000000
000000
ENDCHAR
STARTCHAR 0397
ENCODING 919
SWIDTH 1080 0
DWIDTH 18 0
BBX 17 18 0 -3
BITMAP
000000
7C1F00
100400
100400
100400
100400
100400
1FFC00
100400
100400
100400
100400
100400
100400
7C1F00
000000
000000
000000
ENDCHAR
STARTCHAR 0398
ENCODING 920
SWIDTH 1080 0
DWIDTH 18 0
BBX 17 18 0 -3
BITMAP
000000
01C000
063000
080800
100400
100400
222200
23E200
222200
200200
100400
100400
080800
063000
01C000
000000
000000
000000
ENDCHAR
STARTCHAR 0399
ENCODING 921
SWIDTH 1080 0
DWIDTH 18 0
BBX 17 18 0 -3
BITMAP
000000
03E000
008000
008000
008000
008000
008000
008000
008000
008000
008000
008000
008000
008000
03E000
000000
000000
000000
ENDCHAR
STARTCHAR 039A
ENCODING 922
SWIDTH 1080 0
DWIDTH 18 0
BBX 17 18 0 -3
BITMAP
000000
1F1E00
040800
041000
042000
044000
048000
054000
062000
042000
041000
040800
040800
040400
1F1F00
000000
000000
000000
ENDCHAR
STARTCHAR 039B
ENCODING 923
SWIDTH 1080 0
DWIDTH 18 0
BBX 17 18 0 -3
BITMAP
000000
008000
008000
014000
014000
022000
022000
041000
041000
041000
080800
080800
100400
100400
7C1F00
000000
000000
000000
ENDCHAR
STARTCHAR 039C
ENCODING 924
SWIDTH 1080 0
DWIDTH 18 0
BBX 17 18 0 -3
BITMAP
000000
E00380
200200
300600
300600
280A00
280A00
241200
241200
222200
222200
214200
214200
208200
F88F80
000000
000000
000000
ENDCHAR
STARTCHAR 039D
ENCODING 925
SWIDTH 1080 0
DWIDTH 18 0
BBX 17 18 0 -3
BITMAP
000000
700F80
180200
140200
120200
110200
110200
108200
104200
102200
102200
101200
100A00
100600
7C0200
000000
000000
000000
ENDCHAR
STARTCHAR 039E
ENCODING 926
SWIDTH 1080 0
DWIDTH 18 0
BBX 17 18 0 -3
BITMAP
000000
1FFE00
100200
100200
000000
000000
021000
03F000
021000
000000
000000
000000
100200
100200
1FFE00
000000
000000
000000
ENDCHAR
STARTCHAR 039F
ENCODING 927
SWIDTH 1080 0
DWIDTH 18 0
BBX 17 18 0 -3
BITMAP
000000
01C000
063000
080800
100400
100400
200200
200200
200200
200200
100400
100400
080800
063000
01C000
000000
000000
000000
ENDCHAR
STARTCHAR 03A0
ENCODING 928
SWIDTH 1080 0
DWIDTH 18 0
BBX 17 18 0 -3
BITMAP
000000
3FFF00
080400
080400
080400
080400
080400
080400
080400
080400
080400
080400
080400
080400
3E1F00
000000
000000
000000
ENDCHAR
STARTCHAR 03A1
ENCODING 929
SWIDTH 1080 0
DWIDTH 18 0
BBX 17 18 0 -3
BITMAP
000000
3FF000
080800
080400
080400
080400
080800
0FF000
080000
080000
080000
080000
080000
080000
3E0000
000000
000000
000000
ENDCHAR
STARTCHAR 03A3
ENCODING 931
SWIDTH 1080 0
DWIDTH 18 0
BBX 17 18 0 -3
BITMAP
000000
3FFC00
100400
080200
040200
020000
010000
008000
008000
010000
020000
040200
080200
100400
3FFC00
000000
000000
000000
ENDCHAR
STARTCHAR 03A4
ENCODING 932
SWIDTH 1080 0
DWIDTH 18 0
BBX 17 18 0 -3
BITMAP
000000
3FFE00
208200
408100
408100
008000
008000
008000
008000
008000
008000
008000
008000
008000
03E000
000000
000000
000000
ENDCHAR
STARTCHAR 03A5
ENCODING 933
SWIDTH 1080 0
DWIDTH 18 0
BBX 17 18 0 -3
BITMAP
000000
063000
194C00
208200
208200
408100
408100
008000
008000
008000
008000
008000
008000
008000
03E000
000000
000000
000000
ENDCHAR
STARTCHAR 03A6
ENCODING 934
SWIDTH 1080 0
DWIDTH 18 0
BBX 17 18 0 -3
BITMAP
000000
03E000
008000
03E000
0C9800
108400
208200
208200
208200
108400
0C9800
03E000
008000
008000
03E000
000000
000000
000000
ENDCHAR
STARTCHAR 03A7
ENCODING 935
SWIDTH 1080 0
DWIDTH 18 0
BBX 17 18 0 -3
BITMAP
000000
3C0F00
080400
040800
021000
021000
012000
00C000
00C000
012000
021000
021000
040800
080400
3C0F00
000000
000000
000000
ENDCHAR
STARTCHAR 03A8
ENCODING 936
SWIDTH 1080 0
DWIDTH 18 0
BBX 17 18 0 -3
BITMAP
000000
01C000
308600
488900
488900
088800
088800
088800
088800
049000
03E000
008000
008000
008000
03E000
000000
000000
000000
ENDCHAR
STARTCHAR 03A9
ENCODING 937
SWIDTH 1080 0
DWIDTH 18 0
BBX 17 18 0 -3
BITMAP
000000
03F000
0C0C00
100200
100200
200100
200100
200100
200100
100200
080400
040800
233100
212100
3F3F00
000000
000000
000000
ENDCHAR
STARTCHAR 03B1
ENCODING 945
SWIDTH 1080 0
DWIDTH 18 0
BBX 17 18 0 -3
BITMAP
000000
000000
000000
000000
000000
000000
01C400
022400
042800
042800
083000
082000
082400
045400
038800
000000
000000
000000
ENDCHAR
STARTCHAR 03B2
ENCODING 946
SWIDTH 1080 0
DWIDTH 18 0
BBX 17 18 0 -3
BITMAP
000000
003800
004400
008200
008200
010400
016800
011000
020800
020400
020400
020400
020400
050800
04F000
040000
040000
040000
ENDCHAR
STARTCHAR 03B3
ENCODING 947
SWIDTH 1080 0
DWIDTH 18 0
BBX 17 18 0 -3
BITMAP
000000
000000
000000
000000
000000
000000
000000
018400
024800
045000
002000
006000
004000
004000
008000
008000
008000
000000
ENDCHAR
STARTCHAR 03B4
ENCODING 948
SWIDTH 1080 0
DWIDTH 18 0
BBX 17 18 0 -3
BITMAP
000000
006000
009800
008400
008000
004000
01E000
021000
041000
040800
080800
081000
081000
042000
03C000
000000
000000
000000
ENDCHAR
STARTCHAR 03B5
ENCODING 949
SWIDTH 1080 0
DWIDTH 18 0
BBX 17 18 0 -3
BITMAP
000000
000000
000000
000000
000000
000000
00F000
010800
020000
020000
03C000
040000
040800
021000
01E000
000000
000000
000000
ENDCHAR
STARTCHAR 03B6
ENCODING 950
SWIDTH 1080 0
DWIDTH 18 0
BBX 17 18 0 -3
BITMAP
000000
020000
041800
043000
03C000
008000
010000
020000
020000
040000
040000
040000
020000
01C000
003000
000800
018800
007000
ENDCHAR
STARTCHAR 03B7
ENCODING 951
SWIDTH 1080 0
DWIDTH 18 0
BBX 17 18 0 -3
BITMAP
000000
000000
000000
000000
000000
000000
063000
094800
018400
010400
020800
020800
020800
041000
041000
001000
002000
002000
ENDCHAR
STARTCHAR 03B8
ENCODING 952
SWIDTH 1080 0
DWIDTH 18 0
BBX 17 18 0 -3
BITMAP
000000
007000
008800
010800
010400
020400
020400
03F800
040800
040800
040800
041000
021000
022000
01C000
000000
000000
000000
ENDCHAR
STARTCHAR 03B9
ENCODING 953
SWIDTH 1080 0
DWIDTH 18 0
BBX 17 18 0 -3
BITMAP
000000
000000
000000
000000
000000
000000
010000
010000
010000
020000
020000
020800
021000
022000
01C000
000000
000000
000000
ENDCHAR
STARTCHAR 03BA
ENCODING 954
SWIDTH 1080 0
DWIDTH 18 0
BBX 17 18 0 -3
BITMAP
000000
000000
000000
000000
000000
000000
010C00
011000
012000
024000
038000
024000
042400
042800
041000
000000
000000
000000
ENDCHAR
STARTCHAR 03BB
ENCODING 955
SWIDTH 1080 0
DWIDTH 18 0
BBX 17 18 0 -3
BITMAP
000000
00C000
002000
002000
002000
002000
002000
006000
00A000
00A000
012000
012000
021000
021000
040C00
000000
000000
000000
ENDCHAR
STARTCHAR 03BC
ENCODING 956
SWIDTH 1080 0
DWIDTH 18 0
BBX 17 18 0 -3
BITMAP
000000
000000
000000
000000
000000
000000
010800
010800
010800
021000
021000
021000
062000
052400
04D800
040000
080000
080000
ENDCHAR
STARTCHAR 03BD
ENCODING 957
SWIDTH 1080 0
DWIDTH 18 0
BBX 17 18 0 -3
BITMAP
000000
000000
000000
000000
000000
000000
080800
040800
040800
021000
021000
022000
024000
028000
030000
000000
000000
000000
ENDCHAR
STARTCHAR 03BE
ENCODING 958
SWIDTH 1080 0
DWIDTH 18 0
BBX 17 18 0 -3
BITMAP
000000
00F000
010000
008000
01F800
020000
040000
020000
01F000
060000
080000
080000
040000
038000
006000
001000
041000
03E000
ENDCHAR
STARTCHAR 03BF
ENCODING 959
SWIDTH 1080 0
DWIDTH 18 0
BBX 17 18 0 -3
BITMAP
000000
000000
000000
000000
000000
000000
00E000
031000
040800
040800
080800
081000
081000
046000
038000
000000
000000
000000
ENDCHAR
STARTCHAR 03C0
ENCODING 960
SWIDTH 1080 0
DWIDTH 18 0
BBX 17 18 0 -3
BITMAP
000000
000000
000000
000000
000000
000400
0FF800
112000
012000
022000
022000
042000
042400
082800
101000
000000
000000
000000
ENDCHAR
STARTCHAR 03C1
ENCODING 961
SWIDTH 1080 0
DWIDTH 18 0
BBX 17 18 0 -3
BITMAP
000000
000000
000000
000000
000000
000000
007000
008800
010400
010400
020400
020800
020800
051000
04E000
040000
040000
040000
ENDCHAR
STARTCHAR 03C3
ENCODING 963
SWIDTH 1080 0
DWIDTH 18 0
BBX 17 18 0 -3
BITMAP
000000
000000
000000
000000
000000
000000
00FE00
011000
020800
040800
040800
041000
041000
022000
01C000
000000
000000
000000
ENDCHAR
STARTCHAR 03C4
ENCODING 964
SWIDTH 1080 0
DWIDTH 18 0
BBX 17 18 0 -3
BITMAP
000000
000000
000000
000000
000000
000400
07F800
088000
008000
008000
010000
010000
010800
013000
00C000
000000
000000
000000
ENDCHAR
STARTCHAR 03C5
ENCODING 965
SWIDTH 1080 0
DWIDTH 18 0
BBX 17 18 0 -3
BITMAP
000000
000000
000000
000000
000000
000000
040800
020400
020400
020400
020800
020800
021000
022000
01C000
000000
000000
000000
ENDCHAR
STARTCHAR 03C6
ENCODING 966
SWIDTH 1080 0
DWIDTH 18 0
BBX 17 18 0 -3
BITMAP
000000
002000
002000
002000
002000
004000
01F000
024800
044400
084400
088400
088800
049000
03E000
008000
010000
010000
010000
ENDCHAR
STARTCHAR 03C7
ENCODING 967
SWIDTH 1080 0
DWIDTH 18 0
BBX 17 18 0 -3
BITMAP
000000
000000
000000
000000
000000
000000
038400
044800
005000
006000
004000
00C000
014400
022400
041800
000000
000000
000000
ENDCHAR
STARTCHAR 03C8
ENCODING 968
SWIDTH 1080 0
DWIDTH 18 0
BBX 17 18 0 -3
BITMAP
000000
002000
002000
002000
004000
004000
024800
044400
044400
088400
088800
088800
049000
03E000
010000
010000
010000
010000
ENDCHAR
STARTCHAR 03C9
ENCODING 969
SWIDTH 1080 0
DWIDTH 18 0
BBX 17 18 0 -3
BITMAP
000000
000000
000000
000000
000000
000000
060800
080400
104400
104200
208200
208400
218400
124800
0C3000
000000
000000
000000
ENDCHAR
STARTCHAR 0401
ENCODING 1025
SWIDTH 1080 0
DWIDTH 18 0
BBX 17 18 0 -3
BITMAP
063000
063000
000000
3FFC00
080400
080200
080200
084000
0FC000
084000
080000
080200
080200
080400
3FFC00
000000
000000
000000
ENDCHAR
STARTCHAR 0410
ENCODING 1040
SWIDTH 1080 0
DWIDTH 18 0
BBX 17 18 0 -3
BITMAP
000000
008000
008000
014000
014000
022000
022000
041000
041000
07F000
080800
080800
100400
100400
7C1F00
000000
000000
000000
ENDCHAR
STARTCHAR 0411
ENCODING 1041
SWIDTH 1080 0
DWIDTH 18 0
BBX 17 18 0 -3
BITMAP
000000
3FF800
080800
080400
080400
080000
080000
0FF000
080800
080400
080400
080400
080400
080800
3FF000
000000
000000
000000
ENDCHAR
STARTCHAR 0412
ENCODING 1042
SWIDTH 1080 0
DWIDTH 18 0
BBX 17 18 0 -3
BITMAP
000000
3FE000
081000
080800
080800
080800
081000
0FF000
080800
080400
080400
080400
080400
080800
3FF000
000000
000000
000000
ENDCHAR
STARTCHAR 0413
ENCODING 1043
SWIDTH 1080 0
DWIDTH 18 0
BBX 17 18 0 -3
BITMAP
000000
1FFC00
040400
040200
040200
040000
040000
040000
040000
040000
040000
040000
040000
040000
1F0000
000000
000000
000000
ENDCHAR
STARTCHAR 0414
ENCODING 1044
SWIDTH 1080 0
DWIDTH 18 0
BBX 17 18 0 -3
BITMAP
000000
07FF00
010400
010400
010400
010400
020400
020400
020400
040400
040400
080400
080400
100400
3FFE00
200200
200200
000000
ENDCHAR
STARTCHAR 0415
ENCODING 1045
SWIDTH 1080 0
DWIDTH 18 0
BBX 17 18 0 -3
BITMAP
000000
3FFC00
080400
080200
080200
080000
082000
0FE000
082000
080000
080000
080200
080200
080400
3FFC00
000000
000000
000000
ENDCHAR
STARTCHAR 0416
ENCODING 1046
SWIDTH 1080 0
DWIDTH 18 0
BBX 17 18 0 -3
BITMAP
000000
33E600
488900
088800
049000
049000
02A000
01C000
02A000
02A000
049000
049000
088800
108400
7BEF00
000000
000000
000000
ENDCHAR
STARTCHAR 0417
ENCODING 1047
SWIDTH 1080 0
DWIDTH 18 0
BBX 17 18 0 -3
BITMAP
000000
07E000
081800
100800
100400
000400
001800
01E000
001800
000400
000400
100400
100800
081800
07E000
000000
000000
000000
ENDCHAR
STARTCHAR 0418
ENCODING 1048
SWIDTH 1080 0
DWIDTH 18 0
BBX 17 18 0 -3
BITMAP
000000
7C1F00
100400
100C00
101400
102400
104400
108400
108400
110400
120400
140400
180400
100400
7C1F00
000000
000000
000000
ENDCHAR
STARTCHAR 0419
ENCODING 1049
SWIDTH 1080 0
DWIDTH 18 0
BBX 17 18 0 -3
BITMAP
036000
022000
7DDF00
100400
100C00
101400
102400
104400
108400
110400
120400
140400
180400
100400
7C1F00
000000
000000
000000
ENDCHAR
STARTCHAR 041A
ENCODING 1050
SWIDTH 1080 0
DWIDTH 18 0
BBX 17 18 0 -3
BITMAP
000000
3E0E00
081100
082000
082000
084000
088000
0F0000
088000
084000
082000
081000
080800
080400
3E1F00
000000
000000
000000
ENDCHAR
STARTCHAR 041B
ENCODING 1051
SWIDTH 1080 0
DWIDTH 18 0
BBX 17 18 0 -3
BITMAP
000000
0FFF00
020400
020400
020400
020400
020400
020400
020400
020400
040400
040400
440400
480400
301F00
000000
000000
000000
ENDCHAR
STARTCHAR 041C
ENCODING 1052
SWIDTH 1080 0
DWIDTH 18 0
BBX 17 18 0 -3
BITMAP
000000
700700
100400
180C00
180C00
141400
141400
122400
122400
214200
214200
208200
208200
208200
F80F80
000000
000000
000000
ENDCHAR
STARTCHAR 041D
ENCODING 1053
SWIDTH 1080 0
DWIDTH 18 0
BBX 17 18 0 -3
BITMAP
000000
7C1F00
100400
100400
100400
100400
100400
1FFC00
100400
100400
100400
100400
100400
100400
7C1F00
000000
000000
000000
ENDCHAR
STARTCHAR 041E
ENCODING 1054
SWIDTH 1080 0
DWIDTH 18 0
BBX 17 18 0 -3
BITMAP
000000
01C000
063000
080800
100400
100400
200200
200200
200200
200200
100400
100400
080800
063000
01C000
000000
000000
000000
ENDCHAR
STARTCHAR 041F
ENCODING 1055
SWIDTH 1080 0
DWIDTH 18 0
BBX 17 18 0 -3
BITMAP
000000
7FFF00
100400
100400
100400
100400
100400
100400
100400
100400
100400
100400
100400
100400
7C1F00
000000
000000
000000
ENDCHAR
STARTCHAR 0420
ENCODING 1056
SWIDTH 1080 0
DWIDTH 18 0
BBX 17 18 0 -3
BITMAP
000000
3FF000
080800
080400
080400
080400
080800
0FF000
080000
080000
080000
080000
080000
080000
3E0000
000000
000000
000000
ENDCHAR
STARTCHAR 0421
ENCODING 1057
SWIDTH 1080 0
DWIDTH 18 0
BBX 17 18 0 -3
BITMAP
000000
03F000
040A00
080600
100200
100200
200000
200000
200000
200000
100000
100200
080400
041800
03E000
000000
000000
000000
ENDCHAR
STARTCHAR 0422
ENCODING 1058
SWIDTH 1080 0
DWIDTH 18 0
BBX 17 18 0 -3
BITMAP
000000
3FFE00
208200
408100
408100
008000
008000
008000
008000
008000
008000
008000
008000
008000
03E000
000000
000000
000000
ENDCHAR
STARTCHAR 0423
ENCODING 1059
SWIDTH 1080 0
DWIDTH 18 0
BBX 17 18 0 -3
BITMAP
000000
3E0F80
080200
040400
040400
020800
020800
011000
00A000
00A000
004000
004000
188000
108000
110000
0E0000
000000
000000
ENDCHAR
STARTCHAR 0424
ENCODING 1060
SWIDTH 1080 0
DWIDTH 18 0
BBX 17 18 0 -3
BITMAP
000000
03E000
008000
03E000
0C9800
108400
208200
208200
208200
108400
0C9800
03E000
008000
008000
03E000
000000
000000
000000
ENDCHAR
STARTCHAR 0425
ENCODING 1061
SWIDTH 1080 0
DWIDTH 18 0
BBX 17 18 0 -3
BITMAP
000000
3E1F00
080400
040800
021000
021000
012000
00C000
00C000
012000
021000
021000
040800
080400
3E1F00
000000
000000
000000
ENDCHAR
STARTCHAR 0426
ENCODING 1062
SWIDTH 1080 0
DWIDTH 18 0
BBX 17 18 0 -3
BITMAP
000000
3E3E00
080800
080800
080800
080800
080800
080800
080800
080800
080800
080800
080800
080800
3FFE00
000100
000100
000000
ENDCHAR
STARTCHAR 0427
ENCODING 1063
SWIDTH 1080 0
DWIDTH 18 0
BBX 17 18 0 -3
BITMAP
000000
3E1F00
080400
080400
080400
080400
080400
080400
080400
041C00
03E400
000400
000400
000400
000400
001F00
000000
000000
ENDCHAR
STARTCHAR 0428
ENCODING 1064
SWIDTH 1080 0
DWIDTH 18 0
BBX 17 18 0 -3
BITMAP
000000
FBEF80
208200
208200
208200
208200
208200
208200
208200
208200
208200
208200
208200
208200
FFFF80
000000
000000
000000
ENDCHAR
STARTCHAR 0429
ENCODING 1065
SWIDTH 1080 0
DWIDTH 18 0
BBX 17 18 0 -3
BITMAP
000000
FBEF80
208200
208200
208200
208200
208200
208200
208200
208200
208200
208200
208200
208200
FFFF00
000080
000080
000000
ENDCHAR
STARTCHAR 042A
ENCODING 1066
SWIDTH 1080 0
DWIDTH 18 0
BBX 17 18 0 -3
BITMAP
000000
3F8000
220000
220000
020000
020000
020000
03FC00
020200
020100
020100
020100
020100
020200
0FFC00
000000
000000
000000
ENDCHAR
STARTCHAR 042B
ENCODING 1067
SWIDTH 1080 0
DWIDTH 18 0
BBX 17 18 0 -3
BITMAP
000000
F80F80
200200
200200
200200
200200
200200
3F8200
204200
202200
202200
202200
202200
204200
FF8F80
000000
000000
000000
ENDCHAR
STARTCHAR 042C
ENCODING 1068
SWIDTH 1080 0
DWIDTH 18 0
BBX 17 18 0 -3
BITMAP
000000
1F0000
040000
040000
040000
040000
040000
07F000
040C00
040200
040200
040200
040200
040C00
1FF000
000000
000000
000000
ENDCHAR
STARTCHAR 042D
ENCODING 1069
SWIDTH 1080 0
DWIDTH 18 0
BBX 17 18 0 -3
BITMAP
000000
03E000
0C1800
180400
100400
000200
038200
044E00
003200
000200
000200
100400
180400
0C1800
03E000
000000
000000
000000
ENDCHAR
STARTCHAR 042E
ENCODING 1070
SWIDTH 1080 0
DWIDTH 18 0
BBX 17 18 0 -3
BITMAP
000000
F87800
208400
210200
210200
220100
220100
3E0100
220100
220100
220100
210200
210200
208400
F87800
000000
000000
000000
ENDCHAR
STARTCHAR 042F
ENCODING 1071
SWIDTH 1080 0
DWIDTH 18 0
BBX 17 18 0 -3
BITMAP
000000
03FF80
040200
080200
080200
080200
040200
03FE00
008200
010200
010200
020200
040200
080200
300F80
000000
000000
000000
ENDCHAR
STARTCHAR 0430
ENCODING 1072
SWIDTH 1080 0
DWIDTH 18 0
BBX 17 18 0 -3
BITMAP
000000
000000
000000
000000
000000
000000
01C000
062000
041000
007000
039000
041000
041000
047400
039800
000000
000000
000000
ENDCHAR
STARTCHAR 0431
ENCODING 1073
SWIDTH 1080 0
DWIDTH 18 0
BBX 17 18 0 -3
BITMAP
000000
000800
007000
038000
040000
040000
09E000
0E1000
081000
080800
080800
080800
041000
063000
01C000
000000
000000
000000
ENDCHAR
STARTCHAR 0432
ENCODING 1074
SWIDTH 1080 0
DWIDTH 18 0
BBX 17 18 0 -3
BITMAP
000000
000000
000000
000000
000000
000000
07E000
021000
020800
021000
03E000
021000
020800
021000
07E000
000000
000000
000000
ENDCHAR
STARTCHAR 0433
ENCODING 1075
SWIDTH 1080 0
DWIDTH 18 0
BBX 17 18 0 -3
BITMAP
000000
000000
000000
000000
000000
000000
07F800
020800
020800
020000
020000
020000
020000
020000
070000
000000
000000
000000
ENDCHAR
STARTCHAR 0434
ENCODING 1076
SWIDTH 1080 0
DWIDTH 18 0
BBX 17 18 0 -3
BITMAP
000000
000000
000000
000000
000000
000000
07FC00
020800
020800
020800
040800
040800
040800
080800
0FFC00
100400
100400
000000
ENDCHAR
STARTCHAR 0435
ENCODING 1077
SWIDTH 1080 0
DWIDTH 18 0
BBX 17 18 0 -3
BITMAP
000000
000000
000000
000000
000000
000000
01E000
021000
040800
07F800
040000
040000
040800
021000
01E000
000000
000000
000000
ENDCHAR
STARTCHAR 0436
ENCODING 1078
SWIDTH 1080 0
DWIDTH 18 0
BBX 17 18 0 -3
BITMAP
000000
000000
000000
000000
000000
000000
19CC00
249200
02A000
02A000
01C000
02A000
049000
088800
39CE00
000000
000000
000000
ENDCHAR
STARTCHAR 0437
ENCODING 1079
SWIDTH 1080 0
DWIDTH 18 0
BBX 17 18 0 -3
BITMAP
000000
000000
000000
000000
000000
000000
01F000
020800
041800
006000
001000
000800
040800
021000
01E000
000000
000000
000000
ENDCHAR
STARTCHAR 0438
ENCODING 1080
SWIDTH 1080 0
DWIDTH 18 0
BBX 17 18 0 -3
BITMAP
000000
000000
000000
000000
000000
000000
1C1C00
080800
083800
084800
088800
090800
0E0800
080800
1C1C00
000000
000000
000000
ENDCHAR
STARTCHAR 0439
ENCODING 1081
SWIDTH 1080 0
DWIDTH 18 0
BBX 17 18 0 -3
BITMAP
000000
000000
036000
022000
01C000
000000
1C1C00
080800
083800
084800
088800
090800
0E0800
080800
1C1C00
000000
000000
000000
ENDCHAR
STARTCHAR 043A
ENCODING 1082
SWIDTH 1080 0
DWIDTH 18 0
BBX 17 18 0 -3
BITMAP
000000
000000
000000
000000
000000
000000
0E1800
042400
044C00
048000
078000
044000
042000
041000
0E3C00
000000
000000
000000
ENDCHAR
STARTCHAR 043B
ENCODING 1083
SWIDTH 1080 0
DWIDTH 18 0
BBX 17 18 0 -3
BITMAP
000000
000000
000000
000000
000000
000000
03FC00
008800
008800
008800
010800
010800
190800
120800
0C1C00
000000
000000
000000
ENDCHAR
STARTCHAR 043C
ENCODING 1084
SWIDTH 1080 0
DWIDTH 18 0
BBX 17 18 0 -3
BITMAP
000000
000000
000000
000000
000000
000000
0C1800
041000
041000
0A2800
0A2800
094800
114400
108400
388E00
000000
000000
000000
ENDCHAR
STARTCHAR 043D
ENCODING 1085
SWIDTH 1080 0
DWIDTH 18 0
BBX 17 18 0 -3
BITMAP
000000
000000
000000
000000
000000
000000
1C1C00
080800
080800
080800
0FF800
080800
080800
080800
1C1C00
000000
000000
000000
ENDCHAR
STARTCHAR 043E
ENCODING 1086
SWIDTH 1080 0
DWIDTH 18 0
BBX 17 18 0 -3
BITMAP
000000
000000
000000
000000
000000
000000
01E000
021000
040800
040800
040800
040800
040800
021000
01E000
000000
000000
000000
ENDCHAR
STARTCHAR 043F
ENCODING 1087
SWIDTH 1080 0
DWIDTH 18 0
BBX 17 18 0 -3
BITMAP
000000
000000
000000
000000
000000
000000
1FFC00
080800
080800
080800
080800
080800
080800
080800
1C1C00
000000
000000
000000
ENDCHAR
STARTCHAR 0440
ENCODING 1088
SWIDTH 1080 0
DWIDTH 18 0
BBX 17 18 0 -3
BITMAP
000000
000000
000000
000000
000000
000000
0DE000
061000
040800
040400
040400
040400
040800
061000
05E000
040000
040000
0E0000
ENDCHAR
STARTCHAR 0441
ENCODING 1089
SWIDTH 1080 0
DWIDTH 18 0
BBX 17 18 0 -3
BITMAP
000000
000000
000000
000000
000000
000000
01E000
021000
040800
041800
040000
040000
040800
021000
01E000
000000
000000
000000
ENDCHAR
STARTCHAR 0442
ENCODING 1090
SWIDTH 1080 0
DWIDTH 18 0
BBX 17 18 0 -3
BITMAP
000000
000000
000000
000000
000000
000000
0FF800
088800
108400
008000
008000
008000
008000
008000
01C000
000000
000000
000000
ENDCHAR
STARTCHAR 0443
ENCODING 1091
SWIDTH 1080 0
DWIDTH 18 0
BBX 17 18 0 -3
BITMAP
000000
000000
000000
000000
000000
000000
0F1E00
020800
020800
010800
009000
009000
006000
002000
004000
0C4000
088000
070000
ENDCHAR
STARTCHAR 0444
ENCODING 1092
SWIDTH 1080 0
DWIDTH 18 0
BBX 17 18 0 -3
BITMAP
000000
008000
018000
008000
008000
008000
06B000
09C800
108400
108400
108400
108400
09C800
06B000
008000
008000
008000
01C000
ENDCHAR
STARTCHAR 0445
ENCODING 1093
SWIDTH 1080 0
DWIDTH 18 0
BBX 17 18 0 -3
BITMAP
000000
000000
000000
000000
000000
000000
1E1E00
040800
021000
012000
00C000
012000
021000
040800
1E1E00
000000
000000
000000
ENDCHAR
STARTCHAR 0446
ENCODING 1094
SWIDTH 1080 0
DWIDTH 18 0
BBX 17 18 0 -3
BITMAP
000000
000000
000000
000000
000000
000000
0E1C00
040800
040800
040800
040800
040800
040800
040800
0FFE00
000200
000200
000000
ENDCHAR
STARTCHAR 0447
ENCODING 1095
SWIDTH 1080 0
DWIDTH 18 0
BBX 17 18 0 -3
BITMAP
000000
000000
000000
000000
000000
000000
0E1C00
040800
040800
040800
040800
041800
03E800
000800
000800
001C00
000000
000000
ENDCHAR
STARTCHAR 0448
ENCODING 1096
SWIDTH 1080 0
DWIDTH 18 0
BBX 17 18 0 -3
BITMAP
000000
000000
000000
000000
000000
000000
39CE00
108400
108400
108400
108400
108400
108400
108400
3FFF00
000000
000000
000000
ENDCHAR
STARTCHAR 0449
ENCODING 1097
SWIDTH 1080 0
DWIDTH 18 0
BBX 17 18 0 -3
BITMAP
000000
000000
000000
000000
000000
000000
39CE00
108400
108400
108400
108400
108400
108400
108400
3FFF00
000100
000100
000000
ENDCHAR
STARTCHAR 044A
ENCODING 1098
SWIDTH 1080 0
DWIDTH 18 0
BBX 17 18 0 -3
BITMAP
000000
000000
000000
000000
000000
000000
1F0000
110000
210000
01F800
010400
010200
010200
010400
07F800
000000
000000
000000
ENDCHAR
STARTCHAR 044B
ENCODING 1099
SWIDTH 1080 0
DWIDTH 18 0
BBX 17 18 0 -3
BITMAP
000000
000000
000000
000000
000000
000000
380E00
100400
100400
1F8400
104400
104400
104400
104400
3F8E00
000000
000000
000000
ENDCHAR
STARTCHAR 044C
ENCODING 1100
SWIDTH 1080 0
DWIDTH 18 0
BBX 17 18 0 -3
BITMAP
000000
000000
000000
000000
000000
000000
0E0000
040000
040000
07E000
041000
040800
040800
041000
0FE000
000000
000000
000000
ENDCHAR
STARTCHAR 044D
ENCODING 1101
SWIDTH 1080 0
DWIDTH 18 0
BBX 17 18 0 -3
BITMAP
000000
000000
000000
000000
000000
000000
03E000
041000
000800
00CC00
013400
000400
000800
041000
03E000
000000
000000
000000
ENDCHAR
STARTCHAR 044E
ENCODING 1102
SWIDTH 1080 0
DWIDTH 18 0
BBX 17 18 0 -3
BITMAP
000000
000000
000000
000000
000000
000000
38F000
110800
110800
120400
1E0400
120400
110800
110800
38F000
000000
000000
000000
ENDCHAR
STARTCHAR 044F
ENCODING 1103
SWIDTH 1080 0
DWIDTH 18 0
BBX 17 18 0 -3
BITMAP
000000
000000
000000
000000
000000
000000
03FC00
040800
040800
040800
03F800
010800
020800
040800
181C00
000000
000000
000000
ENDCHAR
STARTCHAR 0451
ENCODING 1105
SWIDTH 1080 0
DWIDTH 18 0
BBX 17 18 0 -3
BITMAP
000000
000000
033000
033000
000000
000000
01E000
021000
040800
07F800
040000
040000
040800
021000
01E000
000000
000000
000000
ENDCHAR
STARTCHAR 2000
ENCODING 8192
SWIDTH 1080 0
DWIDTH 18 0
BBX 17 18 0 -3
BITMAP
000000
000000
000000
000000
000000
000000
000000
000000
000000
000000
000000
000000
000000
000000
000000
000000
000000
000000
ENDCHAR
STARTCHAR 2001
ENCODING 8193
SWIDTH 1080 0
DWIDTH 18 0
BBX 17 18 0 -3
BITMAP
000000
000000
000000
000000
000000
000000
000000
000000
000000
000000
000000
000000
000000
000000
000000
000000
000000
000000
ENDCHAR
STARTCHAR 2002
ENCODING 8194
SWIDTH 1080 0
DWIDTH 18 0
BBX 17 18 0 -3
BITMAP
000000
000000
000000
000000
000000
000000
000000
000000
000000
000000
000000
000000
000000
000000
000000
000000
000000
000000
ENDCHAR
STARTCHAR 2003
ENCODING 8195
SWIDTH 1080 0
DWIDTH 18 0
BBX 17 18 0 -3
BITMAP
000000
000000
000000
000000
000000
000000
000000
000000
000000
000000
000000
000000
000000
000000
000000
000000
000000
000000
ENDCHAR
STARTCHAR 2004
ENCODING 8196
SWIDTH 1080 0
DWIDTH 18 0
BBX 17 18 0 -3
BITMAP
000000
000000
000000
000000
000000
000000
000000
000000
000000
000000
000000
000000
000000
000000
000000
000000
000000
000000
ENDCHAR
STARTCHAR 2005
ENCODING 8197
SWIDTH 1080 0
DWIDTH 18 0
BBX 17 18 0 -3
BITMAP
000000
000000
000000
000000
000000
000000
000000
000000
000000
000000
000000
000000
000000
000000
000000
000000
000000
000000
ENDCHAR
STARTCHAR 2006
ENCODING 8198
SWIDTH 1080 0
DWIDTH 18 0
BBX 17 18 0 -3
BITMAP
000000
000000
000000
000000
000000
000000
000000
000000
000000
000000
000000
000000
000000
000000
000000
000000
000000
000000
ENDCHAR
STARTCHAR 2007
ENCODING 8199
SWIDTH 1080 0
DWIDTH 18 0
BBX 17 18 0 -3
BITMAP
000000
000000
000000
000000
000000
000000
000000
000000
000000
000000
000000
000000
000000
000000
000000
000000
000000
000000
ENDCHAR
STARTCHAR 2008
ENCODING 8200
SWIDTH 1080 0
DWIDTH 18 0
BBX 17 18 0 -3
BITMAP
000000
000000
000000
000000
000000
000000
000000
000000
000000
000000
000000
000000
000000
000000
000000
000000
000000
000000
ENDCHAR
STARTCHAR 2009
ENCODING 8201
SWIDTH 1080 0
DWIDTH 18 0
BBX 17 18 0 -3
BITMAP
000000
000000
000000
000000
000000
000000
000000
000000
000000
000000
000000
000000
000000
000000
000000
000000
000000
000000
ENDCHAR
STARTCHAR 200A
ENCODING 8202
SWIDTH 1080 0
DWIDTH 18 0
BBX 17 18 0 -3
BITMAP
000000
000000
000000
000000
000000
000000
000000
000000
000000
000000
000000
000000
000000
000000
000000
000000
000000
000000
ENDCHAR
STARTCHAR 200B
ENCODING 8203
SWIDTH 540 0
DWIDTH 9 0
BBX 1 1 0 0
BITMAP
00
ENDCHAR
STARTCHAR 200C
ENCODING 8204
SWIDTH 540 0
DWIDTH 9 0
BBX 1 1 0 0
BITMAP
00
ENDCHAR
STARTCHAR 200D
ENCODING 8205
SWIDTH 540 0
DWIDTH 9 0
BBX 1 1 0 0
BITMAP
00
ENDCHAR
STARTCHAR 200E
ENCODING 8206
SWIDTH 540 0
DWIDTH 9 0
BBX 1 1 0 0
BITMAP
00
ENDCHAR
STARTCHAR 200F
ENCODING 8207
SWIDTH 540 0
DWIDTH 9 0
BBX 1 1 0 0
BITMAP
00
ENDCHAR
STARTCHAR 2010
ENCODING 8208
SWIDTH 1080 0
DWIDTH 18 0
BBX 18 18 0 -3
BITMAP
000000
000000
000000
000000
000000
000000
000000
000000
03F000
000000
000000
000000
000000
000000
000000
000000
000000
000000
ENDCHAR
STARTCHAR 2014
ENCODING 8212
SWIDTH 1080 0
DWIDTH 18 0
BBX 18 18 0 -3
BITMAP
000000
000000
000000
000000
000000
000000
000000
000000
7FFF00
000000
000000
000000
000000
000000
000000
000000
000000
000000
ENDCHAR
STARTCHAR 2015
ENCODING 8213
SWIDTH 1080 0
DWIDTH 18 0
BBX 18 18 0 -3
BITMAP
000000
000000
000000
000000
000000
000000
000000
000000
7FFF00
000000
000000
000000
000000
000000
000000
000000
000000
000000
ENDCHAR
STARTCHAR 2016
ENCODING 8214
SWIDTH 1080 0
DWIDTH 18 0
BBX 18 18 0 -3
BITMAP
012000
012000
012000
012000
012000
012000
012000
012000
012000
012000
012000
012000
012000
012000
012000
012000
012000
000000
ENDCHAR
STARTCHAR 2018
ENCODING 8216
SWIDTH 1080 0
DWIDTH 18 0
BBX 18 18 0 -3
BITMAP
000100
000200
000300
000300
000000
000000
000000
000000
000000
000000
000000
000000
000000
000000
000000
000000
000000
000000
ENDCHAR
STARTCHAR 2019
ENCODING 8217
SWIDTH 1080 0
DWIDTH 18 0
BBX 18 18 0 -3
BITMAP
300000
300000
100000
200000
000000
000000
000000
000000
000000
000000
000000
000000
000000
000000
000000
000000
000000
000000
ENDCHAR
STARTCHAR 201C
ENCODING 8220
SWIDTH 1080 0
DWIDTH 18 0
BBX 18 18 0 -3
BITMAP
000900
001200
001B00
001B00
000000
000000
000000
000000
000000
000000
000000
000000
000000
000000
000000
000000
000000
000000
ENDCHAR
STARTCHAR 201D
ENCODING 8221
SWIDTH 1080 0
DWIDTH 18 0
BBX 18 18 0 -3
BITMAP
360000
360000
120000
240000
000000
000000
000000
000000
000000
000000
000000
000000
000000
000000
000000
000000
000000
000000
ENDCHAR
STARTCHAR 2020
ENCODING 8224
SWIDTH 1080 0
DWIDTH 18 0
BBX 18 18 0 -3
BITMAP
000000
004000
00E000
004000
024800
07FC00
024800
004000
00E000
00E000
004000
004000
004000
004000
004000
004000
000000
000000
ENDCHAR
STARTCHAR 2021
ENCODING 8225
SWIDTH 1080 0
DWIDTH 18 0
BBX 18 18 0 -3
BITMAP
004000
00E000
004000
024800
07FC00
024800
00E000
00E000
004000
00E000
00E000
024800
07FC00
024800
004000
00E000
004000
000000
ENDCHAR
STARTCHAR 2025
ENCODING 8229
SWIDTH 1080 0
DWIDTH 18 0
BBX 18 18 0 -3
BITMAP
000000
000000
000000
000000
000000
000000
000000
000000
180C00
180C00
000000
000000
000000
000000
000000
000000
000000
000000
ENDCHAR
STARTCHAR 2026
ENCODING 8230
SWIDTH 1080 0
DWIDTH 18 0
BBX 18 18 0 -3
BITMAP
000000
000000
000000
000000
000000
000000
000000
000000
30C300
30C300
000000
000000
000000
000000
000000
000000
000000
000000
ENDCHAR
STARTCHAR 2030
ENCODING 8240
SWIDTH 1080 0
DWIDTH 18 0
BBX 18 18 0 -3
BITMAP
001000
381000
442000
442000
444000
448000
448000
390000
020000
026300
049480
089480
089480
109480
209480
206300
000000
000000
ENDCHAR
STARTCHAR 2032
ENCODING 8242
SWIDTH 1080 0
DWIDTH 18 0
BBX 18 18 0 -3
BITMAP
080000
080000
100000
100000
200000
000000
000000
000000
000000
000000
000000
000000
000000
000000
000000
000000
000000
000000
ENDCHAR
STARTCHAR 2033
ENCODING 8243
SWIDTH 1080 0
DWIDTH 18 0
BBX 18 18 0 -3
BITMAP
120000
120000
240000
240000
480000
000000
000000
000000
000000
000000
000000
000000
000000
000000
000000
000000
000000
000000
ENDCHAR
STARTCHAR 203B
ENCODING 8251
SWIDTH 1080 0
DWIDTH 18 0
BBX 18 18 0 -3
BITMAP
000000
000000
208200
11C400
088800
041000
022000
114400
388E00
114400
022000
041000
088800
11C400
208200
000000
000000
000000
ENDCHAR
STARTCHAR 203E
ENCODING 8254
SWIDTH 1080 0
DWIDTH 18 0
BBX 18 18 0 -3
BITMAP
FFFFC0
000000
000000
000000
000000
000000
000000
000000
000000
000000
000000
000000
000000
000000
000000
000000
000000
000000
ENDCHAR
STARTCHAR 2103
ENCODING 8451
SWIDTH 1080 0
DWIDTH 18 0
BBX 18 18 0 -3
BITMAP
000000
300000
48E400
4B1C00
340400
040400
080000
080000
080000
080000
080200
040200
040400
030C00
00F000
000000
000000
000000
ENDCHAR
STARTCHAR 2116
ENCODING 8470
SWIDTH 1080 0
DWIDTH 18 0
BBX 18 18 0 -3
BITMAP
000000
C38000
410000
610000
610000
510000
510000
493800
494400
454400
454400
434400
434500
414780
E13900
000000
000000
000000
ENDCHAR
STARTCHAR 2121
ENCODING 8481
SWIDTH 1080 0
DWIDTH 18 0
BBX 18 18 0 -3
BITMAP
000000
FE0000
920000
920000
100000
100000
13EE00
112400
110400
110400
11C400
110400
110480
112480
3BEF80
000000
000000
000000
ENDCHAR
STARTCHAR 212B
ENCODING 8491
SWIDTH 1080 0
DWIDTH 18 0
BBX 18 18 0 -3
BITMAP
00C000
012000
012000
00C000
000000
00C000
00C000
012000
012000
012000
021000
03F000
040800
040800
080400
1C0E00
000000
000000
ENDCHAR
STARTCHAR 2160
ENCODING 8544
SWIDTH 1080 0
DWIDTH 18 0
BBX 18 18 0 -3
BITMAP
000000
03E000
008000
008000
008000
008000
008000
008000
008000
008000
008000
008000
008000
008000
03E000
000000
000000
000000
ENDCHAR
STARTCHAR 2161
ENCODING 8545
SWIDTH 1080 0
DWIDTH 18 0
BBX 18 18 0 -3
BITMAP
000000
0FFC00
021000
021000
021000
021000
021000
021000
021000
021000
021000
021000
021000
021000
0FFC00
000000
000000
000000
ENDCHAR
STARTCHAR 2162
ENCODING 8546
SWIDTH 1080 0
DWIDTH 18 0
BBX 18 18 0 -3
BITMAP
000000
3FFE00
088800
088800
088800
088800
088800
088800
088800
088800
088800
088800
088800
088800
3FFE00
000000
000000
000000
ENDCHAR
STARTCHAR 2163
ENCODING 8547
SWIDTH 1080 0
DWIDTH 18 0
BBX 18 18 0 -3
BITMAP
000000
3FFF00
090400
090400
090400
088800
088800
088800
088800
085000
085000
085000
082000
082000
3E2000
000000
000000
000000
ENDCHAR
STARTCHAR 2164
ENCODING 8548
SWIDTH 1080 0
DWIDTH 18 0
BBX 18 18 0 -3
BITMAP
000000
3E3E00
080800
080800
080800
041000
041000
041000
022000
022000
022000
014000
014000
008000
008000
000000
000000
000000
ENDCHAR
STARTCHAR 2165
ENCODING 8549
SWIDTH 1080 0
DWIDTH 18 0
BBX 18 18 0 -3
BITMAP
000000
7FFE00
104800
104800
104800
088800
088800
088800
088800
050800
050800
050800
020800
020800
023E00
000000
000000
000000
ENDCHAR
STARTCHAR 2166
ENCODING 8550
SWIDTH 1080 0
DWIDTH 18 0
BBX 18 18 0 -3
BITMAP
000000
FFFF80
209200
209200
209200
111200
111200
111200
111200
0A1200
0A1200
0A1200
041200
041200
047F80
000000
000000
000000
ENDCHAR
STARTCHAR 2167
ENCODING 8551
SWIDTH 1080 0
DWIDTH 18 0
BBX 18 18 0 -3
BITMAP
000000
FFFF80
20AA00
20AA00
20AA00
112A00
112A00
112A00
112A00
0A2A00
0A2A00
0A2A00
042A00
042A00
04FF80
000000
000000
000000
ENDCHAR
STARTCHAR 2168
ENCODING 8552
SWIDTH 1080 0
DWIDTH 18 0
BBX 18 18 0 -3
BITMAP
000000
7F0780
120200
110400
108800
108800
105000
102000
102000
105000
108800
108800
110400
120200
7F0780
000000
000000
000000
ENDCHAR
STARTCHAR 2169
ENCODING 8553
SWIDTH 1080 0
DWIDTH 18 0
BBX 18 18 0 -3
BITMAP
000000
3E1F00
080400
040800
021000
021000
012000
00C000
00C000
012000
021000
021000
040800
080400
3E1F00
000000
000000
000000
ENDCHAR
STARTCHAR 2190
ENCODING 8592
SWIDTH 1080 0
DWIDTH 18 0
BBX 18 18 0 -3
BITMAP
000000
000000
000000
000000
000000
080000
100000
200000
7FFF80
200000
100000
080000
000000
000000
000000
000000
000000
000000
ENDCHAR
STARTCHAR 2191
ENCODING 8593
SWIDTH 1080 0
DWIDTH 18 0
BBX 18 18 0 -3
BITMAP
000000
008000
01C000
02A000
049000
008000
008000
008000
008000
008000
008000
008000
008000
008000
008000
008000
008000
000000
ENDCHAR
STARTCHAR 2192
ENCODING 8594
SWIDTH 1080 0
DWIDTH 18 0
BBX 18 18 0 -3
BITMAP
000000
000000
000000
000000
000000
000400
000200
000100
7FFF80
000100
000200
000400
000000
000000
000000
000000
000000
000000
ENDCHAR
STARTCHAR 2193
ENCODING 8595
SWIDTH 1080 0
DWIDTH 18 0
BBX 18 18 0 -3
BITMAP
000000
008000
008000
008000
008000
008000
008000
008000
008000
008000
008000
008000
008000
049000
02A000
01C000
008000
000000
ENDCHAR
STARTCHAR 21D2
ENCODING 8658
SWIDTH 1080 0
DWIDTH 18 0
BBX 18 18 0 -3
BITMAP
000000
000000
000000
001000
000800
000400
7FFE00
000100
000080
000100
7FFE00
000400
000800
001000
000000
000000
000000
000000
ENDCHAR
STARTCHAR 21D4
ENCODING 8660
SWIDTH 1080 0
DWIDTH 18 0
BBX 18 18 0 -3
BITMAP
000000
000000
000000
041000
080800
100400
3FFE00
400100
800080
400100
3FFE00
100400
080800
041000
000000
000000
000000
000000
ENDCHAR
STARTCHAR 2200
ENCODING 8704
SWIDTH 1080 0
DWIDTH 18 0
BBX 18 18 0 -3
BITMAP
000000
400100
400100
200200
200200
1FFC00
100400
080800
080800
041000
041000
022000
022000
014000
014000
008000
008000
000000
ENDCHAR
STARTCHAR 2202
ENCODING 8706
SWIDTH 1080 0
DWIDTH 18 0
BBX 18 18 0 -3
BITMAP
000000
006000
019000
020800
000800
000800
000800
01C800
022800
041000
041000
081000
082000
082000
044000
038000
000000
000000
ENDCHAR
STARTCHAR 2203
ENCODING 8707
SWIDTH 1080 0
DWIDTH 18 0
BBX 18 18 0 -3
BITMAP
000000
000000
0FFE00
000200
000200
000200
000200
000200
0FFE00
000200
000200
000200
000200
000200
0FFE00
000000
000000
000000
ENDCHAR
STARTCHAR 2207
ENCODING 8711
SWIDTH 1080 0
DWIDTH 18 0
BBX 18 18 0 -3
BITMAP
000000
7FFF00
200100
300200
100200
180400
080400
0C0800
040800
061000
021000
032000
012000
01C000
00C000
008000
000000
000000
ENDCHAR
STARTCHAR 2208
ENCODING 8712
SWIDTH 1080 0
DWIDTH 18 0
BBX 18 18 0 -3
BITMAP
000000
000000
07FF80
180000
200000
200000
400000
400000
7FFF80
400000
400000
200000
200000
180000
07FF80
000000
000000
000000
ENDCHAR
STARTCHAR 220B
ENCODING 8715
SWIDTH 1080 0
DWIDTH 18 0
BBX 18 18 0 -3
BITMAP
000000
000000
7FF800
000600
000100
000100
000080
000080
7FFF80
000080
000080
000100
000100
000600
7FF800
000000
000000
000000
ENDCHAR
STARTCHAR 2211
ENCODING 8721
SWIDTH 1080 0
DWIDTH 18 0
BBX 18 18 0 -3
BITMAP
000000
3FFC00
180400
0C0200
060200
030000
018000
00C000
008000
010000
020000
040200
080200
100400
3FFC00
000000
000000
000000
ENDCHAR
STARTCHAR 2212
ENCODING 8722
SWIDTH 1080 0
DWIDTH 18 0
BBX 18 18 0 -3
BITMAP
000000
000000
000000
000000
000000
000000
000000
000000
1FFE00
000000
000000
000000
000000
000000
000000
000000
000000
000000
ENDCHAR
STARTCHAR 221A
ENCODING 8730
SWIDTH 1080 0
DWIDTH 18 0
BBX 18 18 0 -3
BITMAP
007FC0
004000
004000
008000
008000
008000
008000
010000
210000
210000
720000
520000
1A0000
0A0000
0C0000
040000
040000
000000
ENDCHAR
STARTCHAR 221D
ENCODING 8733
SWIDTH 1080 0
DWIDTH 18 0
BBX 18 18 0 -3
BITMAP
000000
000000
000000
000000
000000
1E0F00
211080
40A000
404000
40A000
211080
1E0F00
000000
000000
000000
000000
000000
000000
ENDCHAR
STARTCHAR 221E
ENCODING 8734
SWIDTH 1080 0
DWIDTH 18 0
BBX 18 18 0 -3
BITMAP
000000
000000
000000
000000
000000
3C1E00
422100
814080
808080
814080
422100
3C1E00
000000
000000
000000
000000
000000
000000
ENDCHAR
STARTCHAR 221F
ENCODING 8735
SWIDTH 1080 0
DWIDTH 18 0
BBX 18 18 0 -3
BITMAP
000000
200000
200000
200000
200000
200000
200000
200000
200000
200000
200000
200000
200000
200000
200000
3FFF00
000000
000000
ENDCHAR
STARTCHAR 2220
ENCODING 8736
SWIDTH 1080 0
DWIDTH 18 0
BBX 18 18 0 -3
BITMAP
000000
000100
000200
000400
000800
001000
002000
004000
008000
010000
020000
040000
080000
100000
200000
7FFF00
000000
000000
ENDCHAR
STARTCHAR 2225
ENCODING 8741
SWIDTH 1080 0
DWIDTH 18 0
BBX 18 18 0 -3
BITMAP
012000
012000
012000
012000
012000
012000
012000
012000
012000
012000
012000
012000
012000
012000
012000
012000
012000
000000
ENDCHAR
STARTCHAR 2227
ENCODING 8743
SWIDTH 1080 0
DWIDTH 18 0
BBX 18 18 0 -3
BITMAP
008000
008000
014000
014000
022000
022000
041000
041000
080800
080800
100400
100400
200200
200200
400100
400100
000000
000000
ENDCHAR
STARTCHAR 2228
ENCODING 8744
SWIDTH 1080 0
DWIDTH 18 0
BBX 18 18 0 -3
BITMAP
000000
400100
400100
200200
200200
100400
100400
080800
080800
041000
041000
022000
022000
014000
014000
008000
008000
000000
ENDCHAR
STARTCHAR 2229
ENCODING 8745
SWIDTH 1080 0
DWIDTH 18 0
BBX 18 18 0 -3
BITMAP
000000
00C000
033000
040800
080400
080400
100200
100200
100200
100200
100200
100200
100200
100200
100200
100200
100200
000000
ENDCHAR
STARTCHAR 222A
ENCODING 8746
SWIDTH 1080 0
DWIDTH 18 0
BBX 18 18 0 -3
BITMAP
000000
100200
100200
100200
100200
100200
100200
100200
100200
100200
100200
100200
080400
080400
040800
033000
00C000
000000
ENDCHAR
STARTCHAR 222B
ENCODING 8747
SWIDTH 1080 0
DWIDTH 18 0
BBX 18 18 0 -3
BITMAP
01C000
022000
026000
020000
030000
010000
010000
018000
018000
00C000
00C000
004000
004000
006000
002000
032000
022000
01C000
ENDCHAR
STARTCHAR 222C
ENCODING 8748
SWIDTH 1080 0
DWIDTH 18 0
BBX 18 18 0 -3
BITMAP
0E3800
114400
134C00
104000
186000
082000
082000
0C3000
0C3000
061800
061800
020800
020800
030C00
010400
196400
114400
0E3800
ENDCHAR
STARTCHAR 222E
ENCODING 8750
SWIDTH 1080 0
DWIDTH 18 0
BBX 18 18 0 -3
BITMAP
01C000
022000
026000
020000
030000
010000
01C000
03A000
049000
04D000
026000
01C000
004000
006000
002000
032000
022000
01C000
ENDCHAR
STARTCHAR 2234
ENCODING 8756
SWIDTH 1080 0
DWIDTH 18 0
BBX 18 18 0 -3
BITMAP
000000
000000
000000
00C000
00C000
000000
000000
000000
000000
000000
000000
180600
180600
000000
000000
000000
000000
000000
ENDCHAR
STARTCHAR 2235
ENCODING 8757
SWIDTH 1080 0
DWIDTH 18 0
BBX 18 18 0 -3
BITMAP
000000
000000
000000
000000
180600
180600
000000
000000
000000
000000
000000
000000
00C000
00C000
000000
000000
000000
000000
ENDCHAR
STARTCHAR 223D
ENCODING 8765
SWIDTH 1080 0
DWIDTH 18 0
BBX 18 18 0 -3
BITMAP
000000
000000
000000
000000
000000
1C1C00
222200
404100
408100
410100
222200
1C1C00
000000
000000
000000
000000
000000
000000
ENDCHAR
STARTCHAR 2252
ENCODING 8786
SWIDTH 1080 0
DWIDTH 18 0
BBX 18 18 0 -3
BITMAP
000000
000000
0C0000
0C0000
000000
000000
3FFF00
000000
000000
000000
3FFF00
000000
000000
000C00
000C00
000000
000000
000000
ENDCHAR
STARTCHAR 2260
ENCODING 8800
SWIDTH 1080 0
DWIDTH 18 0
BBX 18 18 0 -3
BITMAP
000000
000000
000000
002000
002000
004000
1FFE00
004000
008000
008000
1FFE00
008000
010000
010000
000000
000000
000000
000000
ENDCHAR
STARTCHAR 2261
ENCODING 8801
SWIDTH 1080 0
DWIDTH 18 0
BBX 18 18 0 -3
BITMAP
000000
000000
000000
000000
3FFF00
000000
000000
000000
3FFF00
000000
000000
000000
3FFF00
000000
000000
000000
000000
000000
ENDCHAR
STARTCHAR 2266
ENCODING 8806
SWIDTH 1080 0
DWIDTH 18 0
BBX 18 18 0 -3
BITMAP
000000
000700
003800
01C000
0E0000
300000
0E0000
01C000
003800
000700
000000
000000
3FFF00
000000
3FFF00
000000
000000
000000
ENDCHAR
STARTCHAR 2267
ENCODING 8807
SWIDTH 1080 0
DWIDTH 18 0
BBX 18 18 0 -3
BITMAP
000000
380000
070000
00E000
001C00
000300
001C00
00E000
070000
380000
000000
000000
3FFF00
000000
3FFF00
000000
000000
000000
ENDCHAR
STARTCHAR 226A
ENCODING 8810
SWIDTH 1080 0
DWIDTH 18 0
BBX 18 18 0 -3
BITMAP
000880
003100
004600
018800
023000
044000
198000
220000
440000
220000
198000
044000
023000
018800
004600
003100
000880
000000
ENDCHAR
STARTCHAR 226B
ENCODING 8811
SWIDTH 1080 0
DWIDTH 18 0
BBX 18 18 0 -3
BITMAP
440000
230000
188000
046000
031000
008800
006600
001100
000880
001100
006600
008800
033000
044000
188000
230000
440000
000000
ENDCHAR
STARTCHAR 2282
ENCODING 8834
SWIDTH 1080 0
DWIDTH 18 0
BBX 18 18 0 -3
BITMAP
000000
000000
03FF80
0C0000
100000
200000
200000
400000
400000
400000
200000
200000
100000
0C0000
03FF80
000000
000000
000000
ENDCHAR
STARTCHAR 2283
ENCODING 8835
SWIDTH 1080 0
DWIDTH 18 0
BBX 18 18 0 -3
BITMAP
000000
000000
7FF000
000C00
000200
000100
000100
000080
000080
000080
000100
000100
000200
000C00
7FF000
000000
000000
000000
ENDCHAR
STARTCHAR 2286
ENCODING 8838
SWIDTH 1080 0
DWIDTH 18 0
BBX 18 18 0 -3
BITMAP
000000
07FF80
180000
200000
200000
400000
400000
400000
200000
200000
180000
07FF80
000000
000000
7FFF80
000000
000000
000000
ENDCHAR
STARTCHAR 2287
ENCODING 8839
SWIDTH 1080 0
DWIDTH 18 0
BBX 18 18 0 -3
BITMAP
000000
7FF800
000600
000100
000100
000080
000080
000080
000100
000100
000600
7FF800
000000
000000
7FFF80
000000
000000
000000
ENDCHAR
STARTCHAR 22A5
ENCODING 8869
SWIDTH 1080 0
DWIDTH 18 0
BBX 18 18 0 -3
BITMAP
000000
008000
008000
008000
008000
008000
008000
008000
008000
008000
008000
008000
008000
008000
008000
7FFF00
000000
000000
ENDCHAR
STARTCHAR 22BF
ENCODING 8895
SWIDTH 1080 0
DWIDTH 18 0
BBX 18 18 0 -3
BITMAP
000000
000100
000300
000500
000900
001100
002100
004100
008100
010100
020100
040100
080100
100100
200100
7FFF00
000000
000000
ENDCHAR
STARTCHAR 2312
ENCODING 8978
SWIDTH 1080 0
DWIDTH 18 0
BBX 18 18 0 -3
BITMAP
000000
03F000
0C0C00
100200
200100
400080
400080
000000
000000
000000
000000
000000
000000
000000
000000
000000
000000
000000
ENDCHAR
STARTCHAR 2460
ENCODING 9312
SWIDTH 1080 0
DWIDTH 18 0
BBX 18 18 0 -3
BITMAP
03E000
0C1800
100400
208200
438100
408100
808080
808080
808080
808080
808080
408100
408100
23E200
100400
0C1800
03E000
000000
ENDCHAR
STARTCHAR 2461
ENCODING 9313
SWIDTH 1080 0
DWIDTH 18 0
BBX 18 18 0 -3
BITMAP
03E000
0C1800
100400
21C200
422100
441100
861080
802080
802080
804080
808080
410100
421100
27F200
100400
0C1800
03E000
000000
ENDCHAR
STARTCHAR 2462
ENCODING 9314
SWIDTH 1080 0
DWIDTH 18 0
BBX 18 18 0 -3
BITMAP
03E000
0C1800
100400
23E200
441100
461100
802080
80C080
802080
801080
861080
441100
422100
21C200
100400
0C1800
03E000
000000
ENDCHAR
STARTCHAR 2463
ENCODING 9315
SWIDTH 1080 0
DWIDTH 18 0
BBX 18 18 0 -3
BITMAP
03E000
0C1800
100400
204200
40C100
414100
814080
824080
844080
844080
8FF880
404100
404100
21F200
100400
0C1800
03E000
000000
ENDCHAR
STARTCHAR 2464
ENCODING 9316
SWIDTH 1080 0
DWIDTH 18 0
BBX 18 18 0 -3
BITMAP
03E000
0C1800
100400
23F200
420100
420100
840080
87C080
842080
801080
801080
461100
442100
23C200
100400
0C1800
03E000
000000
ENDCHAR
STARTCHAR 2465
ENCODING 9317
SWIDTH 1080 0
DWIDTH 18 0
BBX 18 18 0 -3
BITMAP
03E000
0C1800
100400
21C200
423100
441100
840080
85C080
862080
841080
841080
441100
422100
21C200
100400
0C1800
03E000
000000
ENDCHAR
STARTCHAR 2466
ENCODING 9318
SWIDTH 1080 0
DWIDTH 18 0
BBX 18 18 0 -3
BITMAP
03E000
0C1800
100400
27F200
441100
442100
802080
804080
804080
804080
808080
408100
408100
208200
100400
0C1800
03E000
000000
ENDCHAR
STARTCHAR 2467
ENCODING 9319
SWIDTH 1080 0
DWIDTH 18 0
BBX 18 18 0 -3
BITMAP
03E000
0C1800
100400
21C200
422100
441100
822080
81C080
822080
841080
841080
441100
422100
21C200
100400
0C1800
03E000
000000
ENDCHAR
STARTCHAR 2468
ENCODING 9320
SWIDTH 1080 0
DWIDTH 18 0
BBX 18 18 0 -3
BITMAP
03E000
0C1800
100400
21C200
422100
441100
841080
841080
823080
81D080
801080
441100
422100
21C200
100400
0C1800
03E000
000000
ENDCHAR
STARTCHAR 2469
ENCODING 9321
SWIDTH 1080 0
DWIDTH 18 0
BBX 18 18 0 -3
BITMAP
03E000
0C1800
100400
247200
4C8900
448900
848880
848880
848880
848880
848880
448900
448900
2E7200
100400
0C1800
03E000
000000
ENDCHAR
STARTCHAR 246A
ENCODING 9322
SWIDTH 1080 0
DWIDTH 18 0
BBX 18 18 0 -3
BITMAP
03E000
0C1800
100400
221200
4E7100
421100
821080
821080
821080
821080
821080
421100
421100
273A00
100400
0C1800
03E000
000000
ENDCHAR
STARTCHAR 246B
ENCODING 9323
SWIDTH 1080 0
DWIDTH 18 0
BBX 18 18 0 -3
BITMAP
03E000
0C1800
100400
247200
5C8900
448900
84C880
841080
841080
842080
842080
444100
448900
2EFA00
100400
0C1800
03E000
000000
ENDCHAR
STARTCHAR 246C
ENCODING 9324
SWIDTH 1080 0
DWIDTH 18 0
BBX 18 18 0 -3
BITMAP
03E000
0C1800
100400
247200
5C8900
458900
840880
847080
840880
840880
858880
450900
449100
2E6200
100400
0C1800
03E000
000000
ENDCHAR
STARTCHAR 246D
ENCODING 9325
SWIDTH 1080 0
DWIDTH 18 0
BBX 18 18 0 -3
BITMAP
03E000
0C1800
100400
241200
5C3100
443100
845080
845080
849080
849080
85FC80
441100
441100
2E3A00
100400
0C1800
03E000
000000
ENDCHAR
STARTCHAR 246E
ENCODING 9326
SWIDTH 1080 0
DWIDTH 18 0
BBX 18 18 0 -3
BITMAP
03E000
0C1800
100400
24FA00
5C8100
448100
848080
84E080
849080
840880
840880
44C900
449100
2E6200
100400
0C1800
03E000
000000
ENDCHAR
STARTCHAR 246F
ENCODING 9327
SWIDTH 1080 0
DWIDTH 18 0
BBX 18 18 0 -3
BITMAP
03E000
0C1800
100400
243200
5C4900
448100
848080
84B080
84C880
848880
848880
448900
448900
2E7200
100400
0C1800
03E000
000000
ENDCHAR
STARTCHAR 2470
ENCODING 9328
SWIDTH 1080 0
DWIDTH 18 0
BBX 18 18 0 -3
BITMAP
03E000
0C1800
100400
24FA00
5C8900
448900
841080
841080
841080
842080
842080
442100
442100
2E2200
100400
0C1800
03E000
000000
ENDCHAR
STARTCHAR 2471
ENCODING 9329
SWIDTH 1080 0
DWIDTH 18 0
BBX 18 18 0 -3
BITMAP
03E000
0C1800
100400
247200
5C8900
448900
848880
847080
848880
848880
848880
448900
448900
2E7200
100400
0C1800
03E000
000000
ENDCHAR
STARTCHAR 2472
ENCODING 9330
SWIDTH 1080 0
DWIDTH 18 0
BBX 18 18 0 -3
BITMAP
03E000
0C1800
100400
247200
5C8900
448900
848880
848880
849880
846880
840880
448900
449100
2E6200
100400
0C1800
03E000
000000
ENDCHAR
STARTCHAR 2473
ENCODING 9331
SWIDTH 1080 0
DWIDTH 18 0
BBX 18 18 0 -3
BITMAP
03E000
0C1800
100400
271A00
48A500
48A500
8CA480
812480
812480
822480
842480
442500
48A500
2F9A00
100400
0C1800
03E000
000000
ENDCHAR
STARTCHAR 2500
ENCODING 9472
SWIDTH 1080 0
DWIDTH 18 0
BBX 18 18 0 -3
BITMAP
000000
000000
000000
000000
000000
000000
000000
000000
FFFFC0
000000
000000
000000
000000
000000
000000
000000
000000
000000
ENDCHAR
STARTCHAR 2501
ENCODING 9473
SWIDTH 1080 0
DWIDTH 18 0
BBX 18 18 0 -3
BITMAP
000000
000000
000000
000000
000000
000000
000000
000000
FFFFC0
FFFFC0
000000
000000
000000
000000
000000
000000
000000
000000
ENDCHAR
STARTCHAR 2502
ENCODING 9474
SWIDTH 1080 0
DWIDTH 18 0
BBX 18 18 0 -3
BITMAP
008000
008000
008000
008000
008000
008000
008000
008000
008000
008000
008000
008000
008000
008000
008000
008000
008000
008000
ENDCHAR
STARTCHAR 2503
ENCODING 9475
SWIDTH 1080 0
DWIDTH 18 0
BBX 18 18 0 -3
BITMAP
00C000
00C000
00C000
00C000
00C000
00C000
00C000
00C000
00C000
00C000
00C000
00C000
00C000
00C000
00C000
00C000
00C000
00C000
ENDCHAR
STARTCHAR 250C
ENCODING 9484
SWIDTH 1080 0
DWIDTH 18 0
BBX 18 18 0 -3
BITMAP
000000
000000
000000
000000
000000
000000
000000
000000
00FFC0
008000
008000
008000
008000
008000
008000
008000
008000
008000
ENDCHAR
STARTCHAR 250F
ENCODING 9487
SWIDTH 1080 0
DWIDTH 18 0
BBX 18 18 0 -3
BITMAP
000000
000000
000000
000000
000000
000000
000000
000000
00FFC0
00FFC0
00C000
00C000
00C000
00C000
00C000
00C000
00C000
00C000
ENDCHAR
STARTCHAR 2510
ENCODING 9488
SWIDTH 1080 0
DWIDTH 18 0
BBX 18 18 0 -3
BITMAP
000000
000000
000000
000000
000000
000000
000000
000000
FF8000
008000
008000
008000
008000
008000
008000
008000
008000
008000
ENDCHAR
STARTCHAR 2513
ENCODING 9491
SWIDTH 1080 0
DWIDTH 18 0
BBX 18 18 0 -3
BITMAP
000000
000000
000000
000000
000000
000000
000000
000000
FFC000
FFC000
00C000
00C000
00C000
00C000
00C000
00C000
00C000
00C000
ENDCHAR
STARTCHAR 2514
ENCODING 9492
SWIDTH 1080 0
DWIDTH 18 0
BBX 18 18 0 -3
BITMAP
008000
008000
008000
008000
008000
008000
008000
008000
00FFC0
000000
000000
000000
000000
000000
000000
000000
000000
000000
ENDCHAR
STARTCHAR 2517
ENCODING 9495
SWIDTH 1080 0
DWIDTH 18 0
BBX 18 18 0 -3
BITMAP
00C000
00C000
00C000
00C000
00C000
00C000
00C000
00C000
00FFC0
00FFC0
000000
000000
000000
000000
000000
000000
000000
000000
ENDCHAR
STARTCHAR 2518
ENCODING 9496
SWIDTH 1080 0
DWIDTH 18 0
BBX 18 18 0 -3
BITMAP
008000
008000
008000
008000
008000
008000
008000
008000
FF8000
000000
000000
000000
000000
000000
000000
000000
000000
000000
ENDCHAR
STARTCHAR 251B
ENCODING 9499
SWIDTH 1080 0
DWIDTH 18 0
BBX 18 18 0 -3
BITMAP
00C000
00C000
00C000
00C000
00C000
00C000
00C000
00C000
FFC000
FFC000
000000
000000
000000
000000
000000
000000
000000
000000
ENDCHAR
STARTCHAR 251C
ENCODING 9500
SWIDTH 1080 0
DWIDTH 18 0
BBX 18 18 0 -3
BITMAP
008000
008000
008000
008000
008000
008000
008000
008000
00FFC0
008000
008000
008000
008000
008000
008000
008000
008000
008000
ENDCHAR
STARTCHAR 251D
ENCODING 9501
SWIDTH 1080 0
DWIDTH 18 0
BBX 18 18 0 -3
BITMAP
008000
008000
008000
008000
008000
008000
008000
008000
00FFC0
00FFC0
008000
008000
008000
008000
008000
008000
008000
008000
ENDCHAR
STARTCHAR 2520
ENCODING 9504
SWIDTH 1080 0
DWIDTH 18 0
BBX 18 18 0 -3
BITMAP
00C000
00C000
00C000
00C000
00C000
00C000
00C000
00C000
00FFC0
00C000
00C000
00C000
00C000
00C000
00C000
00C000
00C000
00C000
ENDCHAR
STARTCHAR 2523
ENCODING 9507
SWIDTH 1080 0
DWIDTH 18 0
BBX 18 18 0 -3
BITMAP
00C000
00C000
00C000
00C000
00C000
00C000
00C000
00C000
00FFC0
00FFC0
00C000
00C000
00C000
00C000
00C000
00C000
00C000
00C000
ENDCHAR
STARTCHAR 2524
ENCODING 9508
SWIDTH 1080 0
DWIDTH 18 0
BBX 18 18 0 -3
BITMAP
008000
008000
008000
008000
008000
008000
008000
008000
FF8000
008000
008000
008000
008000
008000
008000
008000
008000
008000
ENDCHAR
STARTCHAR 2525
ENCODING 9509
SWIDTH 1080 0
DWIDTH 18 0
BBX 18 18 0 -3
BITMAP
008000
008000
008000
008000
008000
008000
008000
008000
FF8000
FF8000
008000
008000
008000
008000
008000
008000
008000
008000
ENDCHAR
STARTCHAR 2528
ENCODING 9512
SWIDTH 1080 0
DWIDTH 18 0
BBX 18 18 0 -3
BITMAP
00C000
00C000
00C000
00C000
00C000
00C000
00C000
00C000
FFC000
00C000
00C000
00C000
00C000
00C000
00C000
00C000
00C000
00C000
ENDCHAR
STARTCHAR 252B
ENCODING 9515
SWIDTH 1080 0
DWIDTH 18 0
BBX 18 18 0 -3
BITMAP
00C000
00C000
00C000
00C000
00C000
00C000
00C000
00C000
FFC000
FFC000
00C000
00C000
00C000
00C000
00C000
00C000
00C000
00C000
ENDCHAR
STARTCHAR 252C
ENCODING 9516
SWIDTH 1080 0
DWIDTH 18 0
BBX 18 18 0 -3
BITMAP
000000
000000
000000
000000
000000
000000
000000
000000
FFFFC0
008000
008000
008000
008000
008000
008000
008000
008000
008000
ENDCHAR
STARTCHAR 252F
ENCODING 9519
SWIDTH 1080 0
DWIDTH 18 0
BBX 18 18 0 -3
BITMAP
000000
000000
000000
000000
000000
000000
000000
000000
FFFFC0
FFFFC0
008000
008000
008000
008000
008000
008000
008000
008000
ENDCHAR
STARTCHAR 2530
ENCODING 9520
SWIDTH 1080 0
DWIDTH 18 0
BBX 18 18 0 -3
BITMAP
000000
000000
000000
000000
000000
000000
000000
000000
FFFFC0
00C000
00C000
00C000
00C000
00C000
00C000
00C000
00C000
00C000
ENDCHAR
STARTCHAR 2533
ENCODING 9523
SWIDTH 1080 0
DWIDTH 18 0
BBX 18 18 0 -3
BITMAP
000000
000000
000000
000000
000000
000000
000000
000000
FFFFC0
FFFFC0
00C000
00C000
00C000
00C000
00C000
00C000
00C000
00C000
ENDCHAR
STARTCHAR 2534
ENCODING 9524
SWIDTH 1080 0
DWIDTH 18 0
BBX 18 18 0 -3
BITMAP
008000
008000
008000
008000
008000
008000
008000
008000
FFFFC0
000000
000000
000000
000000
000000
000000
000000
000000
000000
ENDCHAR
STARTCHAR 2537
ENCODING 9527
SWIDTH 1080 0
DWIDTH 18 0
BBX 18 18 0 -3
BITMAP
008000
008000
008000
008000
008000
008000
008000
008000
FFFFC0
FFFFC0
000000
000000
000000
000000
000000
000000
000000
000000
ENDCHAR
STARTCHAR 2538
ENCODING 9528
SWIDTH 1080 0
DWIDTH 18 0
BBX 18 18 0 -3
BITMAP
00C000
00C000
00C000
00C000
00C000
00C000
00C000
00C000
FFFFC0
000000
000000
000000
000000
000000
000000
000000
000000
000000
ENDCHAR
STARTCHAR 253B
ENCODING 9531
SWIDTH 1080 0
DWIDTH 18 0
BBX 18 18 0 -3
BITMAP
00C000
00C000
00C000
00C000
00C000
00C000
00C000
00C000
FFFFC0
FFFFC0
000000
000000
000000
000000
000000
000000
000000
000000
ENDCHAR
STARTCHAR 253C
ENCODING 9532
SWIDTH 1080 0
DWIDTH 18 0
BBX 18 18 0 -3
BITMAP
008000
008000
008000
008000
008000
008000
008000
008000
FFFFC0
008000
008000
008000
008000
008000
008000
008000
008000
008000
ENDCHAR
STARTCHAR 253F
ENCODING 9535
SWIDTH 1080 0
DWIDTH 18 0
BBX 18 18 0 -3
BITMAP
008000
008000
008000
008000
008000
008000
008000
008000
FFFFC0
FFFFC0
008000
008000
008000
008000
008000
008000
008000
008000
ENDCHAR
STARTCHAR 2542
ENCODING 9538
SWIDTH 1080 0
DWIDTH 18 0
BBX 18 18 0 -3
BITMAP
00C000
00C000
00C000
00C000
00C000
00C000
00C000
00C000
FFFFC0
00C000
00C000
00C000
00C000
00C000
00C000
00C000
00C000
00C000
ENDCHAR
STARTCHAR 254B
ENCODING 9547
SWIDTH 1080 0
DWIDTH 18 0
BBX 18 18 0 -3
BITMAP
00C000
00C000
00C000
00C000
00C000
00C000
00C000
00C000
FFFFC0
FFFFC0
00C000
00C000
00C000
00C000
00C000
00C000
00C000
00C000
ENDCHAR
STARTCHAR 25A0
ENCODING 9632
SWIDTH 1080 0
DWIDTH 18 0
BBX 18 18 0 -3
BITMAP
000000
7FFF00
7FFF00
7FFF00
7FFF00
7FFF00
7FFF00
7FFF00
7FFF00
7FFF00
7FFF00
7FFF00
7FFF00
7FFF00
7FFF00
7FFF00
000000
000000
ENDCHAR
STARTCHAR 25A1
ENCODING 9633
SWIDTH 1080 0
DWIDTH 18 0
BBX 18 18 0 -3
BITMAP
000000
7FFF00
400100
400100
400100
400100
400100
400100
400100
400100
400100
400100
400100
400100
400100
7FFF00
000000
000000
ENDCHAR
STARTCHAR 25B2
ENCODING 9650
SWIDTH 1080 0
DWIDTH 18 0
BBX 18 18 0 -3
BITMAP
000000
00C000
00C000
01E000
01E000
03F000
03F000
07F800
07F800
0FFC00
0FFC00
1FFE00
1FFE00
3FFF00
3FFF00
000000
000000
000000
ENDCHAR
STARTCHAR 25B3
ENCODING 9651
SWIDTH 1080 0
DWIDTH 18 0
BBX 18 18 0 -3
BITMAP
000000
00C000
00C000
012000
012000
021000
021000
040800
040800
080400
080400
100200
100200
200100
3FFF00
000000
000000
000000
ENDCHAR
STARTCHAR 25BC
ENCODING 9660
SWIDTH 1080 0
DWIDTH 18 0
BBX 18 18 0 -3
BITMAP
000000
000000
3FFF00
3FFF00
1FFE00
1FFE00
0FFC00
0FFC00
07F800
07F800
03F000
03F000
01E000
01E000
00C000
00C000
000000
000000
ENDCHAR
STARTCHAR 25BD
ENCODING 9661
SWIDTH 1080 0
DWIDTH 18 0
BBX 18 18 0 -3
BITMAP
000000
000000
3FFF00
200100
100200
100200
080400
080400
040800
040800
021000
021000
012000
012000
00C000
00C000
000000
000000
ENDCHAR
STARTCHAR 25C6
ENCODING 9670
SWIDTH 1080 0
DWIDTH 18 0
BBX 18 18 0 -3
BITMAP
000000
008000
01C000
03E000
07F000
0FF800
1FFC00
3FFE00
7FFF00
7FFF00
3FFE00
1FFC00
0FF800
07F000
03E000
01C000
008000
000000
ENDCHAR
STARTCHAR 25C7
ENCODING 9671
SWIDTH 1080 0
DWIDTH 18 0
BBX 18 18 0 -3
BITMAP
000000
008000
014000
022000
041000
080800
100400
200200
400100
400100
200200
100400
080800
041000
022000
014000
008000
000000
ENDCHAR
STARTCHAR 25CB
ENCODING 9675
SWIDTH 1080 0
DWIDTH 18 0
BBX 18 18 0 -3
BITMAP
000000
01E000
061800
080400
100200
200100
200100
400080
400080
400080
400080
200100
200100
100200
080400
061800
01E000
000000
ENDCHAR
STARTCHAR 25CE
ENCODING 9678
SWIDTH 1080 0
DWIDTH 18 0
BBX 18 18 0 -3
BITMAP
000000
01E000
061800
080400
10C200
233100
240900
440880
480480
480480
440880
240900
233100
10C200
080400
061800
01E000
000000
ENDCHAR
STARTCHAR 25CF
ENCODING 9679
SWIDTH 1080 0
DWIDTH 18 0
BBX 18 18 0 -3
BITMAP
000000
01E000
07F800
0FFC00
1FFE00
3FFF00
3FFF00
7FFF80
7FFF80
7FFF80
7FFF80
3FFF00
3FFF00
1FFE00
0FFC00
07F800
01E000
000000
ENDCHAR
STARTCHAR 25EF
ENCODING 9711
SWIDTH 1080 0
DWIDTH 18 0
BBX 18 18 0 -3
BITMAP
03E000
0C1800
100400
200200
400100
400100
800080
800080
800080
800080
800080
400100
400100
200200
100400
0C1800
03E000
000000
ENDCHAR
STARTCHAR 2605
ENCODING 9733
SWIDTH 1080 0
DWIDTH 18 0
BBX 18 18 0 -3
BITMAP
008000
008000
01C000
01C000
03E000
03E000
FFFF80
7FFF00
3FFE00
1FFC00
0FF800
0FF800
1F7C00
1E3C00
1C1C00
300600
200200
000000
ENDCHAR
STARTCHAR 2606
ENCODING 9734
SWIDTH 1080 0
DWIDTH 18 0
BBX 18 18 0 -3
BITMAP
008000
008000
014000
014000
022000
022000
FC1F80
400100
200200
100400
080800
088800
114400
122400
2C1A00
300600
200200
000000
ENDCHAR
STARTCHAR 2640
ENCODING 9792
SWIDTH 1080 0
DWIDTH 18 0
BBX 18 18 0 -3
BITMAP
000000
01C000
022000
041000
041000
041000
022000
01C000
008000
008000
1FFC00
008000
008000
008000
008000
008000
000000
000000
ENDCHAR
STARTCHAR 2642
ENCODING 9794
SWIDTH 1080 0
DWIDTH 18 0
BBX 18 18 0 -3
BITMAP
000000
000000
000000
003F00
000300
000500
000900
001100
002100
074000
088000
104000
104000
104000
088000
070000
000000
000000
ENDCHAR
STARTCHAR 266A
ENCODING 9834
SWIDTH 1080 0
DWIDTH 18 0
BBX 18 18 0 -3
BITMAP
004000
006000
007000
007000
005800
004C00
004600
004200
004200
004400
004800
004000
07C000
0FC000
0F8000
070000
000000
000000
ENDCHAR
STARTCHAR 266D
ENCODING 9837
SWIDTH 1080 0
DWIDTH 18 0
BBX 18 18 0 -3
BITMAP
020000
020000
020000
020000
020000
020000
020000
026000
029800
030C00
020C00
020C00
021800
023000
026000
038000
020000
000000
ENDCHAR
STARTCHAR 266F
ENCODING 9839
SWIDTH 1080 0
DWIDTH 18 0
BBX 18 18 0 -3
BITMAP
000000
002000
022000
022000
023C00
03E000
1E2000
022000
022000
022000
023C00
03E000
1E2000
022000
022000
022000
020000
000000
ENDCHAR
STARTCHAR 3000
ENCODING 12288
SWIDTH 1080 0
DWIDTH 18 0
BBX 18 18 0 -3
BITMAP
000000
000000
000000
000000
000000
000000
000000
000000
000000
000000
000000
000000
000000
000000
000000
000000
000000
000000
ENDCHAR
STARTCHAR 3001
ENCODING 12289
SWIDTH 1080 0
DWIDTH 18 0
BBX 18 18 0 -3
BITMAP
000000
000000
000000
000000
000000
000000
000000
000000
000000
000000
000000
000000
000000
400000
200000
100000
100000
000000
ENDCHAR
STARTCHAR 3002
ENCODING 12290
SWIDTH 1080 0
DWIDTH 18 0
BBX 18 18 0 -3
BITMAP
000000
000000
000000
000000
000000
000000
000000
000000
000000
000000
000000
000000
000000
300000
480000
480000
300000
000000
ENDCHAR
STARTCHAR 3003
ENCODING 12291
SWIDTH 1080 0
DWIDTH 18 0
BBX 18 18 0 -3
BITMAP
000000
000000
000000
000000
000000
009000
009000
009000
012000
012000
024000
024000
000000
000000
000000
000000
000000
000000
ENDCHAR
STARTCHAR 3005
ENCODING 12293
SWIDTH 1080 0
DWIDTH 18 0
BBX 18 18 0 -3
BITMAP
000000
000000
008000
008000
010000
010000
03FC00
020800
040800
081000
101000
002000
01C000
004000
002000
001000
000000
000000
ENDCHAR
STARTCHAR 3006
ENCODING 12294
SWIDTH 1080 0
DWIDTH 18 0
BBX 18 18 0 -3
BITMAP
000000
000000
000800
000600
000400
000800
031000
04A000
084000
08A000
111000
121000
240000
280000
300000
200000
000000
000000
ENDCHAR
STARTCHAR 3007
ENCODING 12295
SWIDTH 1080 0
DWIDTH 18 0
BBX 18 18 0 -3
BITMAP
000000
01E000
061800
080400
100200
200100
200100
400080
400080
400080
400080
200100
200100
100200
080400
061800
01E000
000000
ENDCHAR
STARTCHAR 3008
ENCODING 12296
SWIDTH 1080 0
DWIDTH 18 0
BBX 18 18 0 -3
BITMAP
000080
000100
000200
000400
000800
001000
002000
004000
008000
004000
002000
001000
000800
000400
000200
000100
000080
000000
ENDCHAR
STARTCHAR 3009
ENCODING 12297
SWIDTH 1080 0
DWIDTH 18 0
BBX 18 18 0 -3
BITMAP
400000
200000
100000
080000
040000
020000
010000
008000
004000
008000
010000
020000
040000
080000
100000
200000
400000
000000
ENDCHAR
STARTCHAR 300A
ENCODING 12298
SWIDTH 1080 0
DWIDTH 18 0
BBX 18 18 0 -3
BITMAP
000480
000900
001200
002400
004800
009000
012000
024000
048000
024000
012000
009000
004800
002400
001200
000900
000480
000000
ENDCHAR
STARTCHAR 300B
ENCODING 12299
SWIDTH 1080 0
DWIDTH 18 0
BBX 18 18 0 -3
BITMAP
480000
240000
120000
090000
048000
024000
012000
009000
004800
009000
012000
024000
048000
090000
120000
240000
480000
000000
ENDCHAR
STARTCHAR 300C
ENCODING 12300
SWIDTH 1080 0
DWIDTH 18 0
BBX 18 18 0 -3
BITMAP
000F00
000800
000800
000800
000800
000800
000800
000800
000800
000800
000800
000800
000000
000000
000000
000000
000000
000000
ENDCHAR
STARTCHAR 300D
ENCODING 12301
SWIDTH 1080 0
DWIDTH 18 0
BBX 18 18 0 -3
BITMAP
000000
000000
000000
000000
000000
040000
040000
040000
040000
040000
040000
040000
040000
040000
040000
040000
3C0000
000000
ENDCHAR
STARTCHAR 300E
ENCODING 12302
SWIDTH 1080 0
DWIDTH 18 0
BBX 18 18 0 -3
BITMAP
003F80
002080
002F80
002800
002800
002800
002800
002800
002800
002800
002800
002800
002800
003800
000000
000000
000000
000000
ENDCHAR
STARTCHAR 300F
ENCODING 12303
SWIDTH 1080 0
DWIDTH 18 0
BBX 18 18 0 -3
BITMAP
000000
000000
000000
000000
070000
050000
050000
050000
050000
050000
050000
050000
050000
050000
7D0000
410000
7F0000
000000
ENDCHAR
STARTCHAR 3010
ENCODING 12304
SWIDTH 1080 0
DWIDTH 18 0
BBX 18 18 0 -3
BITMAP
000F00
000E00
000C00
000C00
000800
000800
000800
000800
000800
000800
000800
000800
000800
000C00
000C00
000E00
000F00
000000
ENDCHAR
STARTCHAR 3011
ENCODING 12305
SWIDTH 1080 0
DWIDTH 18 0
BBX 18 18 0 -3
BITMAP
3C0000
1C0000
0C0000
0C0000
040000
040000
040000
040000
040000
040000
040000
040000
040000
0C0000
0C0000
1C0000
3C0000
000000
ENDCHAR
STARTCHAR 3012
ENCODING 12306
SWIDTH 1080 0
DWIDTH 18 0
BBX 18 18 0 -3
BITMAP
000000
000000
3FFE00
000000
000000
000000
000000
3FFE00
008000
008000
008000
008000
008000
008000
008000
008000
000000
000000
ENDCHAR
STARTCHAR 3013
ENCODING 12307
SWIDTH 1080 0
DWIDTH 18 0
BBX 18 18 0 -3
BITMAP
000000
000000
000000
000000
000000
1FFE00
1FFE00
000000
000000
000000
1FFE00
1FFE00
000000
000000
000000
000000
000000
000000
ENDCHAR
STARTCHAR 3014
ENCODING 12308
SWIDTH 1080 0
DWIDTH 18 0
BBX 18 18 0 -3
BITMAP
000300
000C00
001000
001000
001000
001000
001000
001000
001000
001000
001000
001000
001000
001000
001000
000C00
000300
000000
ENDCHAR
STARTCHAR 3015
ENCODING 12309
SWIDTH 1080 0
DWIDTH 18 0
BBX 18 18 0 -3
BITMAP
300000
0C0000
020000
020000
020000
020000
020000
020000
020000
020000
020000
020000
020000
020000
020000
0C0000
300000
000000
ENDCHAR
STARTCHAR 301C
ENCODING 12316
SWIDTH 1080 0
DWIDTH 18 0
BBX 18 18 0 -3
BITMAP
000000
000000
000000
000000
000000
000000
000000
0E0000
318080
406300
001C00
000000
000000
000000
000000
000000
000000
000000
ENDCHAR
STARTCHAR 301D
ENCODING 12317
SWIDTH 1080 0
DWIDTH 18 0
BBX 18 18 0 -3
BITMAP
000000
000D80
000900
001B00
001200
000000
000000
000000
000000
000000
000000
000000
000000
000000
000000
000000
000000
000000
ENDCHAR
STARTCHAR 301F
ENCODING 12319
SWIDTH 1080 0
DWIDTH 18 0
BBX 18 18 0 -3
BITMAP
000000
000000
000000
000000
000000
000000
000000
000000
000000
000000
000000
000000
000000
360000
240000
6C0000
480000
000000
ENDCHAR
STARTCHAR 3041
ENCODING 12353
SWIDTH 1080 0
DWIDTH 18 0
BBX 18 18 0 -3
BITMAP
000000
000000
000000
000000
000000
020000
020000
0A6000
078000
022000
03F000
064800
0A4400
118400
110400
0E8800
003000
000000
ENDCHAR
STARTCHAR 3042
ENCODING 12354
SWIDTH 1080 0
DWIDTH 18 0
BBX 18 18 0 -3
BITMAP
000000
040000
020000
223000
1FC000
021000
021000
027000
03AC00
064200
0A4100
128100
228100
210100
230200
1C8400
001800
000000
ENDCHAR
STARTCHAR 3043
ENCODING 12355
SWIDTH 1080 0
DWIDTH 18 0
BBX 18 18 0 -3
BITMAP
000000
000000
000000
000000
000000
000000
000000
080000
081000
080800
080400
088400
050C00
060000
020000
000000
000000
000000
ENDCHAR
STARTCHAR 3044
ENCODING 12356
SWIDTH 1080 0
DWIDTH 18 0
BBX 18 18 0 -3
BITMAP
000000
000000
000000
200000
101000
100800
200400
200200
200200
200100
210100
220700
120000
140000
0C0000
040000
000000
000000
ENDCHAR
STARTCHAR 3045
ENCODING 12357
SWIDTH 1080 0
DWIDTH 18 0
BBX 18 18 0 -3
BITMAP
000000
000000
000000
000000
000000
000000
038000
006000
000000
04E000
031000
001000
001000
002000
002000
004000
018000
000000
ENDCHAR
STARTCHAR 3046
ENCODING 12358
SWIDTH 1080 0
DWIDTH 18 0
BBX 18 18 0 -3
BITMAP
000000
038000
006000
008000
000000
01E000
161000
080800
000800
000800
000800
001000
001000
002000
004000
008000
010000
000000
ENDCHAR
STARTCHAR 3047
ENCODING 12359
SWIDTH 1080 0
DWIDTH 18 0
BBX 18 18 0 -3
BITMAP
000000
000000
000000
000000
000000
010000
00C000
000000
04F000
034000
008000
010000
028000
044000
084000
083C00
000000
000000
ENDCHAR
STARTCHAR 3048
ENCODING 12360
SWIDTH 1080 0
DWIDTH 18 0
BBX 18 18 0 -3
BITMAP
000000
030000
00E000
010000
000000
08F800
071000
002000
004000
008000
01C000
022000
042000
082000
102000
201F00
000000
000000
ENDCHAR
STARTCHAR 3049
ENCODING 12361
SWIDTH 1080 0
DWIDTH 18 0
BBX 18 18 0 -3
BITMAP
000000
000000
000000
000000
000000
040000
020800
126400
0F8200
020000
027000
038800
060400
0A0400
124800
0E3000
000000
000000
ENDCHAR
STARTCHAR 304A
ENCODING 12362
SWIDTH 1080 0
DWIDTH 18 0
BBX 18 18 0 -3
BITMAP
000000
040000
020000
020600
126100
0F8380
020080
020000
020000
027C00
038200
060100
1A0100
320100
0A2200
061C00
020000
000000
ENDCHAR
STARTCHAR 304B
ENCODING 12363
SWIDTH 1080 0
DWIDTH 18 0
BBX 18 18 0 -3
BITMAP
000000
020000
010000
010000
020400
03C200
3E2100
042100
042080
082780
082080
102000
102000
122000
214000
20C000
008000
000000
ENDCHAR
STARTCHAR 304C
ENCODING 12364
SWIDTH 1080 0
DWIDTH 18 0
BBX 18 18 0 -3
BITMAP
000000
040100
020480
020200
040800
078400
7C4200
084200
084100
104F00
104100
204000
204000
244000
428000
418000
010000
000000
ENDCHAR
STARTCHAR 304D
ENCODING 12365
SWIDTH 1080 0
DWIDTH 18 0
BBX 18 18 0 -3
BITMAP
000000
00C000
004000
084C00
07F000
002000
002100
101E00
0FF000
000800
000800
03F400
0C0C00
080000
080000
060000
01F800
000000
ENDCHAR
STARTCHAR 304E
ENCODING 12366
SWIDTH 1080 0
DWIDTH 18 0
BBX 18 18 0 -3
BITMAP
000000
018100
008480
109A00
0FE000
004000
004200
203C00
1FE000
001000
001000
07E800
181800
100000
100000
0C0000
03F000
000000
ENDCHAR
STARTCHAR 304F
ENCODING 12367
SWIDTH 1080 0
DWIDTH 18 0
BBX 18 18 0 -3
BITMAP
000000
002000
001000
002000
004000
008000
010000
020000
040000
040000
020000
010000
008000
004000
002000
001000
001000
000000
ENDCHAR
STARTCHAR 3050
ENCODING 12368
SWIDTH 1080 0
DWIDTH 18 0
BBX 18 18 0 -3
BITMAP
000000
002000
001000
002000
004400
009200
010800
020000
040000
040000
020000
010000
008000
004000
002000
001000
001000
000000
ENDCHAR
STARTCHAR 3051
ENCODING 12369
SWIDTH 1080 0
DWIDTH 18 0
BBX 18 18 0 -3
BITMAP
000000
001000
100800
100800
100900
210E00
20F800
200800
200800
200800
200800
200800
280800
281000
101000
102000
004000
000000
ENDCHAR
STARTCHAR 3052
ENCODING 12370
SWIDTH 1080 0
DWIDTH 18 0
BBX 18 18 0 -3
BITMAP
000080
001240
100900
100800
100900
210E00
20F800
200800
200800
200800
200800
200800
280800
281000
101000
102000
004000
000000
ENDCHAR
STARTCHAR 3053
ENCODING 12371
SWIDTH 1080 0
DWIDTH 18 0
BBX 18 18 0 -3
BITMAP
000000
000000
000000
060000
01F800
006000
018000
000000
000000
000000
000000
100000
100000
100000
0C0000
03FC00
000000
000000
ENDCHAR
STARTCHAR 3054
ENCODING 12372
SWIDTH 1080 0
DWIDTH 18 0
BBX 18 18 0 -3
BITMAP
000000
000100
000480
060200
01F800
006000
018000
000000
000000
000000
000000
100000
100000
100000
0C0000
03FC00
000000
000000
ENDCHAR
STARTCHAR 3055
ENCODING 12373
SWIDTH 1080 0
DWIDTH 18 0
BBX 18 18 0 -3
BITMAP
000000
008000
008000
008000
004000
105C00
0FE000
002000
001000
000800
01E800
061C00
080000
080000
080000
060000
01F000
000000
ENDCHAR
STARTCHAR 3056
ENCODING 12374
SWIDTH 1080 0
DWIDTH 18 0
BBX 18 18 0 -3
BITMAP
000000
008000
008100
008480
004200
105C00
0FE000
002000
001000
000800
01E800
061C00
080000
080000
080000
060000
01F000
000000
ENDCHAR
STARTCHAR 3057
ENCODING 12375
SWIDTH 1080 0
DWIDTH 18 0
BBX 18 18 0 -3
BITMAP
000000
000000
080000
040000
040000
040000
040000
040000
040000
040000
040000
040000
040000
040200
040400
021800
01E000
000000
ENDCHAR
STARTCHAR 3058
ENCODING 12376
SWIDTH 1080 0
DWIDTH 18 0
BBX 18 18 0 -3
BITMAP
000000
000000
080000
040800
042400
041000
040000
040000
040000
040000
040000
040000
040000
040200
040400
021800
01E000
000000
ENDCHAR
STARTCHAR 3059
ENCODING 12377
SWIDTH 1080 0
DWIDTH 18 0
BBX 18 18 0 -3
BITMAP
000000
004000
002000
202700
1FF800
002000
002000
01E000
022000
022000
022000
01E000
002000
002000
004000
004000
018000
000000
ENDCHAR
STARTCHAR 305A
ENCODING 12378
SWIDTH 1080 0
DWIDTH 18 0
BBX 18 18 0 -3
BITMAP
000100
004480
002200
202700
1FF800
002000
002000
01E000
022000
022000
022000
01E000
002000
002000
004000
004000
018000
000000
ENDCHAR
STARTCHAR 305B
ENCODING 12379
SWIDTH 1080 0
DWIDTH 18 0
BBX 18 18 0 -3
BITMAP
000000
002000
001000
081000
041000
041700
44F800
3F1000
041000
045000
043000
041000
040000
040000
020000
01FC00
000000
000000
ENDCHAR
STARTCHAR 305C
ENCODING 12380
SWIDTH 1080 0
DWIDTH 18 0
BBX 18 18 0 -3
BITMAP
000000
002100
001480
081200
041000
041700
44F800
3F1000
041000
045000
043000
041000
040000
040000
020000
01FC00
000000
000000
ENDCHAR
STARTCHAR 305D
ENCODING 12381
SWIDTH 1080 0
DWIDTH 18 0
BBX 18 18 0 -3
BITMAP
000000
000000
027800
019000
002000
004000
018000
021F00
1FF000
004000
008000
008000
010000
010000
010000
008000
007800
000000
ENDCHAR
STARTCHAR 305E
ENCODING 12382
SWIDTH 1080 0
DWIDTH 18 0
BBX 18 18 0 -3
BITMAP
000000
000000
04F100
032480
004200
008000
030000
043E00
3FE000
008000
010000
010000
020000
020000
020000
010000
00F000
000000
ENDCHAR
STARTCHAR 305F
ENCODING 12383
SWIDTH 1080 0
DWIDTH 18 0
BBX 18 18 0 -3
BITMAP
000000
040000
020000
020000
24C000
1F0000
040000
043F00
080200
080400
080000
100000
108000
108000
204000
203F00
200000
000000
ENDCHAR
STARTCHAR 3060
ENCODING 12384
SWIDTH 1080 0
DWIDTH 18 0
BBX 18 18 0 -3
BITMAP
000000
040400
020200
020800
24C400
1F0000
040000
043F00
080200
080400
080000
100000
108000
108000
204000
203F00
200000
000000
ENDCHAR
STARTCHAR 3061
ENCODING 12385
SWIDTH 1080 0
DWIDTH 18 0
BBX 18 18 0 -3
BITMAP
000000
020000
010000
010000
113000
0FC000
020000
020000
020000
047800
058400
060200
000200
000200
000400
001800
03E000
000000
ENDCHAR
STARTCHAR 3062
ENCODING 12386
SWIDTH 1080 0
DWIDTH 18 0
BBX 18 18 0 -3
BITMAP
000000
020100
010480
010200
113000
0FC000
020000
020000
020000
047800
058400
060200
000200
000200
000400
001800
03E000
000000
ENDCHAR
STARTCHAR 3063
ENCODING 12387
SWIDTH 1080 0
DWIDTH 18 0
BBX 18 18 0 -3
BITMAP
000000
000000
000000
000000
000000
000000
000000
000000
000000
08F800
070400
000400
000400
000800
001800
00E000
000000
000000
ENDCHAR
STARTCHAR 3064
ENCODING 12388
SWIDTH 1080 0
DWIDTH 18 0
BBX 18 18 0 -3
BITMAP
000000
000000
000000
000000
00F000
470C00
380200
000100
000100
000100
000200
000400
001800
01E000
000000
000000
000000
000000
ENDCHAR
STARTCHAR 3065
ENCODING 12389
SWIDTH 1080 0
DWIDTH 18 0
BBX 18 18 0 -3
BITMAP
000000
000100
000480
000200
00F000
470C00
380200
000100
000100
000100
000200
000400
001800
01E000
000000
000000
000000
000000
ENDCHAR
STARTCHAR 3066
ENCODING 12390
SWIDTH 1080 0
DWIDTH 18 0
BBX 18 18 0 -3
BITMAP
000000
000000
000E00
21F800
1E2000
004000
008000
008000
010000
010000
010000
010000
010000
008000
004000
003C00
000000
000000
ENDCHAR
STARTCHAR 3067
ENCODING 12391
SWIDTH 1080 0
DWIDTH 18 0
BBX 18 18 0 -3
BITMAP
000000
000000
000E00
21F800
1E2000
004000
008200
008900
010400
010000
010000
010000
010000
008000
004000
003C00
000000
000000
ENDCHAR
STARTCHAR 3068
ENCODING 12392
SWIDTH 1080 0
DWIDTH 18 0
BBX 18 18 0 -3
BITMAP
000000
060000
020000
020000
020800
020400
011C00
016000
018000
020000
040000
080000
080000
080000
040000
03FC00
000000
000000
ENDCHAR
STARTCHAR 3069
ENCODING 12393
SWIDTH 1080 0
DWIDTH 18 0
BBX 18 18 0 -3
BITMAP
000000
060100
020480
020200
020800
020400
011C00
016000
018000
020000
040000
080000
080000
080000
040000
03FC00
000000
000000
ENDCHAR
STARTCHAR 306A
ENCODING 12394
SWIDTH 1080 0
DWIDTH 18 0
BBX 18 18 0 -3
BITMAP
000000
040000
020000
020000
25C800
1E0400
040200
080D00
081000
101000
101000
201000
201000
01F000
021C00
021300
01E000
000000
ENDCHAR
STARTCHAR 306B
ENCODING 12395
SWIDTH 1080 0
DWIDTH 18 0
BBX 18 18 0 -3
BITMAP
000000
200000
100000
100000
10FE00
100400
200800
200000
200000
200000
200000
210000
290000
28C000
103F00
100000
100000
000000
ENDCHAR
STARTCHAR 306C
ENCODING 12396
SWIDTH 1080 0
DWIDTH 18 0
BBX 18 18 0 -3
BITMAP
000000
008000
004000
104000
10F800
134400
148200
088100
188100
150100
250100
260100
223A00
254600
184500
003880
000000
000000
ENDCHAR
STARTCHAR 306D
ENCODING 12397
SWIDTH 1080 0
DWIDTH 18 0
BBX 18 18 0 -3
BITMAP
000000
040000
020000
020000
231C00
1F6200
028100
030100
020100
060100
060100
0A0100
123D00
2A4300
064280
023C80
020000
000000
ENDCHAR
STARTCHAR 306E
ENCODING 12398
SWIDTH 1080 0
DWIDTH 18 0
BBX 18 18 0 -3
BITMAP
000000
000000
000000
01F000
064C00
084200
104200
108100
208100
208100
210100
210200
220200
1C0400
000800
003000
000000
000000
ENDCHAR
STARTCHAR 306F
ENCODING 12399
SWIDTH 1080 0
DWIDTH 18 0
BBX 18 18 0 -3
BITMAP
000000
001000
200800
100800
100800
110B00
10FC00
200800
200800
200800
200800
200800
240800
28F800
290E00
110900
10F000
000000
ENDCHAR
STARTCHAR 3070
ENCODING 12400
SWIDTH 1080 0
DWIDTH 18 0
BBX 18 18 0 -3
BITMAP
000100
001080
200A00
100900
100800
110B00
10FC00
200800
200800
200800
200800
200800
240800
28F800
290E00
110900
10F000
000000
ENDCHAR
STARTCHAR 3071
ENCODING 12401
SWIDTH 1080 0
DWIDTH 18 0
BBX 18 18 0 -3
BITMAP
000300
000480
201480
100B00
100800
110B00
10FC00
200800
200800
200800
200800
200800
240800
28F800
290E00
110900
10F000
000000
ENDCHAR
STARTCHAR 3072
ENCODING 12402
SWIDTH 1080 0
DWIDTH 18 0
BBX 18 18 0 -3
BITMAP
000000
000000
001000
271000
1A0800
040800
040C00
080A00
080900
100800
100800
100800
101000
081000
0C2000
03C000
000000
000000
ENDCHAR
STARTCHAR 3073
ENCODING 12403
SWIDTH 1080 0
DWIDTH 18 0
BBX 18 18 0 -3
BITMAP
000000
000100
001080
271200
1A0900
040800
040C00
080A00
080900
100800
100800
100800
101000
081000
0C2000
03C000
000000
000000
ENDCHAR
STARTCHAR 3074
ENCODING 12404
SWIDTH 1080 0
DWIDTH 18 0
BBX 18 18 0 -3
BITMAP
000300
000480
001480
271300
1A0800
040800
040C00
080A00
080900
100800
100800
100800
101000
081000
0C2000
03C000
000000
000000
ENDCHAR
STARTCHAR 3075
ENCODING 12405
SWIDTH 1080 0
DWIDTH 18 0
BBX 18 18 0 -3
BITMAP
000000
020000
018000
006000
008000
000000
010000
010000
008000
008000
004C00
212300
261080
181180
121000
012000
00C000
000000
ENDCHAR
STARTCHAR 3076
ENCODING 12406
SWIDTH 1080 0
DWIDTH 18 0
BBX 18 18 0 -3
BITMAP
000000
020000
018200
006900
008500
000400
010000
010000
008000
008000
004C00
212300
261080
181180
121000
012000
00C000
000000
ENDCHAR
STARTCHAR 3077
ENCODING 12407
SWIDTH 1080 0
DWIDTH 18 0
BBX 18 18 0 -3
BITMAP
000000
020000
018300
006480
008480
000300
010000
010000
008000
008000
004C00
212300
261080
181180
121000
012000
00C000
000000
ENDCHAR
STARTCHAR 3078
ENCODING 12408
SWIDTH 1080 0
DWIDTH 18 0
BBX 18 18 0 -3
BITMAP
000000
000000
000000
000000
010000
028000
044000
082000
301000
000800
000400
000200
000180
000000
000000
000000
000000
000000
ENDCHAR
STARTCHAR 3079
ENCODING 12409
SWIDTH 1080 0
DWIDTH 18 0
BBX 18 18 0 -3
BITMAP
000000
000000
000400
001200
010800
028000
044000
082000
301000
000800
000400
000200
000180
000000
000000
000000
000000
000000
ENDCHAR
STARTCHAR 307A
ENCODING 12410
SWIDTH 1080 0
DWIDTH 18 0
BBX 18 18 0 -3
BITMAP
000000
000000
000300
000480
010480
028300
044000
082000
301000
000800
000400
000200
000180
000000
000000
000000
000000
000000
ENDCHAR
STARTCHAR 307B
ENCODING 12411
SWIDTH 1080 0
DWIDTH 18 0
BBX 18 18 0 -3
BITMAP
000000
000000
200E00
11F000
100800
100800
100800
210F00
20F800
200800
200800
200800
240800
28F800
290E00
110980
10F000
000000
ENDCHAR
STARTCHAR 307C
ENCODING 12412
SWIDTH 1080 0
DWIDTH 18 0
BBX 18 18 0 -3
BITMAP
000080
000240
200D00
11F000
100800
100800
100800
210F00
20F800
200800
200800
200800
240800
28F800
290E00
110980
10F000
000000
ENDCHAR
STARTCHAR 307D
ENCODING 12413
SWIDTH 1080 0
DWIDTH 18 0
BBX 18 18 0 -3
BITMAP
000180
000240
200E40
11F180
100800
100800
100800
210F00
20F800
200800
200800
200800
240800
28F800
290E00
110980
10F000
000000
ENDCHAR
STARTCHAR 307E
ENCODING 12414
SWIDTH 1080 0
DWIDTH 18 0
BBX 18 18 0 -3
BITMAP
000000
008000
004000
004000
187E00
07C000
004000
084000
07FC00
004000
004000
004000
004000
07E000
085800
084600
078000
000000
ENDCHAR
STARTCHAR 307F
ENCODING 12415
SWIDTH 1080 0
DWIDTH 18 0
BBX 18 18 0 -3
BITMAP
000000
000000
01C000
0E4000
004000
008000
008400
008200
010200
07F400
190E00
220500
220880
240800
181000
002000
004000
000000
ENDCHAR
STARTCHAR 3080
ENCODING 12416
SWIDTH 1080 0
DWIDTH 18 0
BBX 18 18 0 -3
BITMAP
000000
040000
020000
226000
1F8000
020000
020600
020100
1E0180
220200
220000
240400
1C0400
040200
040200
040600
03F800
000000
ENDCHAR
STARTCHAR 3081
ENCODING 12417
SWIDTH 1080 0
DWIDTH 18 0
BBX 18 18 0 -3
BITMAP
000000
002000
002000
102000
10F800
0B4400
0C4200
088100
148100
250100
250100
220100
230200
248200
180C00
003000
000000
000000
ENDCHAR
STARTCHAR 3082
ENCODING 12418
SWIDTH 1080 0
DWIDTH 18 0
BBX 18 18 0 -3
BITMAP
000000
020000
010000
110000
0D0000
03E000
090000
110000
0A0400
07E200
020200
020200
020200
020200
020400
010C00
00F000
000000
ENDCHAR
STARTCHAR 3083
ENCODING 12419
SWIDTH 1080 0
DWIDTH 18 0
BBX 18 18 0 -3
BITMAP
000000
000000
000000
000000
000000
004000
012000
02E000
023C00
11C200
0F0200
010400
009800
008000
004000
004000
004000
000000
ENDCHAR
STARTCHAR 3084
ENCODING 12420
SWIDTH 1080 0
DWIDTH 18 0
BBX 18 18 0 -3
BITMAP
000000
004000
072000
08E000
041C00
046200
038100
4E0100
320200
011C00
010000
008000
008000
008000
004000
004000
004000
000000
ENDCHAR
STARTCHAR 3085
ENCODING 12421
SWIDTH 1080 0
DWIDTH 18 0
BBX 18 18 0 -3
BITMAP
000000
000000
000000
000000
000000
008000
004000
104000
08F000
0B4800
0C4400
084400
0A4400
094800
00F000
008000
010000
000000
ENDCHAR
STARTCHAR 3086
ENCODING 12422
SWIDTH 1080 0
DWIDTH 18 0
BBX 18 18 0 -3
BITMAP
000000
00C000
002000
202000
107800
11A600
222200
242100
282100
2A2100
122200
112400
10F800
004000
004000
008000
010000
000000
ENDCHAR
STARTCHAR 3087
ENCODING 12423
SWIDTH 1080 0
DWIDTH 18 0
BBX 18 18 0 -3
BITMAP
000000
000000
000000
000000
000000
010000
008000
008000
009800
00E000
008000
008000
008000
078000
08E000
089800
070000
000000
ENDCHAR
STARTCHAR 3088
ENCODING 12424
SWIDTH 1080 0
DWIDTH 18 0
BBX 18 18 0 -3
BITMAP
000000
010000
008000
008000
008000
008400
00F800
008000
008000
008000
008000
008000
008000
0FF000
108C00
108200
0F0000
000000
ENDCHAR
STARTCHAR 3089
ENCODING 12425
SWIDTH 1080 0
DWIDTH 18 0
BBX 18 18 0 -3
BITMAP
000000
018000
004000
00F000
030000
040000
040000
080000
080000
08F800
0B0400
0C0200
080200
000200
000400
001800
01E000
000000
ENDCHAR
STARTCHAR 308A
ENCODING 12426
SWIDTH 1080 0
DWIDTH 18 0
BBX 18 18 0 -3
BITMAP
000000
080000
046000
049000
050800
090800
0A0800
0A0800
0A0800
0C0800
040800
041000
001000
002000
002000
004000
008000
000000
ENDCHAR
STARTCHAR 308B
ENCODING 12427
SWIDTH 1080 0
DWIDTH 18 0
BBX 18 18 0 -3
BITMAP
000000
000000
08F000
071000
002000
004000
008000
010000
02F000
070C00
080400
100200
200200
038400
044400
043800
03E000
000000
ENDCHAR
STARTCHAR 308C
ENCODING 12428
SWIDTH 1080 0
DWIDTH 18 0
BBX 18 18 0 -3
BITMAP
000000
080000
040000
040000
043800
0EC400
750400
060400
040400
0C0400
0C0400
140400
240400
540480
0C0480
040300
040000
000000
ENDCHAR
STARTCHAR 308D
ENCODING 12429
SWIDTH 1080 0
DWIDTH 18 0
BBX 18 18 0 -3
BITMAP
000000
000000
047000
039000
002000
004000
008000
010000
027000
078C00
0C0400
100200
000200
000200
000400
001800
01E000
000000
ENDCHAR
STARTCHAR 308E
ENCODING 12430
SWIDTH 1080 0
DWIDTH 18 0
BBX 18 18 0 -3
BITMAP
000000
000000
000000
000000
040000
020000
020000
030000
0E7800
038400
020200
060200
0A0200
120400
060C00
023000
000000
000000
ENDCHAR
STARTCHAR 308F
ENCODING 12431
SWIDTH 1080 0
DWIDTH 18 0
BBX 18 18 0 -3
BITMAP
000000
040000
020000
020000
020000
270000
1A7C00
038200
030100
060100
0E0100
0A0100
120100
220200
4A0C00
067000
020000
000000
ENDCHAR
STARTCHAR 3090
ENCODING 12432
SWIDTH 1080 0
DWIDTH 18 0
BBX 18 18 0 -3
BITMAP
000000
000000
09C000
064000
004000
008000
01F800
068600
090200
110100
220100
220100
243100
284A00
104600
003800
000000
000000
ENDCHAR
STARTCHAR 3091
ENCODING 12433
SWIDTH 1080 0
DWIDTH 18 0
BBX 18 18 0 -3
BITMAP
000000
000000
04F000
032000
004000
00C000
033000
040800
080800
01C800
025000
01E000
008000
030E00
0D1100
10A180
204280
000000
ENDCHAR
STARTCHAR 3092
ENCODING 12434
SWIDTH 1080 0
DWIDTH 18 0
BBX 18 18 0 -3
BITMAP
000000
020000
010000
116000
0F8000
010000
020000
038200
064E00
0C7000
10C000
214000
024000
040000
040000
060000
01FC00
000000
ENDCHAR
STARTCHAR 3093
ENCODING 12435
SWIDTH 1080 0
DWIDTH 18 0
BBX 18 18 0 -3
BITMAP
000000
000000
010000
008000
008000
010000
010000
020000
020000
04C000
052000
0A2080
0C2080
182100
102100
202200
201C00
000000
ENDCHAR
STARTCHAR 3094
ENCODING 12436
SWIDTH 1080 0
DWIDTH 18 0
BBX 18 18 0 -3
BITMAP
000000
038000
006100
008480
000200
01E000
161000
080800
000800
000800
000800
001000
001000
002000
004000
008000
010000
000000
ENDCHAR
STARTCHAR 309B
ENCODING 12443
SWIDTH 1080 0
DWIDTH 18 0
BBX 18 18 0 -3
BITMAP
000000
100000
080000
400000
200000
000000
000000
000000
000000
000000
000000
000000
000000
000000
000000
000000
000000
000000
ENDCHAR
STARTCHAR 309C
ENCODING 12444
SWIDTH 1080 0
DWIDTH 18 0
BBX 18 18 0 -3
BITMAP
000000
600000
900000
900000
600000
000000
000000
000000
000000
000000
000000
000000
000000
000000
000000
000000
000000
000000
ENDCHAR
STARTCHAR 309D
ENCODING 12445
SWIDTH 1080 0
DWIDTH 18 0
BBX 18 18 0 -3
BITMAP
000000
000000
000000
000000
000000
060000
018000
004000
002000
001000
007000
018000
000000
000000
000000
000000
000000
000000
ENDCHAR
STARTCHAR 309E
ENCODING 12446
SWIDTH 1080 0
DWIDTH 18 0
BBX 18 18 0 -3
BITMAP
000000
000000
000000
000400
001200
060800
018000
004000
002000
001000
007000
018000
000000
000000
000000
000000
000000
000000
ENDCHAR
STARTCHAR 30A1
ENCODING 12449
SWIDTH 1080 0
DWIDTH 18 0
BBX 18 18 0 -3
BITMAP
000000
000000
000000
000000
000000
000000
007C00
0F8800
001000
00A000
00C000
008000
008000
010000
010000
020000
000000
000000
ENDCHAR
STARTCHAR 30A2
ENCODING 12450
SWIDTH 1080 0
DWIDTH 18 0
BBX 18 18 0 -3
BITMAP
000000
000000
000000
107F00
0F8200
000400
009800
006000
004000
004000
004000
008000
008000
010000
010000
020000
040000
000000
ENDCHAR
STARTCHAR 30A3
ENCODING 12451
SWIDTH 1080 0
DWIDTH 18 0
BBX 18 18 0 -3
BITMAP
000000
000000
000000
000000
000000
000000
001000
002000
004000
008000
018000
068000
188000
008000
008000
008000
008000
000000
ENDCHAR
STARTCHAR 30A4
ENCODING 12452
SWIDTH 1080 0
DWIDTH 18 0
BBX 18 18 0 -3
BITMAP
000000
000000
000400
000400
000800
001000
002000
004000
00C000
014000
064000
184000
004000
004000
004000
004000
004000
000000
ENDCHAR
STARTCHAR 30A5
ENCODING 12453
SWIDTH 1080 0
DWIDTH 18 0
BBX 18 18 0 -3
BITMAP
000000
000000
000000
000000
000000
008000
008000
00B800
07C800
040800
040800
041000
001000
002000
004000
008000
000000
000000
ENDCHAR
STARTCHAR 30A6
ENCODING 12454
SWIDTH 1080 0
DWIDTH 18 0
BBX 18 18 0 -3
BITMAP
000000
010000
008000
008000
00FE00
1F8200
100200
100200
100400
100400
100800
000800
001000
002000
004000
008000
030000
000000
ENDCHAR
STARTCHAR 30A7
ENCODING 12455
SWIDTH 1080 0
DWIDTH 18 0
BBX 18 18 0 -3
BITMAP
000000
000000
000000
000000
000000
000000
000000
000000
087800
078000
008000
008000
008000
10FE00
0F8000
000000
000000
000000
ENDCHAR
STARTCHAR 30A8
ENCODING 12456
SWIDTH 1080 0
DWIDTH 18 0
BBX 18 18 0 -3
BITMAP
000000
000000
000000
000000
000000
107C00
0F8000
008000
008000
008000
008000
008000
008000
40FF00
3F0000
000000
000000
000000
ENDCHAR
STARTCHAR 30A9
ENCODING 12457
SWIDTH 1080 0
DWIDTH 18 0
BBX 18 18 0 -3
BITMAP
000000
000000
000000
000000
000000
004000
002000
003E00
0FE000
00A000
00A000
012000
022000
04A000
086000
002000
000000
000000
ENDCHAR
STARTCHAR 30AA
ENCODING 12458
SWIDTH 1080 0
DWIDTH 18 0
BBX 18 18 0 -3
BITMAP
000000
004000
002000
002000
002000
203F00
1FE000
00A000
00A000
012000
012000
022000
042000
082000
30A000
006000
002000
000000
ENDCHAR
STARTCHAR 30AB
ENCODING 12459
SWIDTH 1080 0
DWIDTH 18 0
BBX 18 18 0 -3
BITMAP
000000
010000
008000
008000
008000
10FE00
0F8200
008200
008200
010200
010200
010200
020200
024400
042400
081C00
100800
000000
ENDCHAR
STARTCHAR 30AC
ENCODING 12460
SWIDTH 1080 0
DWIDTH 18 0
BBX 18 18 0 -3
BITMAP
000000
020000
010100
010480
010200
21FC00
1F0400
010400
010400
020400
020400
020400
040400
048800
084800
103800
201000
000000
ENDCHAR
STARTCHAR 30AD
ENCODING 12461
SWIDTH 1080 0
DWIDTH 18 0
BBX 18 18 0 -3
BITMAP
000000
010000
008000
008000
009C00
11E000
0E4000
004000
004000
002F00
21F000
1E2000
002000
001000
001000
001000
001000
000000
ENDCHAR
STARTCHAR 30AE
ENCODING 12462
SWIDTH 1080 0
DWIDTH 18 0
BBX 18 18 0 -3
BITMAP
000000
010100
008480
008200
009C00
11E000
0E4000
004000
004000
002F00
21F000
1E2000
002000
001000
001000
001000
001000
000000
ENDCHAR
STARTCHAR 30AF
ENCODING 12463
SWIDTH 1080 0
DWIDTH 18 0
BBX 18 18 0 -3
BITMAP
000000
000000
008000
008000
009E00
01E200
010200
020400
040400
080800
000800
001000
002000
004000
008000
030000
0C0000
000000
ENDCHAR
STARTCHAR 30B0
ENCODING 12464
SWIDTH 1080 0
DWIDTH 18 0
BBX 18 18 0 -3
BITMAP
000000
000100
010480
010200
013C00
03C400
020400
040800
080800
101000
001000
002000
004000
008000
010000
060000
180000
000000
ENDCHAR
STARTCHAR 30B1
ENCODING 12465
SWIDTH 1080 0
DWIDTH 18 0
BBX 18 18 0 -3
BITMAP
000000
040000
020000
020000
020000
020F00
05F000
041000
081000
102000
202000
004000
004000
008000
010000
020000
040000
000000
ENDCHAR
STARTCHAR 30B2
ENCODING 12466
SWIDTH 1080 0
DWIDTH 18 0
BBX 18 18 0 -3
BITMAP
000000
040100
020480
020200
020000
020F00
05F000
041000
081000
102000
202000
004000
004000
008000
010000
020000
040000
000000
ENDCHAR
STARTCHAR 30B3
ENCODING 12467
SWIDTH 1080 0
DWIDTH 18 0
BBX 18 18 0 -3
BITMAP
000000
000000
000000
000000
107C00
0F8400
000400
000400
000400
000400
000400
000400
107C00
0F8400
000000
000000
000000
000000
ENDCHAR
STARTCHAR 30B4
ENCODING 12468
SWIDTH 1080 0
DWIDTH 18 0
BBX 18 18 0 -3
BITMAP
000000
000100
000480
000200
107C00
0F8400
000400
000400
000400
000400
000400
000400
107C00
0F8400
000000
000000
000000
000000
ENDCHAR
STARTCHAR 30B5
ENCODING 12469
SWIDTH 1080 0
DWIDTH 18 0
BBX 18 18 0 -3
BITMAP
000000
002000
041000
021000
021000
021000
427F80
3F9000
021000
021000
021000
001000
002000
002000
004000
008000
030000
000000
ENDCHAR
STARTCHAR 30B6
ENCODING 12470
SWIDTH 1080 0
DWIDTH 18 0
BBX 18 18 0 -3
BITMAP
000100
002080
041200
021100
021000
021000
427F80
3F9000
021000
021000
021000
001000
002000
002000
004000
008000
030000
000000
ENDCHAR
STARTCHAR 30B7
ENCODING 12471
SWIDTH 1080 0
DWIDTH 18 0
BBX 18 18 0 -3
BITMAP
000000
000000
000000
0C0000
020000
010000
000000
300100
080200
040400
000800
001000
002000
004000
008000
130000
0C0000
000000
ENDCHAR
STARTCHAR 30B8
ENCODING 12472
SWIDTH 1080 0
DWIDTH 18 0
BBX 18 18 0 -3
BITMAP
000000
000000
000200
0C0900
020400
010000
000000
300100
080200
040400
000800
001000
002000
004000
008000
130000
0C0000
000000
ENDCHAR
STARTCHAR 30B9
ENCODING 12473
SWIDTH 1080 0
DWIDTH 18 0
BBX 18 18 0 -3
BITMAP
000000
000000
000000
083C00
07C400
000800
000800
001000
001000
002000
005000
008800
010400
020200
0C0100
300100
000000
000000
ENDCHAR
STARTCHAR 30BA
ENCODING 12474
SWIDTH 1080 0
DWIDTH 18 0
BBX 18 18 0 -3
BITMAP
000100
000480
000200
107800
0F8800
001000
001000
002000
002000
004000
00A000
011000
020800
040400
180200
600200
000000
000000
ENDCHAR
STARTCHAR 30BB
ENCODING 12475
SWIDTH 1080 0
DWIDTH 18 0
BBX 18 18 0 -3
BITMAP
000000
040000
020000
020000
020000
021F00
43E200
3E0400
020800
021000
022000
020000
020000
020000
010000
00FE00
000000
000000
ENDCHAR
STARTCHAR 30BC
ENCODING 12476
SWIDTH 1080 0
DWIDTH 18 0
BBX 18 18 0 -3
BITMAP
000000
040100
020480
020200
020000
021F00
43E200
3E0400
020800
021000
022000
020000
020000
020000
010000
00FE00
000000
000000
ENDCHAR
STARTCHAR 30BD
ENCODING 12477
SWIDTH 1080 0
DWIDTH 18 0
BBX 18 18 0 -3
BITMAP
000000
000000
000400
000200
080200
040200
020400
020400
000400
000800
000800
001000
002000
004000
008000
030000
000000
000000
ENDCHAR
STARTCHAR 30BE
ENCODING 12478
SWIDTH 1080 0
DWIDTH 18 0
BBX 18 18 0 -3
BITMAP
000080
000240
000100
000200
080200
040200
020400
020400
000400
000800
000800
001000
002000
004000
008000
030000
000000
000000
ENDCHAR
STARTCHAR 30BF
ENCODING 12479
SWIDTH 1080 0
DWIDTH 18 0
BBX 18 18 0 -3
BITMAP
000000
000000
010000
008000
00FC00
010400
010400
020800
058800
085000
002000
003000
004000
008000
010000
060000
180000
000000
ENDCHAR
STARTCHAR 30C0
ENCODING 12480
SWIDTH 1080 0
DWIDTH 18 0
BBX 18 18 0 -3
BITMAP
000100
000480
010200
008000
00FC00
010400
010400
020800
058800
085000
002000
003000
004000
008000
010000
060000
180000
000000
ENDCHAR
STARTCHAR 30C1
ENCODING 12481
SWIDTH 1080 0
DWIDTH 18 0
BBX 18 18 0 -3
BITMAP
000000
000000
001800
006000
07C000
004000
004000
207F00
1FC000
004000
004000
004000
008000
008000
010000
020000
0C0000
000000
ENDCHAR
STARTCHAR 30C2
ENCODING 12482
SWIDTH 1080 0
DWIDTH 18 0
BBX 18 18 0 -3
BITMAP
000000
000100
001880
006200
07C100
004000
004000
207F00
1FC000
004000
004000
004000
008000
008000
010000
020000
0C0000
000000
ENDCHAR
STARTCHAR 30C3
ENCODING 12483
SWIDTH 1080 0
DWIDTH 18 0
BBX 18 18 0 -3
BITMAP
000000
000000
000000
000000
000000
000000
000000
010800
088800
048800
041000
001000
002000
004000
008000
010000
000000
000000
ENDCHAR
STARTCHAR 30C4
ENCODING 12484
SWIDTH 1080 0
DWIDTH 18 0
BBX 18 18 0 -3
BITMAP
000000
000000
000400
020200
210200
108200
088400
080400
000400
000800
000800
001000
002000
004000
008000
030000
0C0000
000000
ENDCHAR
STARTCHAR 30C5
ENCODING 12485
SWIDTH 1080 0
DWIDTH 18 0
BBX 18 18 0 -3
BITMAP
000100
000480
000200
020000
210200
108200
088200
080400
000400
000800
000800
001000
002000
004000
008000
030000
0C0000
000000
ENDCHAR
STARTCHAR 30C6
ENCODING 12486
SWIDTH 1080 0
DWIDTH 18 0
BBX 18 18 0 -3
BITMAP
000000
000000
000000
083C00
07C000
000000
000000
203F00
1FC000
004000
004000
004000
008000
008000
010000
020000
0C0000
000000
ENDCHAR
STARTCHAR 30C7
ENCODING 12487
SWIDTH 1080 0
DWIDTH 18 0
BBX 18 18 0 -3
BITMAP
000000
000100
000480
083A00
07C000
000000
000000
203F00
1FC000
004000
004000
004000
008000
008000
010000
020000
0C0000
000000
ENDCHAR
STARTCHAR 30C8
ENCODING 12488
SWIDTH 1080 0
DWIDTH 18 0
BBX 18 18 0 -3
BITMAP
000000
000000
020000
010000
010000
010000
010000
010000
01C000
013000
010800
010400
010000
010000
010000
010000
010000
000000
ENDCHAR
STARTCHAR 30C9
ENCODING 12489
SWIDTH 1080 0
DWIDTH 18 0
BBX 18 18 0 -3
BITMAP
000000
000000
020200
010100
010800
010400
010000
010000
01C000
013000
010800
010400
010000
010000
010000
010000
010000
000000
ENDCHAR
STARTCHAR 30CA
ENCODING 12490
SWIDTH 1080 0
DWIDTH 18 0
BBX 18 18 0 -3
BITMAP
000000
000000
008000
004000
004000
004000
207F00
1FC000
004000
004000
004000
004000
008000
008000
010000
020000
0C0000
000000
ENDCHAR
STARTCHAR 30CB
ENCODING 12491
SWIDTH 1080 0
DWIDTH 18 0
BBX 18 18 0 -3
BITMAP
000000
000000
000000
000000
000000
087800
078000
000000
000000
000000
000000
000000
40FE00
3F0100
000000
000000
000000
000000
ENDCHAR
STARTCHAR 30CC
ENCODING 12492
SWIDTH 1080 0
DWIDTH 18 0
BBX 18 18 0 -3
BITMAP
000000
000000
000000
107C00
0F8400
000800
000800
019000
005000
002000
005000
008800
010400
020400
0C0000
300000
000000
000000
ENDCHAR
STARTCHAR 30CD
ENCODING 12493
SWIDTH 1080 0
DWIDTH 18 0
BBX 18 18 0 -3
BITMAP
000000
010000
008000
004000
003800
0FC800
001000
002000
004000
00D800
014600
064100
184000
004000
004000
004000
004000
000000
ENDCHAR
STARTCHAR 30CE
ENCODING 12494
SWIDTH 1080 0
DWIDTH 18 0
BBX 18 18 0 -3
BITMAP
000000
000000
000000
001000
000800
000800
000800
001000
001000
002000
002000
004000
008000
010000
020000
0C0000
000000
000000
ENDCHAR
STARTCHAR 30CF
ENCODING 12495
SWIDTH 1080 0
DWIDTH 18 0
BBX 18 18 0 -3
BITMAP
000000
000000
000000
000000
040000
021000
020800
020400
040400
040200
080200
080100
100100
200100
400000
000000
000000
000000
ENDCHAR
STARTCHAR 30D0
ENCODING 12496
SWIDTH 1080 0
DWIDTH 18 0
BBX 18 18 0 -3
BITMAP
000000
000000
000100
000480
040200
021000
020800
020400
040400
040200
080200
080100
100100
200100
400000
000000
000000
000000
ENDCHAR
STARTCHAR 30D1
ENCODING 12497
SWIDTH 1080 0
DWIDTH 18 0
BBX 18 18 0 -3
BITMAP
000000
000300
000480
000480
040300
021000
020800
020400
040400
040200
080200
080100
100100
200100
400000
000000
000000
000000
ENDCHAR
STARTCHAR 30D2
ENCODING 12498
SWIDTH 1080 0
DWIDTH 18 0
BBX 18 18 0 -3
BITMAP
000000
000000
100000
080000
080000
080000
080C00
087000
0F8000
080000
080000
080000
080000
080000
040000
03FE00
000000
000000
ENDCHAR
STARTCHAR 30D3
ENCODING 12499
SWIDTH 1080 0
DWIDTH 18 0
BBX 18 18 0 -3
BITMAP
000000
000000
100100
080080
080200
080100
080C00
087000
0F8000
080000
080000
080000
080000
080000
040000
03FE00
000000
000000
ENDCHAR
STARTCHAR 30D4
ENCODING 12500
SWIDTH 1080 0
DWIDTH 18 0
BBX 18 18 0 -3
BITMAP
000000
000300
100480
080480
080300
080000
080C00
087000
0F8000
080000
080000
080000
080000
080000
040000
03FE00
000000
000000
ENDCHAR
STARTCHAR 30D5
ENCODING 12501
SWIDTH 1080 0
DWIDTH 18 0
BBX 18 18 0 -3
BITMAP
000000
000000
000000
000000
20FC00
1F0400
000400
000400
000800
000800
001000
001000
002000
004000
008000
030000
0C0000
000000
ENDCHAR
STARTCHAR 30D6
ENCODING 12502
SWIDTH 1080 0
DWIDTH 18 0
BBX 18 18 0 -3
BITMAP
000100
000480
000200
000000
20FC00
1F0400
000400
000400
000800
000800
001000
001000
002000
004000
008000
030000
0C0000
000000
ENDCHAR
STARTCHAR 30D7
ENCODING 12503
SWIDTH 1080 0
DWIDTH 18 0
BBX 18 18 0 -3
BITMAP
000300
000480
000480
000300
20FC00
1F0400
000400
000400
000800
000800
001000
001000
002000
004000
008000
030000
0C0000
000000
ENDCHAR
STARTCHAR 30D8
ENCODING 12504
SWIDTH 1080 0
DWIDTH 18 0
BBX 18 18 0 -3
BITMAP
000000
000000
000000
000000
010000
028000
044000
082000
101000
200800
000400
000200
000180
000000
000000
000000
000000
000000
ENDCHAR
STARTCHAR 30D9
ENCODING 12505
SWIDTH 1080 0
DWIDTH 18 0
BBX 18 18 0 -3
BITMAP
000000
000000
000200
000900
010400
028000
044000
082000
101000
200800
000400
000200
000180
000000
000000
000000
000000
000000
ENDCHAR
STARTCHAR 30DA
ENCODING 12506
SWIDTH 1080 0
DWIDTH 18 0
BBX 18 18 0 -3
BITMAP
000000
000000
000600
000900
010900
028600
044000
082000
101000
200800
000400
000200
000180
000000
000000
000000
000000
000000
ENDCHAR
STARTCHAR 30DB
ENCODING 12507
SWIDTH 1080 0
DWIDTH 18 0
BBX 18 18 0 -3
BITMAP
000000
008000
004000
004000
004000
207F00
1FC000
004000
004800
044400
044200
084200
084100
104100
214000
00C000
004000
000000
ENDCHAR
STARTCHAR 30DC
ENCODING 12508
SWIDTH 1080 0
DWIDTH 18 0
BBX 18 18 0 -3
BITMAP
000100
008080
004200
004100
004000
207F00
1FC000
004000
004800
044400
044200
084200
084100
104100
214000
00C000
004000
000000
ENDCHAR
STARTCHAR 30DD
ENCODING 12509
SWIDTH 1080 0
DWIDTH 18 0
BBX 18 18 0 -3
BITMAP
000300
008480
004480
004300
004000
207F00
1FC000
004000
004800
044400
044200
084200
084100
104100
214000
00C000
004000
000000
ENDCHAR
STARTCHAR 30DE
ENCODING 12510
SWIDTH 1080 0
DWIDTH 18 0
BBX 18 18 0 -3
BITMAP
000000
000000
000000
000000
207F00
1F8200
000400
000800
041000
022000
014000
008000
004000
002000
002000
000000
000000
000000
ENDCHAR
STARTCHAR 30DF
ENCODING 12511
SWIDTH 1080 0
DWIDTH 18 0
BBX 18 18 0 -3
BITMAP
000000
000000
038000
006000
001800
000000
000000
038000
006000
001800
000000
000000
070000
00E000
001800
000400
000000
000000
ENDCHAR
STARTCHAR 30E0
ENCODING 12512
SWIDTH 1080 0
DWIDTH 18 0
BBX 18 18 0 -3
BITMAP
000000
000000
010000
008000
008000
008000
010000
010000
020000
020800
040400
040200
081E00
09E100
3E0100
000000
000000
000000
ENDCHAR
STARTCHAR 30E1
ENCODING 12513
SWIDTH 1080 0
DWIDTH 18 0
BBX 18 18 0 -3
BITMAP
000000
000000
001000
000800
000800
000800
000800
061000
019000
006000
003000
004800
008400
010400
020000
040000
180000
000000
ENDCHAR
STARTCHAR 30E2
ENCODING 12514
SWIDTH 1080 0
DWIDTH 18 0
BBX 18 18 0 -3
BITMAP
000000
000000
000000
087C00
078000
008000
008000
008000
20FF00
1F8000
008000
008000
008000
008000
008000
007E00
000000
000000
ENDCHAR
STARTCHAR 30E3
ENCODING 12515
SWIDTH 1080 0
DWIDTH 18 0
BBX 18 18 0 -3
BITMAP
000000
000000
000000
000000
000000
020000
010000
010000
017E00
0F8400
008800
009000
008000
004000
004000
004000
000000
000000
ENDCHAR
STARTCHAR 30E4
ENCODING 12516
SWIDTH 1080 0
DWIDTH 18 0
BBX 18 18 0 -3
BITMAP
000000
060000
020000
020000
010700
017900
478200
390400
010800
009000
008000
008000
008000
004000
004000
004000
004000
000000
ENDCHAR
STARTCHAR 30E5
ENCODING 12517
SWIDTH 1080 0
DWIDTH 18 0
BBX 18 18 0 -3
BITMAP
000000
000000
000000
000000
000000
000000
000000
000000
047000
039000
001000
002000
002000
107C00
0F8200
000000
000000
000000
ENDCHAR
STARTCHAR 30E6
ENCODING 12518
SWIDTH 1080 0
DWIDTH 18 0
BBX 18 18 0 -3
BITMAP
000000
000000
000000
000000
087800
078800
000800
000800
001000
001000
001000
001000
207E00
1F8100
000000
000000
000000
000000
ENDCHAR
STARTCHAR 30E7
ENCODING 12519
SWIDTH 1080 0
DWIDTH 18 0
BBX 18 18 0 -3
BITMAP
000000
000000
000000
000000
000000
000000
047800
038800
000800
000800
027800
018800
000800
000800
047800
038800
000000
000000
ENDCHAR
STARTCHAR 30E8
ENCODING 12520
SWIDTH 1080 0
DWIDTH 18 0
BBX 18 18 0 -3
BITMAP
000000
000000
000000
103E00
0FC200
000200
000200
000200
087E00
078400
000400
000400
000400
107C00
0F8400
000400
000000
000000
ENDCHAR
STARTCHAR 30E9
ENCODING 12521
SWIDTH 1080 0
DWIDTH 18 0
BBX 18 18 0 -3
BITMAP
000000
000000
047C00
038000
000000
000000
107E00
0F8200
000200
000200
000400
000400
000800
001000
002000
00C000
070000
000000
ENDCHAR
STARTCHAR 30EA
ENCODING 12522
SWIDTH 1080 0
DWIDTH 18 0
BBX 18 18 0 -3
BITMAP
000000
001000
080800
040800
040800
040800
040800
040800
040800
040800
040800
001000
001000
002000
004000
008000
010000
000000
ENDCHAR
STARTCHAR 30EB
ENCODING 12523
SWIDTH 1080 0
DWIDTH 18 0
BBX 18 18 0 -3
BITMAP
000000
000000
004000
042000
022000
022000
022000
022000
022000
022080
042100
042200
042400
082800
083000
102000
200000
000000
ENDCHAR
STARTCHAR 30EC
ENCODING 12524
SWIDTH 1080 0
DWIDTH 18 0
BBX 18 18 0 -3
BITMAP
000000
000000
080000
040000
040000
040000
040000
040000
040000
040200
040400
040800
041000
042000
044000
058000
060000
000000
ENDCHAR
STARTCHAR 30ED
ENCODING 12525
SWIDTH 1080 0
DWIDTH 18 0
BBX 18 18 0 -3
BITMAP
000000
000000
000000
000000
207E00
1F8200
100200
100200
100200
080400
080400
080400
080400
083E00
0FC000
080000
000000
000000
ENDCHAR
STARTCHAR 30EE
ENCODING 12526
SWIDTH 1080 0
DWIDTH 18 0
BBX 18 18 0 -3
BITMAP
000000
000000
000000
000000
000000
000000
000000
087800
078800
040800
040800
041000
001000
002000
004000
008000
010000
000000
ENDCHAR
STARTCHAR 30EF
ENCODING 12527
SWIDTH 1080 0
DWIDTH 18 0
BBX 18 18 0 -3
BITMAP
000000
000000
000000
207E00
1F8200
100200
100200
100200
100200
100400
000400
000800
000800
001000
002000
004000
018000
000000
ENDCHAR
STARTCHAR 30F0
ENCODING 12528
SWIDTH 1080 0
DWIDTH 18 0
BBX 18 18 0 -3
BITMAP
000000
008000
004000
004000
007C00
1FC000
044000
044000
044000
447F00
3FC000
004000
004000
004000
004000
00C000
004000
000000
ENDCHAR
STARTCHAR 30F1
ENCODING 12529
SWIDTH 1080 0
DWIDTH 18 0
BBX 18 18 0 -3
BITMAP
000000
000000
000000
000000
107E00
0F8400
000800
00B000
008000
008000
008000
008000
008000
40FF00
3F0000
000000
000000
000000
ENDCHAR
STARTCHAR 30F2
ENCODING 12530
SWIDTH 1080 0
DWIDTH 18 0
BBX 18 18 0 -3
BITMAP
000000
000000
000000
087E00
078200
000200
000200
087C00
078400
000400
000800
000800
001000
002000
004000
018000
060000
000000
ENDCHAR
STARTCHAR 30F3
ENCODING 12531
SWIDTH 1080 0
DWIDTH 18 0
BBX 18 18 0 -3
BITMAP
000000
000000
000000
100000
0C0000
020000
000100
000200
000400
000800
001000
002000
004000
008000
130000
0C0000
000000
000000
ENDCHAR
STARTCHAR 30F4
ENCODING 12532
SWIDTH 1080 0
DWIDTH 18 0
BBX 18 18 0 -3
BITMAP
000100
010080
008200
008100
00FE00
1F8200
100200
100200
100400
100400
100800
000800
001000
002000
004000
008000
030000
000000
ENDCHAR
STARTCHAR 30F5
ENCODING 12533
SWIDTH 1080 0
DWIDTH 18 0
BBX 18 18 0 -3
BITMAP
000000
000000
000000
000000
000000
010000
008000
008000
00F800
0F8800
008800
010800
010800
025000
043000
081000
000000
000000
ENDCHAR
STARTCHAR 30F6
ENCODING 12534
SWIDTH 1080 0
DWIDTH 18 0
BBX 18 18 0 -3
BITMAP
000000
000000
000000
000000
000000
010000
010000
011C00
03E000
022000
042000
082000
004000
004000
008000
030000
000000
000000
ENDCHAR
STARTCHAR 30FB
ENCODING 12539
SWIDTH 1080 0
DWIDTH 18 0
BBX 18 18 0 -3
BITMAP
000000
000000
000000
000000
000000
000000
000000
008000
01C000
008000
000000
000000
000000
000000
000000
000000
000000
000000
ENDCHAR
STARTCHAR 30FC
ENCODING 12540
SWIDTH 1080 0
DWIDTH 18 0
BBX 18 18 0 -3
BITMAP
000000
000000
000000
000000
000000
000000
000000
000000
407F00
3F8000
000000
000000
000000
000000
000000
000000
000000
000000
ENDCHAR
STARTCHAR 30FD
ENCODING 12541
SWIDTH 1080 0
DWIDTH 18 0
BBX 18 18 0 -3
BITMAP
000000
000000
000000
000000
000000
020000
010000
008000
004000
004000
002000
002000
000000
000000
000000
000000
000000
000000
ENDCHAR
STARTCHAR 30FE
ENCODING 12542
SWIDTH 1080 0
DWIDTH 18 0
BBX 18 18 0 -3
BITMAP
000000
000000
000800
000400
002000
021000
010000
008000
004000
004000
002000
002000
000000
000000
000000
000000
000000
000000
ENDCHAR
STARTCHAR 3231
ENCODING 12849
SWIDTH 1080 0
DWIDTH 18 0
BBX 18 18 0 -3
BITMAP
200200
482100
48A100
48A100
88FC80
BEA080
892080
8C2080
9BFE80
9A7080
A8A880
A8A880
892480
492500
4A2300
482100
200200
000000
ENDCHAR
STARTCHAR 3232
ENCODING 12850
SWIDTH 1080 0
DWIDTH 18 0
BBX 18 18 0 -3
BITMAP
200200
410100
410100
5FFD00
820080
820080
87F080
841080
8C1080
8FF080
941080
841080
87F080
441100
441100
443100
200200
000000
ENDCHAR
STARTCHAR 3239
ENCODING 12857
SWIDTH 1080 0
DWIDTH 18 0
BBX 18 18 0 -3
BITMAP
200200
445100
444900
444900
884080
8BFC80
984080
984080
A82080
882080
882080
882080
881480
481500
480D00
480500
200200
000000
ENDCHAR
STARTCHAR 32A4
ENCODING 12964
SWIDTH 1080 0
DWIDTH 18 0
BBX 18 18 0 -3
BITMAP
03E000
0C1800
100400
208200
408100
408100
808080
80F880
808080
808080
808080
408100
5FFD00
200200
100400
0C1800
03E000
000000
ENDCHAR
STARTCHAR 32A5
ENCODING 12965
SWIDTH 1080 0
DWIDTH 18 0
BBX 18 18 0 -3
BITMAP
03E000
0C1800
100400
208200
408100
4FF900
888880
888880
888880
8FF880
808080
408100
408100
208200
100400
0C1800
03E000
000000
ENDCHAR
STARTCHAR 32A6
ENCODING 12966
SWIDTH 1080 0
DWIDTH 18 0
BBX 18 18 0 -3
BITMAP
03E000
0C1800
100400
200200
5FFD00
408100
808080
80C080
80A080
809080
808080
408100
408100
208200
100400
0C1800
03E000
000000
ENDCHAR
STARTCHAR 32A7
ENCODING 12967
SWIDTH 1080 0
DWIDTH 18 0
BBX 18 18 0 -3
BITMAP
03E000
0C1800
100400
210200
410100
5FFD00
810080
820080
83F880
844080
884080
504100
404100
27FA00
100400
0C1800
03E000
000000
ENDCHAR
STARTCHAR 32A8
ENCODING 12968
SWIDTH 1080 0
DWIDTH 18 0
BBX 18 18 0 -3
BITMAP
03E000
0C1800
100400
210200
410100
5FFD00
810080
820080
820080
87F880
8A0880
520900
420900
23FA00
100400
0C1800
03E000
000000
ENDCHAR
STARTCHAR 3303
ENCODING 13059
SWIDTH 1080 0
DWIDTH 18 0
BBX 18 18 0 -3
BITMAP
7F8000
008000
090000
0E2000
081F80
080000
100000
600000
000000
120000
120000
120000
120000
124000
228000
230000
420000
000000
ENDCHAR
STARTCHAR 330D
ENCODING 13069
SWIDTH 1080 0
DWIDTH 18 0
BBX 18 18 0 -3
BITMAP
080000
080000
7F3F00
092100
112100
112100
212100
463F00
000000
220000
220000
224000
223F00
220000
040000
040000
080000
000000
ENDCHAR
STARTCHAR 3314
ENCODING 13076
SWIDTH 1080 0
DWIDTH 18 0
BBX 18 18 0 -3
BITMAP
000000
080000
0F0000
780000
080000
078000
7C0000
040000
040000
040000
003F00
002100
002100
002100
002100
002100
003F00
000000
ENDCHAR
STARTCHAR 3318
ENCODING 13080
SWIDTH 1080 0
DWIDTH 18 0
BBX 18 18 0 -3
BITMAP
114000
115F00
3E0000
223F80
420080
840100
080100
100600
601800
000000
080000
080000
080000
110000
108000
278000
788000
000000
ENDCHAR
STARTCHAR 3322
ENCODING 13090
SWIDTH 1080 0
DWIDTH 18 0
BBX 18 18 0 -3
BITMAP
200000
206000
2F1100
F20200
240400
200800
201000
1F6000
000000
070000
3C0000
040000
7F8000
040000
040000
080000
100000
000000
ENDCHAR
STARTCHAR 3323
ENCODING 13091
SWIDTH 1080 0
DWIDTH 18 0
BBX 18 18 0 -3
BITMAP
200000
206000
2F1100
F20200
240400
200800
201000
1F6000
000000
100000
100000
100000
1C0000
120000
110000
100000
100000
000000
ENDCHAR
STARTCHAR 3326
ENCODING 13094
SWIDTH 1080 0
DWIDTH 18 0
BBX 18 18 0 -3
BITMAP
210000
108000
120000
110000
1C0000
120000
110000
100000
100000
002400
002400
002400
002400
002480
004500
004600
008400
000000
ENDCHAR
STARTCHAR 3327
ENCODING 13095
SWIDTH 1080 0
DWIDTH 18 0
BBX 18 18 0 -3
BITMAP
200000
100000
100000
100000
1C0000
120000
110000
100000
100000
006000
001080
000100
000200
000400
000800
001000
006000
000000
ENDCHAR
STARTCHAR 332B
ENCODING 13099
SWIDTH 1080 0
DWIDTH 18 0
BBX 18 18 0 -3
BITMAP
008000
254000
248000
222000
221F80
410000
410000
810000
000000
400400
418400
5C5400
E41600
482500
402480
404400
3D8400
000000
ENDCHAR
STARTCHAR 3336
ENCODING 13110
SWIDTH 1080 0
DWIDTH 18 0
BBX 18 18 0 -3
BITMAP
000400
000400
180F80
241080
422100
010200
008400
001800
000000
200A00
3C0A00
250A00
54EA00
8C0A80
081280
101300
602200
000000
ENDCHAR
STARTCHAR 333B
ENCODING 13115
SWIDTH 1080 0
DWIDTH 18 0
BBX 18 18 0 -3
BITMAP
010000
028000
190000
242000
421F80
010000
00C000
000000
000000
314000
094000
600000
108000
010000
020000
0C0000
300000
000000
ENDCHAR
STARTCHAR 3349
ENCODING 13129
SWIDTH 1080 0
DWIDTH 18 0
BBX 18 18 0 -3
BITMAP
000000
780000
060000
000000
780000
060000
000000
780200
072100
002100
002100
002100
002100
000100
000200
000200
000400
000000
ENDCHAR
STARTCHAR 334A
ENCODING 13130
SWIDTH 1080 0
DWIDTH 18 0
BBX 18 18 0 -3
BITMAP
782200
062200
002200
382200
062200
000400
780400
070800
000000
050000
050A00
280A00
280A00
25CA00
441280
421300
822200
000000
ENDCHAR
STARTCHAR 334D
ENCODING 13133
SWIDTH 1080 0
DWIDTH 18 0
BBX 18 18 0 -3
BITMAP
020000
020000
040000
344000
083F00
140000
220000
C00000
000000
102400
102400
102400
182400
142480
124500
104600
108400
000000
ENDCHAR
STARTCHAR 3351
ENCODING 13137
SWIDTH 1080 0
DWIDTH 18 0
BBX 18 18 0 -3
BITMAP
220000
220000
220000
222A00
222A00
040200
040400
081800
000000
202400
202400
202400
382400
242480
224500
204600
208400
000000
ENDCHAR
STARTCHAR 3357
ENCODING 13143
SWIDTH 1080 0
DWIDTH 18 0
BBX 18 18 0 -3
BITMAP
000000
7F0000
410000
412A00
012A00
020200
040400
181800
000000
100000
100000
100000
1C0000
120000
110000
100000
100000
000000
ENDCHAR
STARTCHAR 337B
ENCODING 13179
SWIDTH 1080 0
DWIDTH 18 0
BBX 18 18 0 -3
BITMAP
000500
7F0480
080480
4A0400
2A7F80
2A4400
2A4400
0A4480
0C7A80
FFCA80
084B00
084B00
084A00
084A00
085A80
084580
088580
088880
ENDCHAR
STARTCHAR 337C
ENCODING 13180
SWIDTH 1080 0
DWIDTH 18 0
BBX 18 18 0 -3
BITMAP
001800
1FF000
E49000
A49780
A49480
A4FC80
A89480
E89480
B1BC80
A03C80
AF3480
A95480
A95480
E95480
899780
091000
0F1000
001000
ENDCHAR
STARTCHAR 337D
ENCODING 13181
SWIDTH 1080 0
DWIDTH 18 0
BBX 18 18 0 -3
BITMAP
080000
087F80
080400
080400
080400
080400
FF8400
082400
082780
082400
142400
142400
142400
222400
222400
412400
412400
80FF80
ENDCHAR
STARTCHAR 337E
ENCODING 13182
SWIDTH 1080 0
DWIDTH 18 0
BBX 18 18 0 -3
BITMAP
004200
0F2200
E92200
A90400
A94400
AF2500
E92880
A91F80
A90080
A90000
AF2F80
E92880
892880
092880
094880
114880
114F80
234000
ENDCHAR
STARTCHAR 338E
ENCODING 13198
SWIDTH 1080 0
DWIDTH 18 0
BBX 18 18 0 -3
BITMAP
000000
000000
000000
000000
000000
000180
D61F00
692100
492100
492100
491E00
491000
491E00
492100
EBC080
004080
004080
003F00
ENDCHAR
STARTCHAR 338F
ENCODING 13199
SWIDTH 1080 0
DWIDTH 18 0
BBX 18 18 0 -3
BITMAP
000000
600000
200000
200000
200000
200180
271F00
222100
242100
282100
341E00
241000
221E00
212100
73C080
004080
004080
003F00
ENDCHAR
STARTCHAR 339C
ENCODING 13212
SWIDTH 1080 0
DWIDTH 18 0
BBX 18 18 0 -3
BITMAP
000000
000000
000000
000000
000000
000000
D66B00
693480
492480
492480
492480
492480
492480
492480
EBF5C0
000000
000000
000000
ENDCHAR
STARTCHAR 339D
ENCODING 13213
SWIDTH 1080 0
DWIDTH 18 0
BBX 18 18 0 -3
BITMAP
000000
000000
000000
000000
000000
000000
3CD600
426900
824900
804900
804900
804900
814900
424900
3CEB80
000000
000000
000000
ENDCHAR
STARTCHAR 339E
ENCODING 13214
SWIDTH 1080 0
DWIDTH 18 0
BBX 18 18 0 -3
BITMAP
000000
C00000
400000
400000
400000
400000
4ED600
446900
484900
504900
684900
444900
444900
424900
E7EB80
000000
000000
000000
ENDCHAR
STARTCHAR 33A1
ENCODING 13217
SWIDTH 1080 0
DWIDTH 18 0
BBX 18 18 0 -3
BITMAP
000300
000480
000080
000300
000400
000780
6E7000
318800
210800
210800
210800
210800
210800
210800
739C00
000000
000000
000000
ENDCHAR
STARTCHAR 33C4
ENCODING 13252
SWIDTH 1080 0
DWIDTH 18 0
BBX 18 18 0 -3
BITMAP
000000
000000
000000
000000
000000
000000
3C1E00
422100
824100
804000
804000
804000
814080
422100
3C1E00
000000
000000
000000
ENDCHAR
STARTCHAR 33CD
ENCODING 13261
SWIDTH 1080 0
DWIDTH 18 0
BBX 18 18 0 -3
BITMAP
000000
EE7700
442200
442200
482400
482400
502800
502800
683400
482400
482400
442400
44A280
45E3C0
EEB680
000000
000000
000000
ENDCHAR
STARTCHAR 4E00
ENCODING 19968
SWIDTH 1080 0
DWIDTH 18 0
BBX 18 18 0 -3
BITMAP
000000
000000
000000
000000
000000
000000
000000
000000
FFFF80
000000
000000
000000
000000
000000
000000
000000
000000
000000
ENDCHAR
STARTCHAR 4E01
ENCODING 19969
SWIDTH 1080 0
DWIDTH 18 0
BBX 18 18 0 -3
BITMAP
000000
FFFF80
008000
008000
008000
008000
008000
008000
008000
008000
008000
008000
008000
008000
008000
008000
008000
038000
ENDCHAR
STARTCHAR 4E03
ENCODING 19971
SWIDTH 1080 0
DWIDTH 18 0
BBX 18 18 0 -3
BITMAP
040000
040000
040000
040000
040000
040700
043800
05C000
1E0000
E40000
040000
040000
040000
040000
040200
040200
03FE00
000000
ENDCHAR
STARTCHAR 4E07
ENCODING 19975
SWIDTH 1080 0
DWIDTH 18 0
BBX 18 18 0 -3
BITMAP
000000
000000
FFFF80
020000
020000
020000
020000
03FC00
020400
020400
040400
040400
040400
080400
080400
100800
200800
403000
ENDCHAR
STARTCHAR 4E08
ENCODING 19976
SWIDTH 1080 0
DWIDTH 18 0
BBX 18 18 0 -3
BITMAP
008000
008000
008000
008000
008000
FFFF80
008000
088000
088000
048000
048000
028000
010000
018000
024000
043000
180C00
E00380
ENDCHAR
STARTCHAR 4E09
ENCODING 19977
SWIDTH 1080 0
DWIDTH 18 0
BBX 18 18 0 -3
BITMAP
000000
000000
000000
3FFE00
000000
000000
000000
000000
000000
0FFC00
000000
000000
000000
000000
000000
FFFF80
000000
000000
ENDCHAR
STARTCHAR 4E0A
ENCODING 19978
SWIDTH 1080 0
DWIDTH 18 0
BBX 18 18 0 -3
BITMAP
008000
008000
008000
008000
008000
008000
008000
00FE00
008000
008000
008000
008000
008000
008000
008000
008000
FFFF80
000000
ENDCHAR
STARTCHAR 4E0B
ENCODING 19979
SWIDTH 1080 0
DWIDTH 18 0
BBX 18 18 0 -3
BITMAP
000000
000000
FFFF80
008000
008000
008000
00C000
00B000
008800
008400
008400
008000
008000
008000
008000
008000
008000
008000
ENDCHAR
STARTCHAR 4E0D
ENCODING 19981
SWIDTH 1080 0
DWIDTH 18 0
BBX 18 18 0 -3
BITMAP
000000
000000
FFFF80
008000
008000
010000
019000
028800
048400
088200
308100
C08100
008000
008000
008000
008000
008000
008000
ENDCHAR
STARTCHAR 4E0E
ENCODING 19982
SWIDTH 1080 0
DWIDTH 18 0
BBX 18 18 0 -3
BITMAP
040000
040000
040000
07FC00
040000
040000
040000
0FF800
080800
000800
000800
FFFF80
001000
001000
001000
002000
002000
01C000
ENDCHAR
STARTCHAR 4E10
ENCODING 19984
SWIDTH 1080 0
DWIDTH 18 0
BBX 18 18 0 -3
BITMAP
000000
FFFF80
008000
008000
008000
10FF00
108000
108000
108000
3FFE00
200200
200200
000200
000200
000400
000400
000800
003000
ENDCHAR
STARTCHAR 4E11
ENCODING 19985
SWIDTH 1080 0
DWIDTH 18 0
BBX 18 18 0 -3
BITMAP
000000
000000
7FF800
020800
020800
020800
020800
040800
FFFF80
040800
040800
040800
080800
080800
080800
080800
FFFF80
000000
ENDCHAR
STARTCHAR 4E14
ENCODING 19988
SWIDTH 1080 0
DWIDTH 18 0
BBX 18 18 0 -3
BITMAP
000000
000000
0FF800
080800
080800
080800
0FF800
080800
080800
080800
080800
0FF800
080800
080800
080800
080800
FFFF80
000000
ENDCHAR
STARTCHAR 4E15
ENCODING 19989
SWIDTH 1080 0
DWIDTH 18 0
BBX 18 18 0 -3
BITMAP
000000
7FFF00
008000
008000
010000
010000
029000
048800
088400
308200
C08100
008100
008000
008000
008000
000000
FFFF80
000000
ENDCHAR
STARTCHAR 4E16
ENCODING 19990
SWIDTH 1080 0
DWIDTH 18 0
BBX 18 18 0 -3
BITMAP
108400
108400
108400
108400
108400
FFFF80
108400
108400
108400
108400
108400
10FC00
100000
100000
100000
100000
1FFF00
000000
ENDCHAR
STARTCHAR 4E17
ENCODING 19991
SWIDTH 1080 0
DWIDTH 18 0
BBX 18 18 0 -3
BITMAP
108400
108400
108400
108400
108400
108400
108400
FFFF80
108400
108400
108400
108400
108400
108400
108400
108400
1FFC00
000000
ENDCHAR
STARTCHAR 4E18
ENCODING 19992
SWIDTH 1080 0
DWIDTH 18 0
BBX 18 18 0 -3
BITMAP
000000
000C00
00F000
0F0000
080000
080000
080000
0FFE00
081000
081000
081000
081000
081000
081000
081000
FFFF80
000000
000000
ENDCHAR
STARTCHAR 4E19
ENCODING 19993
SWIDTH 1080 0
DWIDTH 18 0
BBX 18 18 0 -3
BITMAP
000000
FFFF80
008000
008000
008000
3FFE00
208200
214200
212200
221200
240A00
280A00
200200
200200
200200
200200
200200
200600
ENDCHAR
STARTCHAR 4E1E
ENCODING 19998
SWIDTH 1080 0
DWIDTH 18 0
BBX 18 18 0 -3
BITMAP
000000
1FF800
001000
002000
00C000
008200
7E8200
04C400
04A800
089000
088800
108400
208200
C08180
018000
000000
7FFF00
000000
ENDCHAR
STARTCHAR 4E21
ENCODING 20001
SWIDTH 1080 0
DWIDTH 18 0
BBX 18 18 0 -3
BITMAP
000000
FFFF80
008000
008000
008000
7FFF00
408100
408100
488900
488900
488900
488900
488900
4FF900
480900
400100
400100
400700
ENDCHAR
STARTCHAR 4E26
ENCODING 20006
SWIDTH 1080 0
DWIDTH 18 0
BBX 18 18 0 -3
BITMAP
080800
040800
021000
021000
002000
7FFF00
022000
022000
222200
122200
122200
0A2400
0A2400
0A2800
022000
022000
FFFF80
000000
ENDCHAR
STARTCHAR 4E2A
ENCODING 20010
SWIDTH 1080 0
DWIDTH 18 0
BBX 18 18 0 -3
BITMAP
008000
008000
014000
014000
022000
041000
088800
108400
208200
C08180
008000
008000
008000
008000
008000
008000
008000
008000
ENDCHAR
STARTCHAR 4E2D
ENCODING 20013
SWIDTH 1080 0
DWIDTH 18 0
BBX 18 18 0 -3
BITMAP
008000
008000
008000
008000
7FFF00
408100
408100
408100
408100
408100
7FFF00
008000
008000
008000
008000
008000
008000
008000
ENDCHAR
STARTCHAR 4E31
ENCODING 20017
SWIDTH 1080 0
DWIDTH 18 0
BBX 18 18 0 -3
BITMAP
021000
021000
021000
421080
421080
421080
421080
421080
421080
421080
421080
7E1F80
021000
041000
041000
081000
101000
601000
ENDCHAR
STARTCHAR 4E32
ENCODING 20018
SWIDTH 1080 0
DWIDTH 18 0
BBX 18 18 0 -3
BITMAP
008000
008000
008000
3FFE00
208200
208200
208200
3FFE00
008000
008000
7FFF00
408100
408100
408100
7FFF00
008000
008000
008000
ENDCHAR
STARTCHAR 4E36
ENCODING 20022
SWIDTH 1080 0
DWIDTH 18 0
BBX 18 18 0 -3
BITMAP
000000
000000
000000
000000
0C0000
030000
008000
004000
002000
001000
001000
000800
000800
000400
000400
000000
000000
000000
ENDCHAR
STARTCHAR 4E38
ENCODING 20024
SWIDTH 1080 0
DWIDTH 18 0
BBX 18 18 0 -3
BITMAP
020000
020000
020000
020000
020000
7FF800
020800
020800
020800
1A0800
060800
020800
050800
048800
088880
080880
100880
600780
ENDCHAR
STARTCHAR 4E39
ENCODING 20025
SWIDTH 1080 0
DWIDTH 18 0
BBX 18 18 0 -3
BITMAP
000000
0FFC00
080400
080400
098400
084400
082400
080400
080400
FFFF80
080400
100400
100400
100400
200400
200400
400400
801C00
ENDCHAR
STARTCHAR 4E3B
ENCODING 20027
SWIDTH 1080 0
DWIDTH 18 0
BBX 18 18 0 -3
BITMAP
020000
010000
008000
008000
000000
7FFF00
008000
008000
008000
008000
1FFC00
008000
008000
008000
008000
008000
FFFF80
000000
ENDCHAR
STARTCHAR 4E3C
ENCODING 20028
SWIDTH 1080 0
DWIDTH 18 0
BBX 18 18 0 -3
BITMAP
041000
041000
041000
041000
7FFF00
041000
061000
051000
049000
041000
FFFF80
041000
041000
081000
081000
101000
201000
401000
ENDCHAR
STARTCHAR 4E3F
ENCODING 20031
SWIDTH 1080 0
DWIDTH 18 0
BBX 18 18 0 -3
BITMAP
002000
002000
002000
002000
002000
002000
002000
002000
002000
004000
004000
004000
008000
008000
010000
020000
0C0000
300000
ENDCHAR
STARTCHAR 4E42
ENCODING 20034
SWIDTH 1080 0
DWIDTH 18 0
BBX 18 18 0 -3
BITMAP
100400
100400
100400
300400
280800
480800
080800
041000
041000
022000
022000
014000
008000
014000
022000
0C1800
300600
C00180
ENDCHAR
STARTCHAR 4E43
ENCODING 20035
SWIDTH 1080 0
DWIDTH 18 0
BBX 18 18 0 -3
BITMAP
000000
7FF800
040800
040800
040800
041000
041000
043F00
042100
080100
080100
080100
080100
100100
100200
200200
400200
801C00
ENDCHAR
STARTCHAR 4E45
ENCODING 20037
SWIDTH 1080 0
DWIDTH 18 0
BBX 18 18 0 -3
BITMAP
040000
040000
040000
07E000
082000
082000
082000
104000
104000
20A000
40A000
012000
011000
021000
040800
080400
300200
C00100
ENDCHAR
STARTCHAR 4E4B
ENCODING 20043
SWIDTH 1080 0
DWIDTH 18 0
BBX 18 18 0 -3
BITMAP
008000
008000
008000
008000
7FFE00
000200
000400
000800
001000
002000
004000
008000
110000
160000
280000
460000
81E000
001F80
ENDCHAR
STARTCHAR 4E4D
ENCODING 20045
SWIDTH 1080 0
DWIDTH 18 0
BBX 18 18 0 -3
BITMAP
080000
080000
080000
080000
1FFF80
108000
208000
408000
80FE00
008000
008000
008000
00FF00
008000
008000
008000
008000
008000
ENDCHAR
STARTCHAR 4E4E
ENCODING 20046
SWIDTH 1080 0
DWIDTH 18 0
BBX 18 18 0 -3
BITMAP
000000
001C00
01E000
3E8000
008400
088400
048800
049000
008000
FFFF80
008000
008000
008000
008000
008000
008000
008000
038000
ENDCHAR
STARTCHAR 4E4F
ENCODING 20047
SWIDTH 1080 0
DWIDTH 18 0
BBX 18 18 0 -3
BITMAP
000400
003800
03C000
3C0000
008000
008000
FFFE00
000800
001000
002000
004000
008000
110000
120000
2C0000
260000
41E000
801F80
ENDCHAR
STARTCHAR 4E55
ENCODING 20053
SWIDTH 1080 0
DWIDTH 18 0
BBX 18 18 0 -3
BITMAP
000300
003C00
1FE000
102000
1FFF80
102000
102000
1FFF80
102000
102000
17FF00
242100
242100
242100
442100
442700
802000
002000
ENDCHAR
STARTCHAR 4E56
ENCODING 20054
SWIDTH 1080 0
DWIDTH 18 0
BBX 18 18 0 -3
BITMAP
000000
001C00
01E000
3E8000
008000
FFFF80
008000
049000
049000
FC9300
049C00
049000
049000
1C9100
E49100
048F00
008000
008000
ENDCHAR
STARTCHAR 4E57
ENCODING 20055
SWIDTH 1080 0
DWIDTH 18 0
BBX 18 18 0 -3
BITMAP
007C00
1F8000
008000
7FFF00
088800
088800
FFFF80
088800
088800
088800
7FFF00
01C000
02A000
049000
088800
308600
C08180
008000
ENDCHAR
STARTCHAR 4E58
ENCODING 20056
SWIDTH 1080 0
DWIDTH 18 0
BBX 18 18 0 -3
BITMAP
000C00
00F000
1F8000
008000
FFFF80
008000
049180
FC9600
049800
049000
3C9080
C58F80
02C000
04A000
089000
308C00
C08380
008000
ENDCHAR
STARTCHAR 4E59
ENCODING 20057
SWIDTH 1080 0
DWIDTH 18 0
BBX 18 18 0 -3
BITMAP
000000
FFFC00
001800
002000
004000
008000
010000
020000
040000
080000
100000
200000
200000
400000
400100
300100
0FFF00
000000
ENDCHAR
STARTCHAR 4E5D
ENCODING 20061
SWIDTH 1080 0
DWIDTH 18 0
BBX 18 18 0 -3
BITMAP
010000
010000
010000
010000
010000
7FF800
010800
010800
010800
010800
020800
020800
020800
040800
040800
080880
100880
600780
ENDCHAR
STARTCHAR 4E5E
ENCODING 20062
SWIDTH 1080 0
DWIDTH 18 0
BBX 18 18 0 -3
BITMAP
100000
100000
100000
200000
3FFF00
400000
800000
1FFC00
003000
00C000
030000
040000
080000
100000
200000
200200
300200
0FFE00
ENDCHAR
STARTCHAR 4E5F
ENCODING 20063
SWIDTH 1080 0
DWIDTH 18 0
BBX 18 18 0 -3
BITMAP
004000
084000
084000
084000
084000
084E00
08F200
0F4200
F84200
084200
084200
084E00
084000
084000
084000
080100
080100
07FF00
ENDCHAR
STARTCHAR 4E62
ENCODING 20066
SWIDTH 1080 0
DWIDTH 18 0
BBX 18 18 0 -3
BITMAP
002000
082000
082000
082000
492000
492000
492000
492000
492000
492000
492000
492000
492000
492000
7F2000
402080
002080
001F80
ENDCHAR
STARTCHAR 4E71
ENCODING 20081
SWIDTH 1080 0
DWIDTH 18 0
BBX 18 18 0 -3
BITMAP
032000
0C2000
782000
082000
082000
FFA000
082000
082000
082000
082000
7F2000
412000
412000
412000
412000
412100
7F2100
001F00
ENDCHAR
STARTCHAR 4E73
ENCODING 20083
SWIDTH 1080 0
DWIDTH 18 0
BBX 18 18 0 -3
BITMAP
079000
F81000
011000
491000
2A1000
221000
041000
7F9000
011000
061000
081000
0F9000
F81000
081000
081000
081080
081080
180F80
ENDCHAR
STARTCHAR 4E7E
ENCODING 20094
SWIDTH 1080 0
DWIDTH 18 0
BBX 18 18 0 -3
BITMAP
082000
082000
FE2000
082000
087F80
7E4000
428000
430000
7E7E00
420400
420800
7E1000
082000
084000
FF4000
088100
088100
087F00
ENDCHAR
STARTCHAR 4E80
ENCODING 20096
SWIDTH 1080 0
DWIDTH 18 0
BBX 18 18 0 -3
BITMAP
040000
07F000
082000
104000
3FF800
D10800
1FF800
110800
1FF800
010000
3FFC00
210400
3FFC00
210400
3FFC00
010100
010100
00FF00
ENDCHAR
STARTCHAR 4E82
ENCODING 20098
SWIDTH 1080 0
DWIDTH 18 0
BBX 18 18 0 -3
BITMAP
03C800
FC8800
488800
250800
FF8800
010800
160800
080800
FFC800
884800
8A4800
924800
BD4800
804800
9A4800
844880
BA4880
80C780
ENDCHAR
STARTCHAR 4E85
ENCODING 20101
SWIDTH 1080 0
DWIDTH 18 0
BBX 18 18 0 -3
BITMAP
008000
008000
008000
008000
008000
008000
008000
008000
008000
008000
008000
008000
008000
008000
008000
008000
008000
038000
ENDCHAR
STARTCHAR 4E86
ENCODING 20102
SWIDTH 1080 0
DWIDTH 18 0
BBX 18 18 0 -3
BITMAP
000000
3FFE00
000400
001800
002000
00C000
008000
008000
008000
008000
008000
008000
008000
008000
008000
008000
008000
038000
ENDCHAR
STARTCHAR 4E88
ENCODING 20104
SWIDTH 1080 0
DWIDTH 18 0
BBX 18 18 0 -3
BITMAP
000000
1FFC00
000800
003000
034000
008000
004000
FFFF80
008100
008200
008400
008000
008000
008000
008000
008000
008000
038000
ENDCHAR
STARTCHAR 4E89
ENCODING 20105
SWIDTH 1080 0
DWIDTH 18 0
BBX 18 18 0 -3
BITMAP
040000
040000
0FF000
102000
204000
C08000
1FFC00
008400
008400
FFFF80
008400
008400
3FFC00
008000
008000
008000
008000
038000
ENDCHAR
STARTCHAR 4E8A
ENCODING 20106
SWIDTH 1080 0
DWIDTH 18 0
BBX 18 18 0 -3
BITMAP
008000
008000
7FFF00
088800
048800
049000
00A000
3FFC00
008400
008400
FFFF80
008400
008400
3FFC00
008000
008000
008000
038000
ENDCHAR
STARTCHAR 4E8B
ENCODING 20107
SWIDTH 1080 0
DWIDTH 18 0
BBX 18 18 0 -3
BITMAP
008000
008000
7FFF00
008000
1FFC00
108400
108400
1FFC00
008000
3FFC00
008400
FFFF80
008400
008400
3FFC00
008000
008000
018000
ENDCHAR
STARTCHAR 4E8C
ENCODING 20108
SWIDTH 1080 0
DWIDTH 18 0
BBX 18 18 0 -3
BITMAP
000000
000000
000000
1FFC00
000000
000000
000000
000000
000000
000000
000000
000000
000000
000000
000000
FFFF80
000000
000000
ENDCHAR
STARTCHAR 4E8E
ENCODING 20110
SWIDTH 1080 0
DWIDTH 18 0
BBX 18 18 0 -3
BITMAP
000000
3FFE00
008000
008000
008000
008000
008000
008000
FFFF80
008000
008000
008000
008000
008000
008000
008000
008000
038000
ENDCHAR
STARTCHAR 4E91
ENCODING 20113
SWIDTH 1080 0
DWIDTH 18 0
BBX 18 18 0 -3
BITMAP
000000
000000
1FFC00
000000
000000
000000
000000
FFFF80
010000
010000
020000
020000
040800
040400
081A00
0BE200
7C0100
000100
ENDCHAR
STARTCHAR 4E92
ENCODING 20114
SWIDTH 1080 0
DWIDTH 18 0
BBX 18 18 0 -3
BITMAP
000000
7FFF00
020000
020000
040000
040000
07FC00
080400
080400
080800
100800
1FF800
101000
001000
002000
002000
FFFF80
000000
ENDCHAR
STARTCHAR 4E94
ENCODING 20116
SWIDTH 1080 0
DWIDTH 18 0
BBX 18 18 0 -3
BITMAP
000000
3FFE00
010000
010000
010000
020000
020000
020000
1FF800
020800
020800
020800
040800
040800
040800
040800
FFFF80
000000
ENDCHAR
STARTCHAR 4E95
ENCODING 20117
SWIDTH 1080 0
DWIDTH 18 0
BBX 18 18 0 -3
BITMAP
041000
041000
041000
041000
041000
7FFF00
041000
041000
041000
041000
041000
FFFF80
041000
041000
081000
081000
101000
201000
ENDCHAR
STARTCHAR 4E98
ENCODING 20120
SWIDTH 1080 0
DWIDTH 18 0
BBX 18 18 0 -3
BITMAP
000000
7FFF00
000000
000000
1FF800
100800
100800
100800
1FF800
100800
100800
100800
100800
1FF800
000000
000000
FFFF80
000000
ENDCHAR
STARTCHAR 4E99
ENCODING 20121
SWIDTH 1080 0
DWIDTH 18 0
BBX 18 18 0 -3
BITMAP
000000
7FFF00
040000
040000
07FC00
080400
090400
088400
084800
084800
120800
110800
108800
109000
001000
001000
FFFF80
000000
ENDCHAR
STARTCHAR 4E9B
ENCODING 20123
SWIDTH 1080 0
DWIDTH 18 0
BBX 18 18 0 -3
BITMAP
084000
084000
084000
084200
4F4C00
487000
484000
484100
4B4100
5C3F00
E00000
000000
1FFC00
000000
000000
000000
FFFF80
000000
ENDCHAR
STARTCHAR 4E9C
ENCODING 20124
SWIDTH 1080 0
DWIDTH 18 0
BBX 18 18 0 -3
BITMAP
000000
7FFF00
042000
042000
042000
3FFC00
242400
242400
242400
242400
242400
3FFC00
042000
042000
042000
042000
FFFF80
000000
ENDCHAR
STARTCHAR 4E9E
ENCODING 20126
SWIDTH 1080 0
DWIDTH 18 0
BBX 18 18 0 -3
BITMAP
000000
7FFF00
041000
041000
041000
041000
7C1F00
400100
400100
400100
400100
7C1F00
041000
041000
041000
041000
FFFF80
000000
ENDCHAR
STARTCHAR 4E9F
ENCODING 20127
SWIDTH 1080 0
DWIDTH 18 0
BBX 18 18 0 -3
BITMAP
000000
7FFF00
040000
040000
040000
0F8000
00BF00
789100
489100
488A00
488A00
788400
008C00
011200
076180
000000
FFFF80
000000
ENDCHAR
STARTCHAR 4EA0
ENCODING 20128
SWIDTH 1080 0
DWIDTH 18 0
BBX 18 18 0 -3
BITMAP
000000
000000
000000
000000
000000
008000
008000
008000
008000
008000
FFFF80
000000
000000
000000
000000
000000
000000
000000
ENDCHAR
STARTCHAR 4EA1
ENCODING 20129
SWIDTH 1080 0
DWIDTH 18 0
BBX 18 18 0 -3
BITMAP
008000
008000
008000
008000
008000
FFFF80
080000
080000
080000
080000
080000
080000
080000
080000
080000
080000
07FE00
000000
ENDCHAR
STARTCHAR 4EA2
ENCODING 20130
SWIDTH 1080 0
DWIDTH 18 0
BBX 18 18 0 -3
BITMAP
008000
008000
008000
FFFF80
000000
000000
07F000
041000
041000
041000
041000
041000
041000
081000
081000
101080
201080
C00F80
ENDCHAR
STARTCHAR 4EA4
ENCODING 20132
SWIDTH 1080 0
DWIDTH 18 0
BBX 18 18 0 -3
BITMAP
008000
008000
008000
FFFF80
000000
081800
080400
100200
281100
C81000
042000
022000
014000
008000
014000
063000
180C00
E00380
ENDCHAR
STARTCHAR 4EA5
ENCODING 20133
SWIDTH 1080 0
DWIDTH 18 0
BBX 18 18 0 -3
BITMAP
008000
008000
008000
008000
FFFF80
008000
011000
021000
0C2200
044200
028400
010800
021000
0C2000
705800
018400
060200
780100
ENDCHAR
STARTCHAR 4EA6
ENCODING 20134
SWIDTH 1080 0
DWIDTH 18 0
BBX 18 18 0 -3
BITMAP
008000
008000
008000
008000
FFFF80
022000
022000
122800
122400
122200
222100
242100
442080
842080
082000
082000
102000
20E000
ENDCHAR
STARTCHAR 4EA8
ENCODING 20136
SWIDTH 1080 0
DWIDTH 18 0
BBX 18 18 0 -3
BITMAP
008000
008000
FFFF80
000000
0FF800
080800
080800
0FF800
000000
7FFE00
000400
001800
006000
008000
008000
008000
008000
038000
ENDCHAR
STARTCHAR 4EAB
ENCODING 20139
SWIDTH 1080 0
DWIDTH 18 0
BBX 18 18 0 -3
BITMAP
008000
008000
FFFF80
000000
0FFC00
080400
080400
0FFC00
000000
3FFC00
001000
006000
008000
FFFF80
008000
008000
008000
038000
ENDCHAR
STARTCHAR 4EAC
ENCODING 20140
SWIDTH 1080 0
DWIDTH 18 0
BBX 18 18 0 -3
BITMAP
008000
008000
008000
FFFF80
000000
000000
1FFC00
100400
100400
100400
1FFC00
008000
008000
088800
108400
208200
C08100
038000
ENDCHAR
STARTCHAR 4EAD
ENCODING 20141
SWIDTH 1080 0
DWIDTH 18 0
BBX 18 18 0 -3
BITMAP
008000
008000
FFFF80
000000
0FF800
080800
080800
0FF800
000000
FFFF80
800080
9FFC80
008000
008000
008000
008000
008000
038000
ENDCHAR
STARTCHAR 4EAE
ENCODING 20142
SWIDTH 1080 0
DWIDTH 18 0
BBX 18 18 0 -3
BITMAP
008000
008000
FFFF80
000000
0FF800
080800
080800
0FF800
000000
FFFF80
800080
842080
842080
042000
082000
082080
302080
C01F80
ENDCHAR
STARTCHAR 4EB0
ENCODING 20144
SWIDTH 1080 0
DWIDTH 18 0
BBX 18 18 0 -3
BITMAP
008000
008000
008000
FFFF80
000000
1FFC00
100400
100400
1FFC00
100400
100400
1FFC00
008000
049800
088400
308200
C08100
038000
ENDCHAR
STARTCHAR 4EB3
ENCODING 20147
SWIDTH 1080 0
DWIDTH 18 0
BBX 18 18 0 -3
BITMAP
008000
008000
7FFF00
000000
0FF800
080800
0FF800
000000
FFFF80
800080
807880
8F8080
008000
7FFF00
008000
008080
008080
007F80
ENDCHAR
STARTCHAR 4EB6
ENCODING 20150
SWIDTH 1080 0
DWIDTH 18 0
BBX 18 18 0 -3
BITMAP
008000
FFFF80
000000
1FFC00
100400
13E400
122400
13E400
100400
1FFC00
000000
0FF800
080800
0FF800
080800
0FF800
000000
FFFF80
ENDCHAR
STARTCHAR 4EBA
ENCODING 20154
SWIDTH 1080 0
DWIDTH 18 0
BBX 18 18 0 -3
BITMAP
008000
008000
008000
008000
008000
008000
008000
014000
014000
014000
022000
022000
041000
041000
080800
100400
200200
C00180
ENDCHAR
STARTCHAR 4EC0
ENCODING 20160
SWIDTH 1080 0
DWIDTH 18 0
BBX 18 18 0 -3
BITMAP
082000
082000
082000
102000
102000
302000
37FF80
502000
902000
102000
102000
102000
102000
102000
102000
102000
102000
102000
ENDCHAR
STARTCHAR 4EC1
ENCODING 20161
SWIDTH 1080 0
DWIDTH 18 0
BBX 18 18 0 -3
BITMAP
040000
040000
040000
09FF00
080000
100000
100000
300000
500000
900000
100000
100000
100000
100000
100000
13FF80
100000
100000
ENDCHAR
STARTCHAR 4EC2
ENCODING 20162
SWIDTH 1080 0
DWIDTH 18 0
BBX 18 18 0 -3
BITMAP
082000
082000
082000
102000
102000
17FF00
302100
302100
502100
902100
104100
104100
104100
108100
108200
110200
120200
141C00
ENDCHAR
STARTCHAR 4EC4
ENCODING 20164
SWIDTH 1080 0
DWIDTH 18 0
BBX 18 18 0 -3
BITMAP
000000
1FFF80
100000
104000
104000
104000
104000
104000
104000
10A000
10A000
209000
211000
210800
420800
440400
880200
300180
ENDCHAR
STARTCHAR 4EC6
ENCODING 20166
SWIDTH 1080 0
DWIDTH 18 0
BBX 18 18 0 -3
BITMAP
042000
042000
042000
082000
082000
182000
183800
282400
482200
882100
082080
082080
082000
082000
082000
082000
082000
082000
ENDCHAR
STARTCHAR 4EC7
ENCODING 20167
SWIDTH 1080 0
DWIDTH 18 0
BBX 18 18 0 -3
BITMAP
084000
084000
084000
104000
104000
37FC00
304400
504400
904400
104400
104400
108400
108400
108400
110400
110480
120480
140380
ENDCHAR
STARTCHAR 4ECA
ENCODING 20170
SWIDTH 1080 0
DWIDTH 18 0
BBX 18 18 0 -3
BITMAP
008000
014000
022000
041000
080800
100400
200200
CFF980
000000
000000
1FFC00
000400
000800
001000
001000
002000
004000
004000
ENDCHAR
STARTCHAR 4ECB
ENCODING 20171
SWIDTH 1080 0
DWIDTH 18 0
BBX 18 18 0 -3
BITMAP
008000
008000
014000
022000
041000
080800
300600
C41180
041000
041000
041000
041000
041000
041000
081000
081000
101000
201000
ENDCHAR
STARTCHAR 4ECD
ENCODING 20173
SWIDTH 1080 0
DWIDTH 18 0
BBX 18 18 0 -3
BITMAP
080000
0BFC00
088400
108400
108400
108800
308800
308F00
508900
908100
108100
108100
110100
110100
110100
120200
120200
140C00
ENDCHAR
STARTCHAR 4ECE
ENCODING 20174
SWIDTH 1080 0
DWIDTH 18 0
BBX 18 18 0 -3
BITMAP
081000
081000
081000
081000
081000
081000
081000
081000
082800
142800
142800
122400
224400
224200
408200
410100
860080
000000
ENDCHAR
STARTCHAR 4ECF
ENCODING 20175
SWIDTH 1080 0
DWIDTH 18 0
BBX 18 18 0 -3
BITMAP
081000
081000
081000
081000
102000
102000
302000
302000
504000
904000
104400
108200
108200
108100
110100
111E80
17E080
100080
ENDCHAR
STARTCHAR 4ED4
ENCODING 20180
SWIDTH 1080 0
DWIDTH 18 0
BBX 18 18 0 -3
BITMAP
080000
0BFF00
080200
100400
100800
303000
302000
502000
902000
17FF80
102000
102000
102000
102000
102000
102000
102000
10E000
ENDCHAR
STARTCHAR 4ED5
ENCODING 20181
SWIDTH 1080 0
DWIDTH 18 0
BBX 18 18 0 -3
BITMAP
082000
082000
082000
102000
102000
302000
37FF80
502000
902000
102000
102000
102000
102000
102000
102000
102000
13FF00
100000
ENDCHAR
STARTCHAR 4ED6
ENCODING 20182
SWIDTH 1080 0
DWIDTH 18 0
BBX 18 18 0 -3
BITMAP
081000
091000
091000
111000
111300
311D00
317100
519100
971100
111100
111100
111100
111300
111000
111000
110100
110100
10FF00
ENDCHAR
STARTCHAR 4ED7
ENCODING 20183
SWIDTH 1080 0
DWIDTH 18 0
BBX 18 18 0 -3
BITMAP
081000
081000
081000
101000
17FF80
301000
301000
511000
911000
129000
149000
105000
106000
102000
105000
108800
110600
160180
ENDCHAR
STARTCHAR 4ED8
ENCODING 20184
SWIDTH 1080 0
DWIDTH 18 0
BBX 18 18 0 -3
BITMAP
080400
080400
080400
100400
100400
37FF80
300400
500400
910400
108400
104400
104400
100400
100400
100400
100400
100400
101C00
ENDCHAR
STARTCHAR 4ED9
ENCODING 20185
SWIDTH 1080 0
DWIDTH 18 0
BBX 18 18 0 -3
BITMAP
081000
081000
081000
101000
101000
311100
311100
511100
911100
111100
111100
111100
111100
111100
111100
11FF00
110000
100000
ENDCHAR
STARTCHAR 4EDD
ENCODING 20189
SWIDTH 1080 0
DWIDTH 18 0
BBX 18 18 0 -3
BITMAP
008000
008000
014000
014000
022000
041000
080800
100400
200200
CFF980
008000
008000
008000
008000
008000
008000
7FFF00
000000
ENDCHAR
STARTCHAR 4EDE
ENCODING 20190
SWIDTH 1080 0
DWIDTH 18 0
BBX 18 18 0 -3
BITMAP
080000
0BFF00
081100
101100
101100
309100
309100
511100
911100
121100
102100
102100
102100
104100
104100
108200
110200
161C00
ENDCHAR
STARTCHAR 4EDF
ENCODING 20191
SWIDTH 1080 0
DWIDTH 18 0
BBX 18 18 0 -3
BITMAP
080000
080600
087800
13A000
102000
302000
302000
502000
97FF80
102000
102000
102000
102000
102000
102000
102000
102000
102000
ENDCHAR
STARTCHAR 4EE3
ENCODING 20195
SWIDTH 1080 0
DWIDTH 18 0
BBX 18 18 0 -3
BITMAP
084000
084800
084400
104400
104000
37FF80
304000
504000
904000
102000
102000
102000
101000
101000
100900
100500
100300
100100
ENDCHAR
STARTCHAR 4EE4
ENCODING 20196
SWIDTH 1080 0
DWIDTH 18 0
BBX 18 18 0 -3
BITMAP
008000
008000
014000
022000
041000
080800
37F600
C00180
000000
3FFC00
010400
010400
010400
010400
010400
011C00
010000
010000
ENDCHAR
STARTCHAR 4EE5
ENCODING 20197
SWIDTH 1080 0
DWIDTH 18 0
BBX 18 18 0 -3
BITMAP
000000
100400
100400
100400
120400
110400
108400
104400
104400
100400
100400
100A00
100A00
131100
1C2100
304080
C18080
0E0080
ENDCHAR
STARTCHAR 4EED
ENCODING 20205
SWIDTH 1080 0
DWIDTH 18 0
BBX 18 18 0 -3
BITMAP
080000
0BFE00
082200
102200
102200
322200
322200
552200
94C200
184200
106200
105200
108C00
108600
110580
110400
120800
143800
ENDCHAR
STARTCHAR 4EEE
ENCODING 20206
SWIDTH 1080 0
DWIDTH 18 0
BBX 18 18 0 -3
BITMAP
080000
080000
09FF80
110000
110000
310000
31FE00
514200
914200
124200
124400
122400
122800
141000
142800
184400
118200
160180
ENDCHAR
STARTCHAR 4EF0
ENCODING 20208
SWIDTH 1080 0
DWIDTH 18 0
BBX 18 18 0 -3
BITMAP
082000
084000
098000
111F00
111100
311100
311100
511100
911100
111100
111100
111100
115100
119100
161300
101000
101000
101000
ENDCHAR
STARTCHAR 4EF2
ENCODING 20210
SWIDTH 1080 0
DWIDTH 18 0
BBX 18 18 0 -3
BITMAP
082000
082000
082000
102000
13FF00
322100
322100
522100
922100
122100
13FF00
102000
102000
102000
102000
102000
102000
102000
ENDCHAR
STARTCHAR 4EF6
ENCODING 20214
SWIDTH 1080 0
DWIDTH 18 0
BBX 18 18 0 -3
BITMAP
081000
091000
091000
111000
111000
33FF00
321000
541000
901000
101000
17FF80
101000
101000
101000
101000
101000
101000
101000
ENDCHAR
STARTCHAR 4EF7
ENCODING 20215
SWIDTH 1080 0
DWIDTH 18 0
BBX 18 18 0 -3
BITMAP
082000
082000
085000
105000
108800
310400
320200
548980
908800
108800
108800
108800
108800
108800
110800
110800
120800
140800
ENDCHAR
STARTCHAR 4EFB
ENCODING 20219
SWIDTH 1080 0
DWIDTH 18 0
BBX 18 18 0 -3
BITMAP
080000
080600
083800
13E000
102000
302000
302000
502000
902000
17FF80
102000
102000
102000
102000
102000
102000
13FF00
100000
ENDCHAR
STARTCHAR 4F01
ENCODING 20225
SWIDTH 1080 0
DWIDTH 18 0
BBX 18 18 0 -3
BITMAP
008000
008000
014000
014000
022000
041000
088800
308600
C08180
008000
088000
08FC00
088000
088000
088000
088000
7FFF00
000000
ENDCHAR
STARTCHAR 4F09
ENCODING 20233
SWIDTH 1080 0
DWIDTH 18 0
BBX 18 18 0 -3
BITMAP
081000
081000
081000
101000
17FF80
300000
300000
50FC00
908400
108400
108400
108400
108400
108400
110400
110480
120480
140380
ENDCHAR
STARTCHAR 4F0A
ENCODING 20234
SWIDTH 1080 0
DWIDTH 18 0
BBX 18 18 0 -3
BITMAP
080000
080000
0BFE00
102200
102200
302200
37FF80
502200
502200
902200
102200
13FE00
102000
104000
104000
108000
110000
160000
ENDCHAR
STARTCHAR 4F0D
ENCODING 20237
SWIDTH 1080 0
DWIDTH 18 0
BBX 18 18 0 -3
BITMAP
080000
0BFE00
084000
104000
104000
304000
304000
504000
97FC00
108400
108400
108400
108400
108400
108400
108400
1FFF80
100000
ENDCHAR
STARTCHAR 4F0E
ENCODING 20238
SWIDTH 1080 0
DWIDTH 18 0
BBX 18 18 0 -3
BITMAP
081000
081000
081000
13FF80
101000
301000
301000
53FE00
908200
108200
104400
104400
102800
101000
102800
104400
118200
160180
ENDCHAR
STARTCHAR 4F0F
ENCODING 20239
SWIDTH 1080 0
DWIDTH 18 0
BBX 18 18 0 -3
BITMAP
082400
082200
082100
102100
102000
37FF80
302000
502000
905000
105000
105000
108800
108800
108800
110400
110400
120200
140180
ENDCHAR
STARTCHAR 4F10
ENCODING 20240
SWIDTH 1080 0
DWIDTH 18 0
BBX 18 18 0 -3
BITMAP
084000
084400
084200
104200
104000
307F80
37C000
504000
502200
902200
102400
101400
101800
101000
102800
10C480
170280
100180
ENDCHAR
STARTCHAR 4F11
ENCODING 20241
SWIDTH 1080 0
DWIDTH 18 0
BBX 18 18 0 -3
BITMAP
082000
082000
082000
102000
102000
37FF80
307000
50B000
90A800
10A800
112400
112400
122200
122100
142080
102000
102000
102000
ENDCHAR
STARTCHAR 4F1A
ENCODING 20250
SWIDTH 1080 0
DWIDTH 18 0
BBX 18 18 0 -3
BITMAP
008000
014000
022000
041000
080800
300600
CFF980
000000
000000
000000
7FFF00
010000
020000
021000
040800
08F400
3F0200
000200
ENDCHAR
STARTCHAR 4F1C
ENCODING 20252
SWIDTH 1080 0
DWIDTH 18 0
BBX 18 18 0 -3
BITMAP
084000
084000
084000
104000
13F800
304800
308800
508880
910880
160780
102000
102000
17FF80
102000
102000
102000
102000
102000
ENDCHAR
STARTCHAR 4F1D
ENCODING 20253
SWIDTH 1080 0
DWIDTH 18 0
BBX 18 18 0 -3
BITMAP
080000
080000
09FF00
100000
100000
300000
300000
57FF80
902000
102000
102000
104000
104400
108200
108100
111F00
17E080
100080
ENDCHAR
STARTCHAR 4F2F
ENCODING 20271
SWIDTH 1080 0
DWIDTH 18 0
BBX 18 18 0 -3
BITMAP
081000
081000
081000
102000
11FF00
310100
310100
510100
910100
110100
11FF00
110100
110100
110100
110100
110100
11FF00
100000
ENDCHAR
STARTCHAR 4F30
ENCODING 20272
SWIDTH 1080 0
DWIDTH 18 0
BBX 18 18 0 -3
BITMAP
082000
082000
082000
102000
102000
37FF80
302000
502000
902000
102000
11FE00
110200
110200
110200
110200
110200
11FE00
100000
ENDCHAR
STARTCHAR 4F34
ENCODING 20276
SWIDTH 1080 0
DWIDTH 18 0
BBX 18 18 0 -3
BITMAP
081000
0A1200
091200
109200
109400
301000
33FF00
501000
901000
101000
101000
17FF80
101000
101000
101000
101000
101000
101000
ENDCHAR
STARTCHAR 4F36
ENCODING 20278
SWIDTH 1080 0
DWIDTH 18 0
BBX 18 18 0 -3
BITMAP
082000
082000
085000
108800
110400
320200
340100
59FC80
900000
100000
17FE00
104200
104200
104200
104200
104E00
104000
104000
ENDCHAR
STARTCHAR 4F38
ENCODING 20280
SWIDTH 1080 0
DWIDTH 18 0
BBX 18 18 0 -3
BITMAP
082000
082000
082000
102000
13FF00
322100
322100
53FF00
922100
122100
122100
13FF00
102000
102000
102000
102000
102000
102000
ENDCHAR
STARTCHAR 4F3A
ENCODING 20282
SWIDTH 1080 0
DWIDTH 18 0
BBX 18 18 0 -3
BITMAP
080000
0BFF00
080100
100100
100100
31F900
300100
500100
91F900
110900
110900
110900
110900
11F900
110100
100100
100100
100700
ENDCHAR
STARTCHAR 4F3C
ENCODING 20284
SWIDTH 1080 0
DWIDTH 18 0
BBX 18 18 0 -3
BITMAP
080000
080200
0A0200
120200
124200
322200
321200
521200
920200
120400
120400
124400
128800
130C00
121200
1C2100
104080
118080
ENDCHAR
STARTCHAR 4F3D
ENCODING 20285
SWIDTH 1080 0
DWIDTH 18 0
BBX 18 18 0 -3
BITMAP
090000
090000
090000
110000
17EF00
312900
312900
512900
912900
112900
112900
112900
122900
122900
122900
144F00
144800
18C000
ENDCHAR
STARTCHAR 4F43
ENCODING 20291
SWIDTH 1080 0
DWIDTH 18 0
BBX 18 18 0 -3
BITMAP
080000
080000
09FF00
111100
111100
311100
311100
511100
911100
11FF00
111100
111100
111100
111100
111100
111100
11FF00
100000
ENDCHAR
STARTCHAR 4F46
ENCODING 20294
SWIDTH 1080 0
DWIDTH 18 0
BBX 18 18 0 -3
BITMAP
080000
09FE00
090200
110200
110200
310200
31FE00
510200
910200
110200
110200
110200
11FE00
100000
100000
100000
17FF80
100000
ENDCHAR
STARTCHAR 4F47
ENCODING 20295
SWIDTH 1080 0
DWIDTH 18 0
BBX 18 18 0 -3
BITMAP
081000
081000
081000
17FF80
140080
340080
300000
57FF80
901000
101000
101000
101000
101000
101000
101000
101000
101000
107000
ENDCHAR
STARTCHAR 4F4D
ENCODING 20301
SWIDTH 1080 0
DWIDTH 18 0
BBX 18 18 0 -3
BITMAP
082000
082000
082000
102000
102000
33FF00
300000
520400
510400
910400
108400
108400
108400
108800
100800
100800
17FF80
100000
ENDCHAR
STARTCHAR 4F4E
ENCODING 20302
SWIDTH 1080 0
DWIDTH 18 0
BBX 18 18 0 -3
BITMAP
080100
081E00
09F000
111000
111000
311000
311000
51FF80
911000
111000
110800
110800
110800
116400
178400
100280
17F980
100080
ENDCHAR
STARTCHAR 4F4F
ENCODING 20303
SWIDTH 1080 0
DWIDTH 18 0
BBX 18 18 0 -3
BITMAP
084000
082000
081000
101000
100000
37FF00
302000
502000
902000
102000
13FE00
102000
102000
102000
102000
102000
1FFF80
100000
ENDCHAR
STARTCHAR 4F50
ENCODING 20304
SWIDTH 1080 0
DWIDTH 18 0
BBX 18 18 0 -3
BITMAP
082000
082000
082000
102000
17FF80
304000
304000
504000
908000
10FF00
111000
111000
121000
141000
101000
101000
13FF80
100000
ENDCHAR
STARTCHAR 4F51
ENCODING 20305
SWIDTH 1080 0
DWIDTH 18 0
BBX 18 18 0 -3
BITMAP
082000
082000
082000
102000
17FF80
304000
304000
508000
908000
11FE00
128200
148200
188200
108200
108200
108200
10FE00
100000
ENDCHAR
STARTCHAR 4F53
ENCODING 20307
SWIDTH 1080 0
DWIDTH 18 0
BBX 18 18 0 -3
BITMAP
082000
082000
082000
102000
102000
37FF80
307000
50A800
90A800
10A800
112400
112400
122200
15FD00
182080
102000
102000
102000
ENDCHAR
STARTCHAR 4F55
ENCODING 20309
SWIDTH 1080 0
DWIDTH 18 0
BBX 18 18 0 -3
BITMAP
080000
080000
0BFF80
100200
100200
300200
33F200
521200
921200
121200
121200
13F200
120200
100200
100200
100200
100200
100600
ENDCHAR
STARTCHAR 4F57
ENCODING 20311
SWIDTH 1080 0
DWIDTH 18 0
BBX 18 18 0 -3
BITMAP
081000
081000
081000
101000
17FF80
340080
340080
508000
908000
108200
108400
109800
10E000
108000
108000
108100
108100
107F00
ENDCHAR
STARTCHAR 4F59
ENCODING 20313
SWIDTH 1080 0
DWIDTH 18 0
BBX 18 18 0 -3
BITMAP
008000
008000
014000
022000
041000
080800
300600
CFF980
008000
008000
008000
7FFF00
008000
088800
108400
208200
C08200
018000
ENDCHAR
STARTCHAR 4F5A
ENCODING 20314
SWIDTH 1080 0
DWIDTH 18 0
BBX 18 18 0 -3
BITMAP
081000
089000
089000
109000
11FF00
311000
321000
501000
901000
17FF80
101000
102800
102800
104400
104400
108200
110100
160080
ENDCHAR
STARTCHAR 4F5B
ENCODING 20315
SWIDTH 1080 0
DWIDTH 18 0
BBX 18 18 0 -3
BITMAP
084800
084800
084800
17FF00
104900
304900
33FF00
524800
924800
144800
17FF80
144880
104880
108880
108900
110B00
120800
140800
ENDCHAR
STARTCHAR 4F5C
ENCODING 20316
SWIDTH 1080 0
DWIDTH 18 0
BBX 18 18 0 -3
BITMAP
084000
084000
084000
108000
10FF80
112000
312000
322000
543F00
902000
102000
102000
102000
103F00
102000
102000
102000
102000
ENDCHAR
STARTCHAR 4F5D
ENCODING 20317
SWIDTH 1080 0
DWIDTH 18 0
BBX 18 18 0 -3
BITMAP
090000
090000
090000
110000
13FF00
320100
340100
55F100
911100
111100
111100
111100
11F100
110200
100200
100200
100400
101C00
ENDCHAR
STARTCHAR 4F5E
ENCODING 20318
SWIDTH 1080 0
DWIDTH 18 0
BBX 18 18 0 -3
BITMAP
080000
09FE00
080000
100000
100000
37FF80
300000
504000
904000
17FF80
108400
108400
110800
13C800
123000
106C00
118200
160100
ENDCHAR
STARTCHAR 4F69
ENCODING 20329
SWIDTH 1080 0
DWIDTH 18 0
BBX 18 18 0 -3
BITMAP
100000
17FC00
140400
240400
27FC00
644400
644400
A44400
A5F400
255400
255400
255400
255400
255400
257280
294280
284180
284080
ENDCHAR
STARTCHAR 4F6F
ENCODING 20335
SWIDTH 1080 0
DWIDTH 18 0
BBX 18 18 0 -3
BITMAP
0A0400
090400
088800
101000
13FF00
302000
302000
502000
91FE00
102000
102000
102000
17FF80
102000
102000
102000
102000
102000
ENDCHAR
STARTCHAR 4F70
ENCODING 20336
SWIDTH 1080 0
DWIDTH 18 0
BBX 18 18 0 -3
BITMAP
080000
0BFF80
082000
102000
104000
31FE00
310200
510200
910200
110200
11FE00
110200
110200
110200
110200
110200
11FE00
100000
ENDCHAR
STARTCHAR 4F73
ENCODING 20339
SWIDTH 1080 0
DWIDTH 18 0
BBX 18 18 0 -3
BITMAP
081000
081000
081000
101000
13FF00
301000
301000
501000
97FF80
100000
101000
101000
101000
13FF00
101000
101000
101000
17FF80
ENDCHAR
STARTCHAR 4F75
ENCODING 20341
SWIDTH 1080 0
DWIDTH 18 0
BBX 18 18 0 -3
BITMAP
090400
090400
088800
108800
101000
37FF00
308800
508800
908800
108800
1FFF80
108800
108800
108800
110800
110800
120800
140800
ENDCHAR
STARTCHAR 4F76
ENCODING 20342
SWIDTH 1080 0
DWIDTH 18 0
BBX 18 18 0 -3
BITMAP
082000
082000
082000
17FF80
102000
302000
302000
53FF00
900000
100000
100000
11FE00
110200
110200
110200
110200
11FE00
100000
ENDCHAR
STARTCHAR 4F7B
ENCODING 20347
SWIDTH 1080 0
DWIDTH 18 0
BBX 18 18 0 -3
BITMAP
089000
089000
089000
109100
149100
329200
329400
529000
909000
109800
119400
129200
149100
109100
111000
111080
121080
140F80
ENDCHAR
STARTCHAR 4F7C
ENCODING 20348
SWIDTH 1080 0
DWIDTH 18 0
BBX 18 18 0 -3
BITMAP
081000
081000
081000
17FF80
100000
308C00
310200
520100
948400
108400
104400
104800
102800
101000
102800
104400
118200
160180
ENDCHAR
STARTCHAR 4F7F
ENCODING 20351
SWIDTH 1080 0
DWIDTH 18 0
BBX 18 18 0 -3
BITMAP
081000
081000
0FFF80
101000
101000
33FF00
321100
521100
921100
13FF00
101000
121000
111000
10A000
106000
105800
118600
160180
ENDCHAR
STARTCHAR 4F83
ENCODING 20355
SWIDTH 1080 0
DWIDTH 18 0
BBX 18 18 0 -3
BITMAP
080000
0BFE00
0A0200
120200
120200
220200
23FE00
600000
A00000
212400
212400
212400
212400
212400
222400
222500
242500
280300
ENDCHAR
STARTCHAR 4F86
ENCODING 20358
SWIDTH 1080 0
DWIDTH 18 0
BBX 18 18 0 -3
BITMAP
008000
008000
008000
7FFF00
008000
088800
088800
088800
149400
229200
40A200
01C000
02A000
049000
088800
308600
C08180
008000
ENDCHAR
STARTCHAR 4F88
ENCODING 20360
SWIDTH 1080 0
DWIDTH 18 0
BBX 18 18 0 -3
BITMAP
082000
082000
083E00
104200
108400
334800
303000
502800
90C800
170F80
101080
102100
105100
118A00
100400
100800
103000
13C000
ENDCHAR
STARTCHAR 4F8B
ENCODING 20363
SWIDTH 1080 0
DWIDTH 18 0
BBX 18 18 0 -3
BITMAP
080080
0BF880
088480
108480
108480
308480
31F480
511480
511480
122480
132480
14A480
104480
104080
108080
110080
120080
140180
ENDCHAR
STARTCHAR 4F8D
ENCODING 20365
SWIDTH 1080 0
DWIDTH 18 0
BBX 18 18 0 -3
BITMAP
081000
081000
081000
11FF00
101000
301000
301000
57FF80
900400
100400
17FF80
100400
110400
108400
104400
100400
100400
100C00
ENDCHAR
STARTCHAR 4F8F
ENCODING 20367
SWIDTH 1080 0
DWIDTH 18 0
BBX 18 18 0 -3
BITMAP
081000
091000
091000
111000
11FF00
311000
321000
501000
97FF80
103800
105400
105400
109200
109200
111100
161080
101000
101000
ENDCHAR
STARTCHAR 4F91
ENCODING 20369
SWIDTH 1080 0
DWIDTH 18 0
BBX 18 18 0 -3
BITMAP
082000
082000
082000
17FF80
104000
304000
30FE00
508200
918200
11FE00
128200
148200
108200
10FE00
108200
108200
108200
108600
ENDCHAR
STARTCHAR 4F96
ENCODING 20374
SWIDTH 1080 0
DWIDTH 18 0
BBX 18 18 0 -3
BITMAP
008000
008000
014000
022000
0C1800
300600
CFF980
000000
000000
1FFC00
122400
122400
1FFC00
122400
122400
122400
122400
100C00
ENDCHAR
STARTCHAR 4F98
ENCODING 20376
SWIDTH 1080 0
DWIDTH 18 0
BBX 18 18 0 -3
BITMAP
081000
081000
081000
17FF80
140080
340C80
303000
51E000
902000
102000
103F80
17E000
102000
102000
102000
102100
102100
101F00
ENDCHAR
STARTCHAR 4F9B
ENCODING 20379
SWIDTH 1080 0
DWIDTH 18 0
BBX 18 18 0 -3
BITMAP
088800
088800
088800
108800
108800
37FF00
308800
508800
908800
108800
108800
1FFF80
100000
108800
108400
110200
120100
140100
ENDCHAR
STARTCHAR 4F9D
ENCODING 20381
SWIDTH 1080 0
DWIDTH 18 0
BBX 18 18 0 -3
BITMAP
081000
081000
081000
101000
17FF80
302000
305080
505100
509200
919400
128800
148800
188800
108400
108400
10B200
11C100
160080
ENDCHAR
STARTCHAR 4FA0
ENCODING 20384
SWIDTH 1080 0
DWIDTH 18 0
BBX 18 18 0 -3
BITMAP
081000
081000
081000
13FF00
101000
321200
311200
509200
909400
101000
17FF80
102800
102800
104400
104400
108200
110100
160080
ENDCHAR
STARTCHAR 4FA1
ENCODING 20385
SWIDTH 1080 0
DWIDTH 18 0
BBX 18 18 0 -3
BITMAP
080000
080000
0FFF80
104800
104800
304800
33FF00
524900
924900
124900
124900
124900
124900
124900
124900
124900
13FF00
100000
ENDCHAR
STARTCHAR 4FAB
ENCODING 20395
SWIDTH 1080 0
DWIDTH 18 0
BBX 18 18 0 -3
BITMAP
081000
081000
0FFF80
110000
110000
310000
310000
50FF00
904000
104000
17FF80
108400
108400
110800
12F000
102C00
10C200
170100
ENDCHAR
STARTCHAR 4FAD
ENCODING 20397
SWIDTH 1080 0
DWIDTH 18 0
BBX 18 18 0 -3
BITMAP
080000
09FF00
090100
110100
110100
31FF00
310400
510400
910400
120200
126200
121200
140900
140100
18C080
103000
100800
100400
ENDCHAR
STARTCHAR 4FAE
ENCODING 20398
SWIDTH 1080 0
DWIDTH 18 0
BBX 18 18 0 -3
BITMAP
090000
090000
090000
13FF80
120000
340000
39FE00
512200
912200
112200
17FF80
122200
122200
122200
13FF00
100400
100400
101800
ENDCHAR
STARTCHAR 4FAF
ENCODING 20399
SWIDTH 1080 0
DWIDTH 18 0
BBX 18 18 0 -3
BITMAP
080000
09FC00
080400
100400
17FF80
300000
308000
508000
91FF00
111000
121000
101000
17FF80
102800
104800
108400
130200
1C0180
ENDCHAR
STARTCHAR 4FB5
ENCODING 20405
SWIDTH 1080 0
DWIDTH 18 0
BBX 18 18 0 -3
BITMAP
080000
0BFE00
080200
13FE00
100200
33FE00
300000
500000
57FF80
940080
140080
11FE00
104200
104400
102800
103800
10C600
170180
ENDCHAR
STARTCHAR 4FB6
ENCODING 20406
SWIDTH 1080 0
DWIDTH 18 0
BBX 18 18 0 -3
BITMAP
080000
09FE00
090200
110200
110200
310200
31FE00
502000
902000
104000
13FF00
120100
120100
120100
120100
120100
13FF00
100000
ENDCHAR
STARTCHAR 4FBF
ENCODING 20415
SWIDTH 1080 0
DWIDTH 18 0
BBX 18 18 0 -3
BITMAP
080000
0FFF80
082000
102000
13FE00
322200
322200
53FE00
922200
122200
13FE00
102000
112000
10A000
104000
10B000
110C00
160380
ENDCHAR
STARTCHAR 4FC2
ENCODING 20418
SWIDTH 1080 0
DWIDTH 18 0
BBX 18 18 0 -3
BITMAP
080E00
0BF000
082000
104000
108400
330800
309000
506000
908200
110100
17FE80
102080
112800
112400
112200
122100
142100
102000
ENDCHAR
STARTCHAR 4FC3
ENCODING 20419
SWIDTH 1080 0
DWIDTH 18 0
BBX 18 18 0 -3
BITMAP
040000
04FF00
048100
088100
088100
108100
108100
30FF00
501000
901000
111000
111F00
111000
111000
119000
125000
123000
140F80
ENDCHAR
STARTCHAR 4FC4
ENCODING 20420
SWIDTH 1080 0
DWIDTH 18 0
BBX 18 18 0 -3
BITMAP
085000
099200
0F1100
111100
111000
2FFF80
211000
611100
A10900
210900
216900
238A00
2D0600
210400
210680
210A80
211180
236080
ENDCHAR
STARTCHAR 4FCA
ENCODING 20426
SWIDTH 1080 0
DWIDTH 18 0
BBX 18 18 0 -3
BITMAP
084000
084000
084400
108200
17FD00
308900
308800
510880
964780
104000
10FC00
108400
114800
165000
102000
105000
118C00
160380
ENDCHAR
STARTCHAR 4FCE
ENCODING 20430
SWIDTH 1080 0
DWIDTH 18 0
BBX 18 18 0 -3
BITMAP
000000
087E00
084200
084200
144200
144200
227E00
424200
884200
084200
084200
147E00
144200
224200
424200
804200
03FF80
000000
ENDCHAR
STARTCHAR 4FD0
ENCODING 20432
SWIDTH 1080 0
DWIDTH 18 0
BBX 18 18 0 -3
BITMAP
082080
08C080
0B8480
108480
108480
37F480
308480
518480
91C480
12A480
129480
129480
148480
148080
188080
108080
108080
108180
ENDCHAR
STARTCHAR 4FD1
ENCODING 20433
SWIDTH 1080 0
DWIDTH 18 0
BBX 18 18 0 -3
BITMAP
080000
0BFF00
080200
104C00
103000
301000
33FF00
521100
921100
13FF00
121100
121100
13FF00
121100
121100
121100
121100
120300
ENDCHAR
STARTCHAR 4FD4
ENCODING 20436
SWIDTH 1080 0
DWIDTH 18 0
BBX 18 18 0 -3
BITMAP
080000
09FE00
090200
110200
11FE00
310200
310200
51FE00
910200
110200
11FE00
104800
104800
108800
108800
110880
120880
140780
ENDCHAR
STARTCHAR 4FD7
ENCODING 20439
SWIDTH 1080 0
DWIDTH 18 0
BBX 18 18 0 -3
BITMAP
088800
088400
090200
112200
122100
345100
305000
508800
910400
120200
1C0180
11FC00
110400
110400
110400
110400
11FC00
100000
ENDCHAR
STARTCHAR 4FD8
ENCODING 20440
SWIDTH 1080 0
DWIDTH 18 0
BBX 18 18 0 -3
BITMAP
080300
081C00
0BE000
102200
111100
310880
320880
540000
91FF00
100200
100C00
101000
17FF80
101000
101000
101000
101000
103000
ENDCHAR
STARTCHAR 4FDA
ENCODING 20442
SWIDTH 1080 0
DWIDTH 18 0
BBX 18 18 0 -3
BITMAP
080000
09FE00
091200
111200
11FE00
311200
311200
511200
91FE00
101000
101000
101000
13FF00
101000
101000
101000
17FF80
100000
ENDCHAR
STARTCHAR 4FDB
ENCODING 20443
SWIDTH 1080 0
DWIDTH 18 0
BBX 18 18 0 -3
BITMAP
084000
084000
087C00
108400
110800
321000
35FE00
511200
911200
112200
11FE00
102800
102800
104800
104800
108880
110880
160780
ENDCHAR
STARTCHAR 4FDD
ENCODING 20445
SWIDTH 1080 0
DWIDTH 18 0
BBX 18 18 0 -3
BITMAP
080000
09FE00
090200
110200
110200
310200
31FE00
500000
902000
102000
17FF80
107000
10A800
10A800
112400
122200
142180
102000
ENDCHAR
STARTCHAR 4FDF
ENCODING 20447
SWIDTH 1080 0
DWIDTH 18 0
BBX 18 18 0 -3
BITMAP
084000
084000
088400
108200
111D00
37E100
310000
510000
93FF00
122000
142000
102000
17FF80
105000
104800
108400
110200
160180
ENDCHAR
STARTCHAR 4FE1
ENCODING 20449
SWIDTH 1080 0
DWIDTH 18 0
BBX 18 18 0 -3
BITMAP
080000
09FE00
080000
100000
17FF80
300000
300000
51FE00
900000
11FE00
100000
100000
11FE00
110200
110200
110200
11FE00
100000
ENDCHAR
STARTCHAR 4FE3
ENCODING 20451
SWIDTH 1080 0
DWIDTH 18 0
BBX 18 18 0 -3
BITMAP
080000
09FE00
090200
110200
110200
21FE00
200000
600000
A7FF00
202000
202000
2FFF80
205000
205000
208800
210400
220200
2C0180
ENDCHAR
STARTCHAR 4FE4
ENCODING 20452
SWIDTH 1080 0
DWIDTH 18 0
BBX 18 18 0 -3
BITMAP
088400
084400
084400
100800
17FF00
301100
301100
53FF00
921000
141000
17FF80
143080
105080
105080
109100
111100
161700
101000
ENDCHAR
STARTCHAR 4FE5
ENCODING 20453
SWIDTH 1080 0
DWIDTH 18 0
BBX 18 18 0 -3
BITMAP
082000
082000
0BFF00
102000
102000
31FE00
312200
512200
91FE00
112200
112200
11FE00
102000
102000
17FF80
102000
102000
102000
ENDCHAR
STARTCHAR 4FEE
ENCODING 20462
SWIDTH 1080 0
DWIDTH 18 0
BBX 18 18 0 -3
BITMAP
108000
108000
11FF80
210400
2A8400
6C4800
683000
A84800
298600
2E1180
282000
29C400
280800
283100
29C200
280C00
203000
23C000
ENDCHAR
STARTCHAR 4FEF
ENCODING 20463
SWIDTH 1080 0
DWIDTH 18 0
BBX 18 18 0 -3
BITMAP
101000
101000
101000
17FF80
240000
244200
644200
648200
A4BF80
258200
26A200
249200
248A00
248A00
288200
288200
308200
208600
ENDCHAR
STARTCHAR 4FF3
ENCODING 20467
SWIDTH 1080 0
DWIDTH 18 0
BBX 18 18 0 -3
BITMAP
084800
084800
084800
104800
17CF80
304800
304800
57CF80
904800
104800
104800
11CF80
164800
108800
108800
110800
120800
140800
ENDCHAR
STARTCHAR 4FF5
ENCODING 20469
SWIDTH 1080 0
DWIDTH 18 0
BBX 18 18 0 -3
BITMAP
082000
082000
0BFF00
102000
102000
21FE00
202000
602000
A7FF80
205000
209000
231300
2D0C00
210800
210400
216200
218100
260080
ENDCHAR
STARTCHAR 4FF6
ENCODING 20470
SWIDTH 1080 0
DWIDTH 18 0
BBX 18 18 0 -3
BITMAP
110000
110000
113F00
11D100
211100
211100
611200
6FEA00
A10A00
210A00
254400
252400
252400
252A00
290A00
211100
212100
234080
ENDCHAR
STARTCHAR 4FF8
ENCODING 20472
SWIDTH 1080 0
DWIDTH 18 0
BBX 18 18 0 -3
BITMAP
082000
082000
0FFF00
102000
17FE00
305000
305000
5FFF80
908800
112400
122200
1DFD80
102000
102000
17FF00
102000
102000
102000
ENDCHAR
STARTCHAR 4FFA
ENCODING 20474
SWIDTH 1080 0
DWIDTH 18 0
BBX 18 18 0 -3
BITMAP
082000
082000
082000
17FF80
104800
30A400
312200
57FD80
912400
112400
11FC00
112400
112400
11FC00
102000
102080
102080
101F80
ENDCHAR
STARTCHAR 4FFE
ENCODING 20478
SWIDTH 1080 0
DWIDTH 18 0
BBX 18 18 0 -3
BITMAP
081000
081000
082000
09FE00
111200
111200
31FE00
311200
511200
91FE00
102000
104800
108800
17FF80
100800
100800
100800
100800
ENDCHAR
STARTCHAR 5005
ENCODING 20485
SWIDTH 1080 0
DWIDTH 18 0
BBX 18 18 0 -3
BITMAP
081000
081000
081000
17FF80
100000
310200
310200
528500
924480
144880
100000
101000
101000
17FF80
101000
101000
101000
101000
ENDCHAR
STARTCHAR 5006
ENCODING 20486
SWIDTH 1080 0
DWIDTH 18 0
BBX 18 18 0 -3
BITMAP
100000
1FFF80
102000
202000
202000
6FFF80
682080
A82080
AFBE80
292480
292480
2B2C80
2AAA80
2C7180
282080
282080
282080
282380
ENDCHAR
STARTCHAR 5009
ENCODING 20489
SWIDTH 1080 0
DWIDTH 18 0
BBX 18 18 0 -3
BITMAP
008000
014000
022000
041000
0BE800
100400
2FFA00
C80980
0FF800
080800
0FF800
080000
100000
17FC00
240400
440400
07FC00
000000
ENDCHAR
STARTCHAR 500B
ENCODING 20491
SWIDTH 1080 0
DWIDTH 18 0
BBX 18 18 0 -3
BITMAP
080000
0BFF00
0A0100
121100
121100
32FF00
321100
521100
921100
127D00
124500
124500
124500
127D00
120100
120100
13FF00
100000
ENDCHAR
STARTCHAR 500D
ENCODING 20493
SWIDTH 1080 0
DWIDTH 18 0
BBX 18 18 0 -3
BITMAP
082000
082000
082000
13FF00
108400
304400
304400
500800
97FF80
100000
100000
11FE00
110200
110200
110200
110200
11FE00
100000
ENDCHAR
STARTCHAR 500F
ENCODING 20495
SWIDTH 1080 0
DWIDTH 18 0
BBX 18 18 0 -3
BITMAP
104000
104000
107E00
208200
294400
2A2800
681000
682800
A8C600
2B0180
281400
281200
2BFF80
282800
282800
204400
208200
230180
ENDCHAR
STARTCHAR 5011
ENCODING 20497
SWIDTH 1080 0
DWIDTH 18 0
BBX 18 18 0 -3
BITMAP
080000
0BCF80
0A4880
124880
13CF80
324880
324880
53CF80
920080
120080
120080
120080
120080
120080
120080
120080
120080
120380
ENDCHAR
STARTCHAR 5012
ENCODING 20498
SWIDTH 1080 0
DWIDTH 18 0
BBX 18 18 0 -3
BITMAP
080100
0FF100
090900
110900
124900
244900
2FA900
602900
A10900
210900
2FE900
210900
210900
210100
216100
238100
2C0100
200300
ENDCHAR
STARTCHAR 5014
ENCODING 20500
SWIDTH 1080 0
DWIDTH 18 0
BBX 18 18 0 -3
BITMAP
080000
0BFF00
0A0100
120100
13FF00
321000
321000
529200
929200
129200
12FE00
121000
141000
151100
151100
191100
11FF00
100000
ENDCHAR
STARTCHAR 5016
ENCODING 20502
SWIDTH 1080 0
DWIDTH 18 0
BBX 18 18 0 -3
BITMAP
081000
081000
081000
13FF00
101000
301000
37FF80
508400
904400
104800
17FF80
101000
101000
101000
13FF00
101000
101000
101000
ENDCHAR
STARTCHAR 5019
ENCODING 20505
SWIDTH 1080 0
DWIDTH 18 0
BBX 18 18 0 -3
BITMAP
080000
08FC00
080400
140400
15FF80
340000
344000
544000
94FF00
149000
151000
141000
15FF80
142800
144800
108400
110200
160180
ENDCHAR
STARTCHAR 501A
ENCODING 20506
SWIDTH 1080 0
DWIDTH 18 0
BBX 18 18 0 -3
BITMAP
082000
082000
0BFF00
105000
108800
310400
360400
500000
97FF80
100200
100200
11F200
111200
111200
11F200
100200
100200
100E00
ENDCHAR
STARTCHAR 501F
ENCODING 20511
SWIDTH 1080 0
DWIDTH 18 0
BBX 18 18 0 -3
BITMAP
088800
088800
088800
13FF00
108800
308800
308800
57FF80
900000
100000
11FC00
110400
110400
11FC00
110400
110400
11FC00
100000
ENDCHAR
STARTCHAR 5021
ENCODING 20513
SWIDTH 1080 0
DWIDTH 18 0
BBX 18 18 0 -3
BITMAP
080000
09FE00
090200
090200
11FE00
110200
310200
31FE00
500000
900000
13FF00
120100
120100
13FF00
120100
120100
13FF00
100000
ENDCHAR
STARTCHAR 5023
ENCODING 20515
SWIDTH 1080 0
DWIDTH 18 0
BBX 18 18 0 -3
BITMAP
110800
110800
110800
210800
2FEF80
221100
621100
622900
A3C900
224A00
224A00
224600
224400
244400
244A00
244A00
289100
21A080
ENDCHAR
STARTCHAR 5024
ENCODING 20516
SWIDTH 1080 0
DWIDTH 18 0
BBX 18 18 0 -3
BITMAP
081000
081000
0BFF80
102000
102000
34FE00
348200
548200
94FE00
148200
148200
14FE00
148200
148200
14FE00
140000
17FF80
100000
ENDCHAR
STARTCHAR 5025
ENCODING 20517
SWIDTH 1080 0
DWIDTH 18 0
BBX 18 18 0 -3
BITMAP
082000
082000
082000
17FF80
144880
344880
304800
508900
910700
160000
100000
13FF00
102000
102000
102000
102000
17FF80
100000
ENDCHAR
STARTCHAR 5026
ENCODING 20518
SWIDTH 1080 0
DWIDTH 18 0
BBX 18 18 0 -3
BITMAP
0A2200
092200
08A400
10A800
17FE00
305000
305000
5FFF80
908800
110400
13FA00
140980
180800
11F800
110000
110200
110200
10FE00
ENDCHAR
STARTCHAR 5028
ENCODING 20520
SWIDTH 1080 0
DWIDTH 18 0
BBX 18 18 0 -3
BITMAP
080000
09FF00
090100
110100
11FF00
310000
310800
510800
91FF80
110800
110800
120800
127F00
124100
144100
144100
187F00
100000
ENDCHAR
STARTCHAR 5029
ENCODING 20521
SWIDTH 1080 0
DWIDTH 18 0
BBX 18 18 0 -3
BITMAP
081000
081000
0BFF00
081000
11FE00
101000
37FF80
300000
500000
91FE00
111200
111200
11FE00
110200
110200
110200
110200
110600
ENDCHAR
STARTCHAR 502A
ENCODING 20522
SWIDTH 1080 0
DWIDTH 18 0
BBX 18 18 0 -3
BITMAP
082000
08C000
0B0F00
120100
120100
33CF00
320100
520100
920100
13FF00
104800
104800
104800
104800
108800
108880
110880
160780
ENDCHAR
STARTCHAR 502B
ENCODING 20523
SWIDTH 1080 0
DWIDTH 18 0
BBX 18 18 0 -3
BITMAP
082000
082000
085000
108800
110400
320200
35FD00
580080
900000
13FE00
125200
125200
13FE00
125200
125200
125200
125200
120600
ENDCHAR
STARTCHAR 502C
ENCODING 20524
SWIDTH 1080 0
DWIDTH 18 0
BBX 18 18 0 -3
BITMAP
082000
082000
083F00
082000
102000
11FE00
310200
31FE00
510200
910200
11FE00
102000
102000
17FF80
102000
102000
102000
102000
ENDCHAR
STARTCHAR 502D
ENCODING 20525
SWIDTH 1080 0
DWIDTH 18 0
BBX 18 18 0 -3
BITMAP
080E00
09F000
081000
17FF80
103800
305400
309400
511200
961180
104000
104000
17FF80
108400
110400
13C800
103800
10C600
170100
ENDCHAR
STARTCHAR 5036
ENCODING 20534
SWIDTH 1080 0
DWIDTH 18 0
BBX 18 18 0 -3
BITMAP
080000
09FE00
090200
110200
11FE00
310200
310200
51FE00
910200
110200
11FE00
100000
100000
17FF80
100000
104C00
118200
160100
ENDCHAR
STARTCHAR 5039
ENCODING 20537
SWIDTH 1080 0
DWIDTH 18 0
BBX 18 18 0 -3
BITMAP
081000
081000
082800
104400
118200
360180
31FE00
501000
901000
11FF00
111100
111100
11FF00
102800
104800
108400
110200
160180
ENDCHAR
STARTCHAR 5043
ENCODING 20547
SWIDTH 1080 0
DWIDTH 18 0
BBX 18 18 0 -3
BITMAP
100000
17FF80
140000
14FE00
248200
24FE00
648200
64FE00
A42000
27FF00
242400
244400
24F800
241400
25E200
240000
27FF80
200000
ENDCHAR
STARTCHAR 5047
ENCODING 20551
SWIDTH 1080 0
DWIDTH 18 0
BBX 18 18 0 -3
BITMAP
100000
17DF00
144100
144100
244100
27DF00
640000
640000
A40000
27BF00
241100
241100
240A00
27CA00
240400
240A00
243100
24C080
ENDCHAR
STARTCHAR 5048
ENCODING 20552
SWIDTH 1080 0
DWIDTH 18 0
BBX 18 18 0 -3
BITMAP
080000
09FC00
090400
11FC00
110400
310400
31FC00
508000
908000
11FF00
122100
162100
1A5100
128900
120100
13F900
100200
100E00
ENDCHAR
STARTCHAR 5049
ENCODING 20553
SWIDTH 1080 0
DWIDTH 18 0
BBX 18 18 0 -3
BITMAP
082000
082000
09FC00
104400
104400
37FF80
300000
51FE00
510200
910200
11FE00
100800
11FF00
108800
108800
17FF80
100800
100800
ENDCHAR
STARTCHAR 504F
ENCODING 20559
SWIDTH 1080 0
DWIDTH 18 0
BBX 18 18 0 -3
BITMAP
100000
17FF80
100000
23FF00
220100
620100
63FF00
A20000
220000
23FF00
232900
252900
25FF00
252900
292900
212900
212900
210300
ENDCHAR
STARTCHAR 5050
ENCODING 20560
SWIDTH 1080 0
DWIDTH 18 0
BBX 18 18 0 -3
BITMAP
101000
101000
17FF00
100400
21C800
203800
61C600
67FF80
A40000
240C00
243000
25C200
240C00
243000
29C100
280600
301800
23E000
ENDCHAR
STARTCHAR 5055
ENCODING 20565
SWIDTH 1080 0
DWIDTH 18 0
BBX 18 18 0 -3
BITMAP
080000
0A0800
0A0880
13EB00
120C00
320800
326880
538780
9C4000
104000
13FE00
120200
120200
13FE00
120200
120200
13FE00
100000
ENDCHAR
STARTCHAR 5056
ENCODING 20566
SWIDTH 1080 0
DWIDTH 18 0
BBX 18 18 0 -3
BITMAP
082000
082100
082100
13FE00
102400
302800
303000
57FF80
905000
108800
11FE00
168200
108200
10FE00
108200
108200
10FE00
100000
ENDCHAR
STARTCHAR 505A
ENCODING 20570
SWIDTH 1080 0
DWIDTH 18 0
BBX 18 18 0 -3
BITMAP
090800
090800
090800
110800
1FE800
311F80
311100
512900
910A00
17CA00
144A00
144400
144400
144A00
17CA00
101100
102100
10C080
ENDCHAR
STARTCHAR 505C
ENCODING 20572
SWIDTH 1080 0
DWIDTH 18 0
BBX 18 18 0 -3
BITMAP
082000
082000
0FFF80
100000
11FC00
210400
210400
61FC00
A00000
2FFF80
280080
280080
23FE00
202000
202000
202000
202000
206000
ENDCHAR
STARTCHAR 5065
ENCODING 20581
SWIDTH 1080 0
DWIDTH 18 0
BBX 18 18 0 -3
BITMAP
101000
101000
1F7E00
211200
22FF80
621200
641200
AF7E00
A11000
291000
297F00
251000
251000
22FF80
221000
251000
28C000
203F80
ENDCHAR
STARTCHAR 506C
ENCODING 20588
SWIDTH 1080 0
DWIDTH 18 0
BBX 18 18 0 -3
BITMAP
090000
090000
09FF80
122480
122480
35C880
30B080
531900
902100
10C600
100000
102000
109200
128900
128080
148480
148400
107C00
ENDCHAR
STARTCHAR 5072
ENCODING 20594
SWIDTH 1080 0
DWIDTH 18 0
BBX 18 18 0 -3
BITMAP
080000
0BFE00
0A2200
122200
122200
23FE00
222200
622200
A22200
23FE00
200000
202000
229200
228900
248080
248280
288200
207E00
ENDCHAR
STARTCHAR 5074
ENCODING 20596
SWIDTH 1080 0
DWIDTH 18 0
BBX 18 18 0 -3
BITMAP
100100
100100
17C900
244900
244900
27C900
644900
644900
A44900
27C900
244900
244900
244900
27C900
220900
228100
244100
284300
ENDCHAR
STARTCHAR 5075
ENCODING 20597
SWIDTH 1080 0
DWIDTH 18 0
BBX 18 18 0 -3
BITMAP
082000
082000
083F80
102000
102000
23FE00
220200
620200
A3FE00
220200
220200
23FE00
220200
220200
23FE00
208000
230600
2C0180
ENDCHAR
STARTCHAR 5076
ENCODING 20598
SWIDTH 1080 0
DWIDTH 18 0
BBX 18 18 0 -3
BITMAP
080000
0BFE00
0A2200
122200
13FE00
322200
322200
53FE00
902000
102000
17FF00
142100
142900
142900
15F500
140500
140100
140300
ENDCHAR
STARTCHAR 5078
ENCODING 20600
SWIDTH 1080 0
DWIDTH 18 0
BBX 18 18 0 -3
BITMAP
09E000
083000
084800
108400
110200
320180
3DFE00
500000
900000
17C900
144900
165200
155200
146400
165200
155200
144900
14C900
ENDCHAR
STARTCHAR 507D
ENCODING 20605
SWIDTH 1080 0
DWIDTH 18 0
BBX 18 18 0 -3
BITMAP
0A2000
092000
094000
104000
17F800
308800
308800
51FC00
910400
120400
13FF00
140100
140900
1AA500
129500
129100
120200
100600
ENDCHAR
STARTCHAR 5080
ENCODING 20608
SWIDTH 1080 0
DWIDTH 18 0
BBX 18 18 0 -3
BITMAP
082000
082000
084000
13FE00
122200
322200
33FE00
522200
922200
13FE00
109000
109200
109280
109480
111780
111000
121080
140F80
ENDCHAR
STARTCHAR 5085
ENCODING 20613
SWIDTH 1080 0
DWIDTH 18 0
BBX 18 18 0 -3
BITMAP
082400
082200
0FFF80
102000
13FF00
322100
33FF00
522100
53FF00
922100
100400
100400
17FF80
100400
110400
108400
108400
101C00
ENDCHAR
STARTCHAR 508D
ENCODING 20621
SWIDTH 1080 0
DWIDTH 18 0
BBX 18 18 0 -3
BITMAP
081000
081000
0BFF00
108400
104400
304800
37FF80
540080
944080
104000
17FF80
104000
107E00
104200
108200
108200
110400
161C00
ENDCHAR
STARTCHAR 5091
ENCODING 20625
SWIDTH 1080 0
DWIDTH 18 0
BBX 18 18 0 -3
BITMAP
0A0200
0A0200
13C200
147F80
245200
2A9200
619200
613F80
A20200
2C2200
202000
2FFF80
207000
20A800
212400
222200
2C2180
202000
ENDCHAR
STARTCHAR 5098
ENCODING 20632
SWIDTH 1080 0
DWIDTH 18 0
BBX 18 18 0 -3
BITMAP
008000
014000
022000
0C1800
300600
C88980
088800
149400
22A200
088800
088800
149400
22A200
008000
FFFF80
008000
008000
008000
ENDCHAR
STARTCHAR 5099
ENCODING 20633
SWIDTH 1080 0
DWIDTH 18 0
BBX 18 18 0 -3
BITMAP
084400
084400
0BFF80
104400
104400
27FF80
240000
64FF00
A49100
249100
24FF00
249100
249100
24FF00
249100
289100
289100
209300
ENDCHAR
STARTCHAR 509A
ENCODING 20634
SWIDTH 1080 0
DWIDTH 18 0
BBX 18 18 0 -3
BITMAP
110800
110800
110800
210800
2FE800
228F80
625100
645100
A8AA00
228A00
228A00
210400
218400
224A00
224A00
241100
282100
204080
ENDCHAR
STARTCHAR 50AC
ENCODING 20652
SWIDTH 1080 0
DWIDTH 18 0
BBX 18 18 0 -3
BITMAP
081000
091100
091100
11FF00
108800
308800
311000
51FF80
531000
951000
11FF00
111000
111000
11FF00
111000
111000
11FF80
100000
ENDCHAR
STARTCHAR 50AD
ENCODING 20653
SWIDTH 1080 0
DWIDTH 18 0
BBX 18 18 0 -3
BITMAP
081000
081000
0BFF80
121000
12FE00
321200
33FF80
521200
92FE00
121000
12FF00
129100
14FF00
149100
14FF00
149100
189100
109300
ENDCHAR
STARTCHAR 50B2
ENCODING 20658
SWIDTH 1080 0
DWIDTH 18 0
BBX 18 18 0 -3
BITMAP
110800
110800
17C800
210800
211F80
2FF100
601100
612900
A10A00
2FEA00
220A00
23C400
224400
224400
244A00
248A00
299100
202080
ENDCHAR
STARTCHAR 50B3
ENCODING 20659
SWIDTH 1080 0
DWIDTH 18 0
BBX 18 18 0 -3
BITMAP
081000
0FFF80
081000
13FF00
121100
33FF00
321100
53FF00
901400
101200
103D00
17C100
100400
17FF80
110400
108400
108400
100C00
ENDCHAR
STARTCHAR 50B4
ENCODING 20660
SWIDTH 1080 0
DWIDTH 18 0
BBX 18 18 0 -3
BITMAP
100000
17FF80
140000
140000
247C00
244400
644400
647C00
A40000
240000
25EF00
252900
252900
25EF00
240000
240000
27FF80
200000
ENDCHAR
STARTCHAR 50B5
ENCODING 20661
SWIDTH 1080 0
DWIDTH 18 0
BBX 18 18 0 -3
BITMAP
081000
081000
0BFF00
101000
11FE00
301000
37FF80
500000
91FE00
110200
11FE00
110200
11FE00
110200
11FE00
104000
118600
1E0180
ENDCHAR
STARTCHAR 50B7
ENCODING 20663
SWIDTH 1080 0
DWIDTH 18 0
BBX 18 18 0 -3
BITMAP
090000
090000
0BFF00
120000
15FC00
390400
31FC00
510400
91FC00
100000
17FF80
110000
13FF00
124900
1C8900
111100
162100
10C600
ENDCHAR
STARTCHAR 50BE
ENCODING 20670
SWIDTH 1080 0
DWIDTH 18 0
BBX 18 18 0 -3
BITMAP
100000
10FF80
100800
281000
287F00
694100
694100
AA7F00
AC4100
284100
287F00
284100
284100
294100
277F00
202200
204100
218080
ENDCHAR
STARTCHAR 50C2
ENCODING 20674
SWIDTH 1080 0
DWIDTH 18 0
BBX 18 18 0 -3
BITMAP
102000
13FC00
122400
1FFF80
222400
23FC00
602000
67FE00
A42200
27FE00
204000
208000
2FFF80
210400
23C800
203000
20CC00
270200
ENDCHAR
STARTCHAR 50C5
ENCODING 20677
SWIDTH 1080 0
DWIDTH 18 0
BBX 18 18 0 -3
BITMAP
084400
084400
0BFF80
104400
100000
31FE00
311200
511200
91FE00
101000
101000
13FF00
101000
11FE00
101000
101000
17FF80
100000
ENDCHAR
STARTCHAR 50C9
ENCODING 20681
SWIDTH 1080 0
DWIDTH 18 0
BBX 18 18 0 -3
BITMAP
008000
008000
014000
022000
0C1800
300600
CFFD80
000000
000000
1F7C00
114400
114400
1F7C00
000000
041000
0A1000
112C00
604200
ENDCHAR
STARTCHAR 50CA
ENCODING 20682
SWIDTH 1080 0
DWIDTH 18 0
BBX 18 18 0 -3
BITMAP
100000
1FFF80
108800
27FF00
248900
248900
67FF00
602000
AFFF80
208800
210400
23FE00
240500
290480
21FC00
210000
210100
20FF00
ENDCHAR
STARTCHAR 50CD
ENCODING 20685
SWIDTH 1080 0
DWIDTH 18 0
BBX 18 18 0 -3
BITMAP
106400
178400
110400
2FE400
210400
2FFF80
692480
6FE480
A92480
292480
2FE480
210480
210880
2FE880
210880
21D080
2F1100
202300
ENDCHAR
STARTCHAR 50CF
ENCODING 20687
SWIDTH 1080 0
DWIDTH 18 0
BBX 18 18 0 -3
BITMAP
088000
08FC00
088800
111000
13FE00
352200
312200
512200
91FE00
106100
119100
163200
10D400
171800
107400
119200
161180
106000
ENDCHAR
STARTCHAR 50D1
ENCODING 20689
SWIDTH 1080 0
DWIDTH 18 0
BBX 18 18 0 -3
BITMAP
100E00
13F000
102000
27FF80
204800
208400
63FA00
6C8980
A0F800
200000
27FF00
240100
24F900
248900
24F900
240100
240100
240300
ENDCHAR
STARTCHAR 50D5
ENCODING 20693
SWIDTH 1080 0
DWIDTH 18 0
BBX 18 18 0 -3
BITMAP
084800
0A4900
094900
114A00
104800
37FF80
310400
508800
93FF00
102000
11FE00
102000
17FF80
102000
105000
108800
130600
1C0180
ENDCHAR
STARTCHAR 50D6
ENCODING 20694
SWIDTH 1080 0
DWIDTH 18 0
BBX 18 18 0 -3
BITMAP
081000
081000
0FFF80
101000
13FF00
300000
31FE00
510200
91FE00
108400
104400
104800
17FF80
100000
11FE00
110200
11FE00
100000
ENDCHAR
STARTCHAR 50DA
ENCODING 20698
SWIDTH 1080 0
DWIDTH 18 0
BBX 18 18 0 -3
BITMAP
102000
102000
1FFF80
105000
288880
250500
63FE00
660500
ABFC80
220400
220400
23FC00
202000
222800
222400
242200
282100
20E000
ENDCHAR
STARTCHAR 50DE
ENCODING 20702
SWIDTH 1080 0
DWIDTH 18 0
BBX 18 18 0 -3
BITMAP
100300
103C00
13C200
222100
241080
2BFC00
620400
620400
A3FF00
220100
220100
27FF80
240080
240480
255280
294900
2A0100
200600
ENDCHAR
STARTCHAR 50E3
ENCODING 20707
SWIDTH 1080 0
DWIDTH 18 0
BBX 18 18 0 -3
BITMAP
110400
110400
17DF00
210400
210400
2FFF80
628A00
624A00
A45100
282080
23FE00
220200
220200
23FE00
220200
220200
23FE00
200000
ENDCHAR
STARTCHAR 50E5
ENCODING 20709
SWIDTH 1080 0
DWIDTH 18 0
BBX 18 18 0 -3
BITMAP
102000
102000
13FE00
202000
27FF00
210400
610400
6FDF80
A10400
210400
21DF80
2E0000
200000
27FF80
208800
210800
220880
2C0780
ENDCHAR
STARTCHAR 50E7
ENCODING 20711
SWIDTH 1080 0
DWIDTH 18 0
BBX 18 18 0 -3
BITMAP
090400
088400
088800
13FF00
122100
33FF00
322100
522100
93FF00
100000
11FE00
110200
110200
11FE00
110200
110200
11FE00
100000
ENDCHAR
STARTCHAR 50ED
ENCODING 20717
SWIDTH 1080 0
DWIDTH 18 0
BBX 18 18 0 -3
BITMAP
110200
110200
1FDF00
250A00
250A00
2FFF80
628400
64CA80
A89380
200000
23FE00
220200
220200
23FE00
220200
220200
23FE00
200000
ENDCHAR
STARTCHAR 50EE
ENCODING 20718
SWIDTH 1080 0
DWIDTH 18 0
BBX 18 18 0 -3
BITMAP
081000
081000
0BFF00
108400
104400
300800
37FF80
500000
91FE00
111200
11FE00
111200
11FE00
101000
11FE00
101000
17FF80
100000
ENDCHAR
STARTCHAR 50F5
ENCODING 20725
SWIDTH 1080 0
DWIDTH 18 0
BBX 18 18 0 -3
BITMAP
080000
0FFF80
080000
11FE00
111200
31FE00
311200
51FE00
900000
13FF00
100000
11FE00
111200
11FE00
111200
11FE00
100000
17FF80
ENDCHAR
ENDFONT
